<svg xmlns="http://www.w3.org/2000/svg" xmlns:xlink="http://www.w3.org/1999/xlink" width="24" height="24" viewBox="0 0 24 24"><defs><style>.a,.c,.d,.e{fill:#0270ff;}.a{stroke:#707070;}.b{clip-path:url(#a);}.c{font-size:10px;font-family:MicrosoftYaHei, Microsoft YaHei;}.e{stroke:#0270ff;}.f{stroke:none;}.g{fill:none;}</style><clipPath id="a"><rect class="a" width="24" height="24"/></clipPath></defs><g class="b"><text class="c" transform="translate(6 15)"><tspan x="0" y="0">3D</tspan></text><path class="d" d="M87.764,107.4a.492.492,0,0,1-.346-.84l4.426-4.531a.491.491,0,1,1,.695.695l-4.429,4.534A.487.487,0,0,1,87.764,107.4Zm3.362.373H87.391a.492.492,0,0,1-.491-.491v-3.735a.491.491,0,1,1,.982,0v3.244h3.244a.491.491,0,0,1,0,.982Z" transform="translate(-85.336 -85.236)"/><path class="d" d="M91.819,102.256a.492.492,0,0,1,.346.84l-4.427,4.531a.491.491,0,0,1-.695-.695l4.429-4.534A.487.487,0,0,1,91.819,102.256Zm-3.362-.373h3.736a.492.492,0,0,1,.491.491v3.735a.491.491,0,0,1-.982,0v-3.244H88.457a.491.491,0,1,1,0-.982Z" transform="translate(-69.336 -100.771)"/><g class="e" transform="translate(18 19)"><rect class="f" width="5" height="1" rx="0.5"/><rect class="g" x="0.5" y="0.5" width="4"/></g><g class="e" transform="translate(21 17) rotate(90)"><rect class="f" width="5" height="1" rx="0.5"/><rect class="g" x="0.5" y="0.5" width="4"/></g></g></svg>