<svg xmlns="http://www.w3.org/2000/svg" xmlns:xlink="http://www.w3.org/1999/xlink" width="24" height="24" viewBox="0 0 24 24"><defs><style>.a,.c{fill:#0270ff;}.a{stroke:#707070;}.b{clip-path:url(#a);}</style><clipPath id="a"><rect class="a" width="24" height="24"/></clipPath></defs><g class="b"><path class="c" d="M84.611,118.63H65.627A1.627,1.627,0,0,0,64,120.257v16.271a1.627,1.627,0,0,0,1.627,1.627H84.611a1.627,1.627,0,0,0,1.627-1.627V120.257A1.628,1.628,0,0,0,84.611,118.63Zm-19.526,2.712h9.492v7.051H65.085Zm0,15.187v-7.051h9.492v7.051Zm20.068,0H75.661v-7.051h9.492Zm0-8.136H75.661v-7.051h9.492Z" transform="translate(-63.119 -116.393)"/></g></svg>