<svg xmlns="http://www.w3.org/2000/svg" xmlns:xlink="http://www.w3.org/1999/xlink" width="24" height="24" viewBox="0 0 24 24"><defs><style>.a,.c{fill:#0270ff;}.a{stroke:#707070;}.b{clip-path:url(#a);}</style><clipPath id="a"><rect class="a" width="24" height="24"/></clipPath></defs><g class="b"><path class="c" d="M-17807.373,21730.523a1.63,1.63,0,0,1-1.625-1.631v-16.268a1.629,1.629,0,0,1,1.625-1.625h18.984a1.626,1.626,0,0,1,1.625,1.625v16.268a1.628,1.628,0,0,1-1.625,1.631Zm19.49-1.768v-4.434h-6v4.434Zm-7,0v-4.434h-6v4.434Zm-13,0h6v-4.434h-6Zm20-5.562v-3.932h-6v3.932Zm-7,0v-9.436h-13v9.436Zm7-5.061v-4.375h-6v4.375Z" transform="translate(17809.883 -21708.76)"/></g></svg>