<svg xmlns="http://www.w3.org/2000/svg" xmlns:xlink="http://www.w3.org/1999/xlink" width="24" height="24" viewBox="0 0 24 24"><defs><style>.a,.c{fill:#fff;}.a{stroke:#707070;}.b{clip-path:url(#a);}</style><clipPath id="a"><rect class="a" width="24" height="24"/></clipPath></defs><g class="b"><path class="c" d="M-17807.373,21730.523a1.63,1.63,0,0,1-1.625-1.631v-16.268a1.629,1.629,0,0,1,1.625-1.625h18.984a1.626,1.626,0,0,1,1.625,1.625v16.268a1.628,1.628,0,0,1-1.625,1.631Zm19.49-1.768v-2.994h-4v2.994Zm-5,0v-2.994h-4v2.994Zm-5,0v-2.994h-5v2.994Zm-10,0h4v-2.994h-4v-1h15v-11h-15Zm20-4v-2.867h-4v2.867Zm0-4v-2.869h-4v2.869Zm0-4v-3.006h-4v3.006Z" transform="translate(17809.883 -21708.76)"/></g></svg>