<svg xmlns="http://www.w3.org/2000/svg" xmlns:xlink="http://www.w3.org/1999/xlink" width="24" height="24" viewBox="0 0 24 24"><defs><style>.a,.c{fill:#0270ff;}.a{stroke:#707070;}.b{clip-path:url(#a);}</style><clipPath id="a"><rect class="a" width="24" height="24"/></clipPath></defs><g class="b"><path class="c" d="M-11759.389,22767.525h-18.981a1.63,1.63,0,0,1-1.629-1.629v-16.271a1.628,1.628,0,0,1,1.629-1.623h18.981a1.628,1.628,0,0,1,1.628,1.623v16.271A1.63,1.63,0,0,1-11759.389,22767.525Zm-19.49-16.764h0v15h20v-15Z" transform="translate(11780.881 -22745.762)"/><rect class="c" width="20" height="1" transform="translate(2 10)"/><rect class="c" width="18" height="1" transform="translate(16 3) rotate(90)"/><rect class="c" width="20" height="1" transform="translate(2 15)"/><rect class="c" width="18" height="1" transform="translate(9 3) rotate(90)"/></g></svg>