<svg xmlns="http://www.w3.org/2000/svg" xmlns:xlink="http://www.w3.org/1999/xlink" width="16" height="16" viewBox="0 0 16 16"><defs><style>.a,.c{fill:#fff;}.a{stroke:#707070;}.b{clip-path:url(#a);}</style><clipPath id="a"><rect class="a" width="16" height="16"/></clipPath></defs><g class="b"><path class="c" d="M1,13.784a1.148,1.148,0,0,1-1-1.253V1.253A1.148,1.148,0,0,1,1,0,1.148,1.148,0,0,1,2,1.253V12.531A1.148,1.148,0,0,1,1,13.784Z" transform="translate(8.999 14.784) rotate(180)"/><path class="c" d="M1,13.784a1.148,1.148,0,0,1-1-1.253V1.253A1.148,1.148,0,0,1,1,0,1.148,1.148,0,0,1,2,1.253V12.531A1.148,1.148,0,0,1,1,13.784Z" transform="translate(1 9) rotate(-90)"/></g></svg>