<svg xmlns="http://www.w3.org/2000/svg" xmlns:xlink="http://www.w3.org/1999/xlink" width="20" height="20" viewBox="0 0 20 20"><defs><style>.a,.c{fill:#b1b1b1;}.a{stroke:#707070;}.b{clip-path:url(#a);}</style><clipPath id="a"><rect class="a" width="20" height="20"/></clipPath></defs><g class="b"><path class="c" d="M2.611-3.5,4.128.625h-.86l-.35-.946H1.3L.96.625H.1L1.623-3.5ZM1.518-.892H2.7L2.108-2.5Zm5.809-.19q-.061.025-.117.043l.8,1.664H7.094l-.78-1.633H5.227V.625H4.386L4.374-2.58a.884.884,0,0,1,.071-.35.932.932,0,0,1,.19-.289.87.87,0,0,1,.286-.193.884.884,0,0,1,.35-.071H6.977a.884.884,0,0,1,.35.071.905.905,0,0,1,.289.193.915.915,0,0,1,.193.286.877.877,0,0,1,.071.353v.663a.877.877,0,0,1-.071.353.915.915,0,0,1-.193.286A.949.949,0,0,1,7.327-1.082ZM7.02-2.709a.2.2,0,0,0-.061-.15.206.206,0,0,0-.147-.058H5.436a.2.2,0,0,0-.15.058.2.2,0,0,0-.058.15v1.13H6.811a.2.2,0,0,0,.147-.061.2.2,0,0,0,.061-.147Z" transform="translate(10.923 5.444)"/><path class="c" d="M9.775,14.709H1.813A1.447,1.447,0,0,1,.784,12.245l1.61-1.631a5.457,5.457,0,0,0,3.112.969h.021A5.479,5.479,0,0,0,8.96,10.377L10.8,12.245a1.447,1.447,0,0,1-1.03,2.464ZM5.513,11.03A5.514,5.514,0,1,1,8.31.765a4.022,4.022,0,0,0-.041.574,3.967,3.967,0,0,0,2.746,3.783c.01.135.014.268.014.4A5.521,5.521,0,0,1,5.513,11.03Zm.008-8.642A3.125,3.125,0,1,0,8.647,5.518,3.13,3.13,0,0,0,5.521,2.389ZM5.513,1.105a.186.186,0,0,0-.181.181.188.188,0,0,0,.181.186A.18.18,0,0,0,5.7,1.286.188.188,0,0,0,5.513,1.105Zm0,6.068a1.657,1.657,0,1,1,.771-3.124.639.639,0,0,0-.468,1,.545.545,0,0,0-.3-.084.552.552,0,1,0,.548.548.539.539,0,0,0-.085-.3.62.62,0,0,0,.362.114.645.645,0,0,0,.643-.579,1.638,1.638,0,0,1,.185.76A1.66,1.66,0,0,1,5.516,7.173Z" transform="translate(1.737 2.645)"/></g></svg>