<svg xmlns="http://www.w3.org/2000/svg" xmlns:xlink="http://www.w3.org/1999/xlink" width="16" height="16" viewBox="0 0 16 16"><defs><style>.a,.c{fill:#333;}.a{stroke:#707070;}.b{clip-path:url(#a);}</style><clipPath id="a"><rect class="a" width="16" height="16"/></clipPath></defs><g class="b"><path class="c" d="M74.948,118.961H66.7l4.011-3.565a.47.47,0,1,0-.625-.7l-4.916,4.369a.469.469,0,0,0-.179.369h0c0,.007,0,.015,0,.022h0a.47.47,0,0,0,.157.328l4.937,4.388a.47.47,0,0,0,.625-.7L66.7,119.9h8.251a3.1,3.1,0,0,1,0,6.208H69.525a.47.47,0,1,0,0,.941h5.423a4.045,4.045,0,0,0,0-8.089Z" transform="translate(-63.991 -112.813)"/></g></svg>