<svg xmlns="http://www.w3.org/2000/svg" xmlns:xlink="http://www.w3.org/1999/xlink" width="16" height="16" viewBox="0 0 16 16"><defs><style>.a,.c{fill:#fff;}.a{stroke:#707070;}.b{clip-path:url(#a);}</style><clipPath id="a"><rect class="a" width="16" height="16" transform="translate(249 20)"/></clipPath></defs><g class="b" transform="translate(-249 -20)"><path class="c" d="M98.551,14.609a.7.7,0,1,1,0,1.391H86.029a.7.7,0,0,1,0-1.391ZM92.29,2.783a6.261,6.261,0,0,1,6.261,6.261v4.174a.7.7,0,0,1-.7.7H86.725a.7.7,0,0,1-.7-.7V9.043A6.261,6.261,0,0,1,92.29,2.783Zm0,1.391a4.87,4.87,0,0,0-4.87,4.87v3.478h9.739V9.043a4.87,4.87,0,0,0-4.7-4.867Zm.348,5.565a.348.348,0,0,1,.348.348v.7a.348.348,0,0,1-.348.348h-.7a.348.348,0,0,1-.348-.348v-.7a.348.348,0,0,1,.348-.348Zm0-4.174a.348.348,0,0,1,.348.348V8.7a.348.348,0,0,1-.348.348h-.7a.348.348,0,0,1-.348-.348V5.913a.348.348,0,0,1,.348-.348ZM87.506,1.455l.9,1.066a.348.348,0,0,1-.043.49l-.533.447a.348.348,0,0,1-.49-.042l-.9-1.066a.348.348,0,0,1,.043-.49l.533-.447a.348.348,0,0,1,.49.042Zm10.058-.042.533.447a.348.348,0,0,1,.043.49l-.895,1.066a.348.348,0,0,1-.49.042l-.533-.447a.348.348,0,0,1-.043-.49l.895-1.066A.348.348,0,0,1,97.563,1.412ZM92.638,0a.348.348,0,0,1,.348.348V1.739a.348.348,0,0,1-.348.348h-.7a.348.348,0,0,1-.348-.348V.348A.348.348,0,0,1,91.942,0h.7Z" transform="translate(164.71 20)"/></g></svg>