<svg xmlns="http://www.w3.org/2000/svg" xmlns:xlink="http://www.w3.org/1999/xlink" width="20" height="20" viewBox="0 0 20 20"><defs><style>.a,.c{fill:#359000;}.a{stroke:#707070;}.b{clip-path:url(#a);}</style><clipPath id="a"><rect class="a" width="20" height="20"/></clipPath></defs><g class="b"><g transform="translate(1.032 -0.637)"><circle class="c" cx="1.062" cy="1.062" r="1.062" transform="translate(7.9 11.433)"/><g transform="translate(0.996 4)"><path class="c" d="M16.767,7.186a3.331,3.331,0,0,0-.425-2.973A.655.655,0,0,0,15.918,4H2.007a.655.655,0,0,0-.425.212,3.505,3.505,0,0,0-.425,2.973Z" transform="translate(-0.996 -4)"/><path class="c" d="M3,14.124a6.9,6.9,0,1,0,13.8,0V12H3Zm11.15-1.062h1.062a.531.531,0,0,1,0,1.062H14.15a.531.531,0,1,1,0-1.062Zm-4.248,0a3.186,3.186,0,1,1-3.186,3.186A3.2,3.2,0,0,1,9.9,13.062Z" transform="translate(-1.936 -7.752)"/></g></g></g></svg>