<svg xmlns="http://www.w3.org/2000/svg" xmlns:xlink="http://www.w3.org/1999/xlink" width="16" height="16" viewBox="0 0 16 16"><defs><style>.a,.c{fill:#fff;}.a{stroke:#707070;}.b{clip-path:url(#a);}</style><clipPath id="a"><rect class="a" width="16" height="16"/></clipPath></defs><g class="b"><path class="c" d="M103.666,157.527a.419.419,0,0,0,.309.124H104a.437.437,0,0,0,.3-.124l2.172-2.177a.416.416,0,0,0,.119-.3.411.411,0,0,0-.124-.295.417.417,0,0,0-.577,0l-1.9,1.9-.873-.873a.416.416,0,0,0-.295-.124.411.411,0,0,0-.295.124.427.427,0,0,0-.126.295.411.411,0,0,0,.124.295Zm5.03-.806h6.062a.526.526,0,1,0,0-1.052H108.7a.519.519,0,0,0-.371.151.509.509,0,0,0-.161.371.53.53,0,0,0,.532.53Zm-2.8,2.161-1.9,1.9-.873-.873a.416.416,0,0,0-.295-.131.4.4,0,0,0-.295.124.427.427,0,0,0-.124.295.411.411,0,0,0,.124.295l1.141,1.141a.43.43,0,0,0,.322.124h.014a.432.432,0,0,0,.3-.124l2.17-2.164a.427.427,0,0,0,.124-.295.411.411,0,0,0-.124-.295.433.433,0,0,0-.585,0Zm2.8,2.09h6.062a.526.526,0,1,0,0-1.052H108.7a.519.519,0,0,0-.371.151.509.509,0,0,0-.161.371.53.53,0,0,0,.532.53Zm-2.805,2.033-1.9,1.9-.872-.873a.416.416,0,0,0-.295-.124.411.411,0,0,0-.295.124.427.427,0,0,0-.126.3.411.411,0,0,0,.124.295l1.141,1.141a.443.443,0,0,0,.309.124h.037a.4.4,0,0,0,.295-.124l2.169-2.172a.427.427,0,0,0,.124-.295.411.411,0,0,0-.124-.3.448.448,0,0,0-.583,0Zm9.326,1.424a.548.548,0,0,0-.461-.261H108.7a.519.519,0,0,0-.371.151.53.53,0,0,0,.379.9h6.054a.548.548,0,0,0,.461-.261.52.52,0,0,0,0-.53Z" transform="translate(-100.845 -152.268)"/></g></svg>