<svg xmlns="http://www.w3.org/2000/svg" xmlns:xlink="http://www.w3.org/1999/xlink" width="24" height="24" viewBox="0 0 24 24"><defs><style>.a,.d{fill:#333;}.a{stroke:#707070;}.b{clip-path:url(#a);}.c{fill:#004bad;}</style><clipPath id="a"><rect class="a" width="24" height="24"/></clipPath></defs><g class="b"><path class="c" d="M150.786,191.309a2.393,2.393,0,1,1,2.393-2.393A2.4,2.4,0,0,1,150.786,191.309Zm0-3.481a1.085,1.085,0,1,0,1.085,1.085A1.086,1.086,0,0,0,150.786,187.828Zm2.1-3.642a2.393,2.393,0,1,1,2.393-2.393A2.4,2.4,0,0,1,152.885,184.187Zm0-3.481a1.085,1.085,0,1,0,1.085,1.085A1.086,1.086,0,0,0,152.885,180.706ZM148.4,198.091a2.393,2.393,0,1,1,2.393-2.393A2.4,2.4,0,0,1,148.4,198.091Zm0-3.481a1.085,1.085,0,1,0,1.085,1.085A1.086,1.086,0,0,0,148.4,194.61Z" transform="translate(-138.778 -175.896)"/><path class="d" d="M160.037,196.513h-7.82a.818.818,0,0,1,0-1.635h7.82a.818.818,0,0,1,0,1.635Zm-15.45,0h-3.069a.818.818,0,1,1,0-1.635h3.069a.818.818,0,1,1,0,1.635Zm15.45-6.877h-5.373a.818.818,0,0,1,0-1.636h5.37a.818.818,0,0,1,0,1.636Zm-13.125,0h-5.394a.818.818,0,1,1,0-1.636h5.394a.818.818,0,1,1,0,1.636Zm13.125-6.877h-3.219a.818.818,0,1,1,0-1.635h3.216a.818.818,0,0,1,0,1.635Zm-11.091,0h-7.428a.818.818,0,1,1,0-1.635h7.428a.818.818,0,1,1,0,1.635Z" transform="translate(-138.778 -175.896)"/></g></svg>