<svg xmlns="http://www.w3.org/2000/svg" xmlns:xlink="http://www.w3.org/1999/xlink" width="24" height="24" viewBox="0 0 24 24"><defs><style>.a{fill:#333;stroke:#707070;}.b{clip-path:url(#a);}.c{fill:#1e56a0;}</style><clipPath id="a"><rect class="a" width="24" height="24"/></clipPath></defs><g class="b"><g transform="translate(-79.936 -68.215)"><path class="c" d="M90.315,88.108h-4.13A4.194,4.194,0,0,1,82,83.923V70.707A.707.707,0,0,1,82.707,70H95.29a4.194,4.194,0,0,1,4.148,4.185v4.9a.707.707,0,0,1-.211.5L90.8,87.906A.707.707,0,0,1,90.315,88.108ZM83.4,71.4V83.923a2.753,2.753,0,0,0,2.753,2.753h3.864l8.049-7.911V74.176a2.753,2.753,0,0,0-2.753-2.753ZM92.729,90.43a.514.514,0,0,1-.5-.606l.385-2.258a.514.514,0,0,1,.147-.275l6.168-6.168a1.45,1.45,0,0,1,2.01,0l.523.523a1.423,1.423,0,0,1,0,2.01L95.28,89.824a.514.514,0,0,1-.257.138l-2.194.459-.1.009Zm.872-2.524-.239,1.367,1.3-.275,6.057-6.057a.4.4,0,0,0,0-.551l-.523-.523a.4.4,0,0,0-.551,0L93.6,87.906Z" transform="translate(0 0)"/><path d="M194.608,265.41h7.756a.208.208,0,0,1,.208.208v1.014a.208.208,0,0,1-.208.208h-7.756a.208.208,0,0,1-.208-.208v-1.014A.208.208,0,0,1,194.608,265.41Zm0,3.064h7.756a.208.208,0,0,1,.208.208V269.7a.208.208,0,0,1-.208.208h-7.756a.208.208,0,0,1-.208-.208v-1.014A.208.208,0,0,1,194.608,268.474Z" transform="translate(-109.803 -190.894)"/><path class="c" d="M772.609,584.34a.513.513,0,0,1-.349-.137l-1.836-1.744a.514.514,0,1,1,.707-.744l1.836,1.744a.514.514,0,0,1-.349.918Z" transform="translate(-672.336 -499.729)"/></g></g></svg>