<svg xmlns="http://www.w3.org/2000/svg" xmlns:xlink="http://www.w3.org/1999/xlink" width="16" height="16" viewBox="0 0 16 16"><defs><style>.a,.c{fill:#333;}.a{stroke:#707070;}.b{clip-path:url(#a);}.c{stroke:#333;stroke-width:0.2px;}</style><clipPath id="a"><rect class="a" width="16" height="16"/></clipPath></defs><g class="b"><path class="c" d="M129.167,88H128.5a.5.5,0,0,1,0-1h11a.5.5,0,0,1,0,1h-9.333v8.833a.833.833,0,0,0,.833.833h6a.833.833,0,0,0,.833-.833V89.5a.5.5,0,1,1,1,0v7.333A1.833,1.833,0,0,1,137,98.666h-6a1.833,1.833,0,0,1-1.833-1.833Zm3.5-1.667a.5.5,0,0,1,0-1h2.667a.5.5,0,1,1,0,1Zm-.5,4.5a.5.5,0,0,1,1,0v4a.5.5,0,1,1-1,0Zm2.667,0a.5.5,0,0,1,1,0v4a.5.5,0,1,1-1,0Z" transform="translate(-126 -83.999)"/></g></svg>