<svg xmlns="http://www.w3.org/2000/svg" xmlns:xlink="http://www.w3.org/1999/xlink" width="16" height="16" viewBox="0 0 16 16"><defs><style>.a,.c{fill:#fff;}.a{stroke:#707070;}.b{clip-path:url(#a);}</style><clipPath id="a"><rect class="a" width="16" height="16" transform="translate(249 20)"/></clipPath></defs><g class="b" transform="translate(-249 -20)"><path class="c" d="M73.9,80.541a.523.523,0,0,1-.421.213H58.529a.523.523,0,0,1-.5-.69l2.039-6.03a.523.523,0,0,1,.5-.355h2.421l-.678-.907a4.975,4.975,0,0,1-.992-3.241,4.733,4.733,0,1,1,8.452,3.241l-.678.906H71.6a.523.523,0,0,1,.5.367l1.882,6.03A.523.523,0,0,1,73.9,80.541Zm-1.437-1.809H66.616v.976h6.156Zm-12.473-1.2-.737,2.178h3.684l.123-2.178ZM69.72,69.6a3.681,3.681,0,0,0-7.358,0,3.923,3.923,0,0,0,.79,2.547l2.889,3.862,2.893-3.867A3.828,3.828,0,0,0,69.72,69.6Zm2.16,7.249H69.126a.523.523,0,1,1,0-1.046h2.428l-.337-1.08H68.311L66.46,77.2a.523.523,0,0,1-.837,0l-1.851-2.474H60.944l-.6,1.76h3.27a.523.523,0,0,1,.522.552l-.151,2.672h1.581v-1.5a.523.523,0,0,1,.523-.523h6.048Zm-5.874-5.542a1.934,1.934,0,1,1,1.935-1.934A1.934,1.934,0,0,1,66.006,71.308Zm0-2.823a.879.879,0,0,0-.889.889.889.889,0,1,0,1.778,0,.879.879,0,0,0-.889-.889Z" transform="translate(190.993 -44.877)"/></g></svg>