<svg xmlns="http://www.w3.org/2000/svg" xmlns:xlink="http://www.w3.org/1999/xlink" width="16" height="16" viewBox="0 0 16 16"><defs><style>.a,.c{fill:#fff;}.a{stroke:#707070;}.b{clip-path:url(#a);}</style><clipPath id="a"><rect class="a" width="16" height="16" transform="translate(249 20)"/></clipPath></defs><g class="b" transform="translate(-249 -20)"><path class="c" d="M21.139,3.663a.9.9,0,0,0-.686-.255.574.574,0,0,0-.574.575.546.546,0,0,0,.2.409c.026.132.064.357.1.7v8.635a.508.508,0,0,1-.039.2L12.18,10.7l1.96-2.758a18.462,18.462,0,0,0,1.38,1.322l.377.317.355-.311.065-.057a18,18,0,0,0,1.52-1.554,9.493,9.493,0,0,0,1.215-1.716,3.313,3.313,0,0,0,.438-1.506,3.737,3.737,0,0,0-1.069-2.631,3.617,3.617,0,0,0-5.187,0,3.736,3.736,0,0,0-1.069,2.631,4.487,4.487,0,0,0,1.2,2.611l-2.28,3.21L7.828,8.946V5.062a.5.5,0,0,1,.484-.506H11a.574.574,0,1,0,0-1.148H8.311A1.646,1.646,0,0,0,6.678,5.062V13.72A1.644,1.644,0,0,0,8.31,15.374H19.7a1.616,1.616,0,0,0,1.259-.6l.112-.154a1.671,1.671,0,0,0,.261-.9V5.062c0-.127.009-.254.016-.375a1.283,1.283,0,0,0-.206-1.023Zm-7.824.776a2.514,2.514,0,1,1,5.027,0,4.262,4.262,0,0,1-1.152,2.2,15.885,15.885,0,0,1-1.311,1.407q-.6-.549-1.141-1.152c-1.238-1.386-1.424-2.137-1.424-2.46ZM8.27,14.223a.5.5,0,0,1-.442-.5V10.183l2.574,1.04Zm1.407,0,1.818-2.56,6.341,2.56Zm7.307-9.851A1.224,1.224,0,1,0,15.76,5.6,1.226,1.226,0,0,0,16.984,4.374Z" transform="translate(242.981 19.957)"/></g></svg>