<svg xmlns="http://www.w3.org/2000/svg" xmlns:xlink="http://www.w3.org/1999/xlink" width="16" height="16" viewBox="0 0 16 16"><defs><style>.a,.c{fill:#fff;}.a{stroke:#707070;}.b{clip-path:url(#a);}</style><clipPath id="a"><rect class="a" width="16" height="16" transform="translate(249 20)"/></clipPath></defs><g class="b" transform="translate(-249 -20)"><path class="c" d="M0,75.376H14.22v.948H0ZM14.22,64V74.428H0V64Zm-.948.948H.948V73.48H13.272ZM4.74,68.74H1.9V65.9H4.74Zm-.948-1.9H2.844v.948h.948Zm.948,5.688H1.9V69.688H4.74Zm-.948-1.9H2.844v.948h.948Zm4.74-1.9H5.688V65.9H8.532Zm-.948-1.9H6.636v.948h.948Zm.948,5.688H5.688V69.688H8.532Zm-.948-1.9H6.636v.948h.948Zm4.74-1.9H9.48V65.9h2.844Zm-.948-1.9h-.948v.948h.948Zm.948,5.688H9.48V69.688h2.844Zm-.948-1.9h-.948v.948h.948Z" transform="translate(249.89 -42.162)"/></g></svg>