<svg xmlns="http://www.w3.org/2000/svg" xmlns:xlink="http://www.w3.org/1999/xlink" width="61.318" height="54" viewBox="0 0 61.318 54"><defs><style>.a{fill:#008c96;}.b{fill:#fff;}.c{filter:url(#a);}</style><filter id="a" x="0" y="6.66" width="61.318" height="46.679" filterUnits="userSpaceOnUse"><feOffset dy="3" input="SourceAlpha"/><feGaussianBlur stdDeviation="3" result="b"/><feFlood flood-opacity="0.161"/><feComposite operator="in" in2="b"/><feComposite in="SourceGraphic"/></filter></defs><g transform="translate(3.659)"><rect class="a" width="54" height="54" rx="10"/><g class="c" transform="matrix(1, 0, 0, 1, -3.66, 0)"><path class="b" d="M26.932,180.243h21.44l-.96-1.52H28.293Zm26.638,3.279H48.511v-2.337H26.553v2.337H21.734a2.981,2.981,0,0,0-2.981,2.981v18.019h-1.38a1.411,1.411,0,0,0-1.38,1.44v1.44H59.31v-1.44a1.411,1.411,0,0,0-1.38-1.44H56.55V186.5a2.979,2.979,0,0,0-2.979-2.979h0ZM50.431,185.8h3v3h-3Zm0,5.071h3v3h-3Zm0,5.072h3v3h-3ZM47.072,185.8h3v3h-3Zm0,5.071h3v3h-3Zm0,5.072h3v3h-3ZM39.552,185.8h3v3h-3Zm0,5.071h3v3h-3Zm0,5.072h3v3h-3Zm-3.5-10.143h3v3h-3Zm0,5.071h3v3h-3Zm0,5.072h3v3h-3Zm-3.5-10.143h3v3h-3Zm0,5.071h3v3h-3Zm0,5.072h3v3h-3ZM25.292,185.8h3v3h-3Zm0,5.071h3v3h-3Zm0,5.072h3v3h-3ZM21.933,185.8h3v3h-3Zm0,5.071h3v3h-3Zm0,5.072h3v3h-3Z" transform="translate(-6.99 -166.06)"/></g></g></svg>