<svg xmlns="http://www.w3.org/2000/svg" xmlns:xlink="http://www.w3.org/1999/xlink" width="16" height="16" viewBox="0 0 16 16"><defs><style>.a,.c{fill:#fff;}.a{stroke:#707070;}.b{clip-path:url(#a);}</style><clipPath id="a"><rect class="a" width="16" height="16" transform="translate(249 20)"/></clipPath></defs><g class="b" transform="translate(-249 -20)"><path class="c" d="M80.129,162.8c0-.019,0-.039,0-.058a3.563,3.563,0,0,0-.105-.579.866.866,0,0,0-.816-.574h-.017a1.044,1.044,0,0,0-.96.7,3.986,3.986,0,0,0-.146.6,8.055,8.055,0,0,1-.558,1.9.982.982,0,0,0-.947-.052L73.684,166.1a1.835,1.835,0,0,0-.562.412,1.876,1.876,0,0,0-.579-.431l-2.893-1.372a.986.986,0,0,0-.947.052,8.055,8.055,0,0,1-.558-1.9,3.986,3.986,0,0,0-.146-.6,1.044,1.044,0,0,0-.96-.7h-.017a.867.867,0,0,0-.816.574,3.6,3.6,0,0,0-.105.579c0,.019,0,.039,0,.058s0,.78.046,1.653a7.687,7.687,0,0,0,.4,2.476,8.424,8.424,0,0,0,2.018,2.194,12.833,12.833,0,0,1,1.032.967,7.8,7.8,0,0,1,.629.982.5.5,0,1,0,.879-.488,8.835,8.835,0,0,0-.753-1.158,13.256,13.256,0,0,0-1.123-1.059,8.4,8.4,0,0,1-1.773-1.866,13.89,13.89,0,0,1-.354-3.667s0-.008,0-.013c.017.08.036.175.053.26a8.007,8.007,0,0,0,.837,2.506,6.375,6.375,0,0,0,1.885,1.886.506.506,0,1,0,.629-.791c-.109-.116-.357-.414-.6-.719L72.111,167a.868.868,0,0,1,.494.787v1.763a.493.493,0,0,0,.061.241.5.5,0,0,0,.955-.223V167.8a.87.87,0,0,1,.494-.787l2.205-1.048c-.244.3-.494.6-.6.719a.5.5,0,0,0-.156.2.5.5,0,0,0,.785.6,6.375,6.375,0,0,0,1.885-1.886,8.034,8.034,0,0,0,.837-2.506c.017-.085.036-.179.053-.26,0,0,0,.008,0,.013a13.957,13.957,0,0,1-.354,3.667A8.326,8.326,0,0,1,77,168.369a13.758,13.758,0,0,0-1.123,1.059,8.73,8.73,0,0,0-.753,1.158.5.5,0,0,0,.879.489,7.8,7.8,0,0,1,.629-.982,13.4,13.4,0,0,1,1.032-.967,8.421,8.421,0,0,0,2.018-2.194,7.687,7.687,0,0,0,.4-2.476c.049-.87.046-1.62.046-1.652ZM73.319,162.26Zm2.5-1.778a1.517,1.517,0,0,0-2.144,0l-.354.354-.393-.393a1.516,1.516,0,1,0-2.144,2.144l1.42,1.42a1.537,1.537,0,0,0,2.2.039l1.416-1.42A1.517,1.517,0,0,0,75.817,160.483Zm-.711,1.433-.434.434s0,0,0,0l-1.063.972a.509.509,0,0,1-.61.044l-.031-.028-1.013-1a0,0,0,0,1,0,0l-.459-.459a.509.509,0,1,1,.72-.72l.349.349.757.755.757-.755.31-.31a.511.511,0,0,1,.722.722Z" transform="translate(183.886 -137.466)"/></g></svg>