<svg xmlns="http://www.w3.org/2000/svg" xmlns:xlink="http://www.w3.org/1999/xlink" width="24" height="24" viewBox="0 0 24 24"><defs><style>.a,.d{fill:#333;}.a{stroke:#707070;}.b{clip-path:url(#a);}.c{fill:#d8dde3;}.e{fill:#004bad;}</style><clipPath id="a"><rect class="a" width="24" height="24"/></clipPath></defs><g class="b"><g transform="translate(-2.18 -2.179)"><path class="c" d="M25.035,28.358H3.323A3.327,3.327,0,0,1,0,25.035V3.323A3.327,3.327,0,0,1,3.323,0H25.035a3.327,3.327,0,0,1,3.323,3.323V25.035A3.327,3.327,0,0,1,25.035,28.358ZM3.323.111A3.216,3.216,0,0,0,.111,3.323V25.035a3.216,3.216,0,0,0,3.212,3.212H25.035a3.216,3.216,0,0,0,3.212-3.212V3.323A3.216,3.216,0,0,0,25.035.111Z"/><path class="d" d="M410.88,197.76a2.88,2.88,0,1,1,2.88-2.88A2.883,2.883,0,0,1,410.88,197.76Zm0-4.1a1.219,1.219,0,1,0,1.219,1.219A1.22,1.22,0,0,0,410.88,193.662Z" transform="translate(-396.701 -186.683)"/><path class="e" d="M424.492,656.985a2.492,2.492,0,1,1,2.492-2.492A2.5,2.5,0,0,1,424.492,656.985Zm0-3.323a.831.831,0,1,0,.831.831A.832.832,0,0,0,424.492,653.662Z" transform="translate(-410.313 -633.944)"/><path class="d" d="M194.492,656.985a2.492,2.492,0,1,1,2.492-2.492A2.5,2.5,0,0,1,194.492,656.985Zm0-3.323a.831.831,0,1,0,.831.831A.832.832,0,0,0,194.492,653.662Z" transform="translate(-186.683 -633.944)"/><path class="e" d="M654.492,656.985a2.492,2.492,0,1,1,2.492-2.492A2.5,2.5,0,0,1,654.492,656.985Zm0-3.323a.831.831,0,1,0,.831.831A.832.832,0,0,0,654.492,653.662Z" transform="translate(-633.944 -633.944)"/><path class="d" d="M483,423h1.662v5.594H483Z" transform="translate(-469.624 -411.286)"/><path class="d" d="M266.4,470.376h-1.662v-1.329a1.386,1.386,0,0,0-1.385-1.385h-8.308a1.386,1.386,0,0,0-1.385,1.385v1.329H252v-1.329A3.05,3.05,0,0,1,255.046,466h8.308a3.05,3.05,0,0,1,3.046,3.046Z" transform="translate(-245.021 -453.095)"/></g></g></svg>