<svg xmlns="http://www.w3.org/2000/svg" xmlns:xlink="http://www.w3.org/1999/xlink" width="16" height="16" viewBox="0 0 16 16"><defs><style>.a,.c{fill:#fff;}.a{stroke:#707070;}.b{clip-path:url(#a);}</style><clipPath id="a"><rect class="a" width="16" height="16" transform="translate(249 20)"/></clipPath></defs><g class="b" transform="translate(-249 -20)"><path class="c" d="M23245.584,1429.073a6.854,6.854,0,0,1-3.437-.928l.531-.91a5.79,5.79,0,0,0,2.9.78,5.7,5.7,0,0,0,2.836-.757l.531.916A6.792,6.792,0,0,1,23245.584,1429.073Zm-.006-2.293a4.511,4.511,0,0,1-2.275-.613l.531-.91a3.456,3.456,0,0,0,1.73.467,3.413,3.413,0,0,0,1.707-.461l.529.922A4.456,4.456,0,0,1,23245.578,1426.779Zm-.035-1.955a2.508,2.508,0,1,1,.572-.07A2.384,2.384,0,0,1,23245.543,1424.824Zm-.012-4.47a2,2,0,1,0,2,2A2,2,0,0,0,23245.531,1420.354Zm6.811,1.885h-1.062a5.778,5.778,0,0,0-2.871-4.966l.525-.916a6.915,6.915,0,0,1,2.465,2.444,6.723,6.723,0,0,1,.943,3.437Zm-2.3,0h-1.062a3.446,3.446,0,0,0-1.721-2.976l.529-.916a4.525,4.525,0,0,1,2.254,3.891Zm-7.908,0h-1.061a4.543,4.543,0,0,1,2.258-3.9l.531.922a3.47,3.47,0,0,0-1.729,2.975Zm-2.3,0h-1.057a6.747,6.747,0,0,1,.943-3.442,6.875,6.875,0,0,1,2.465-2.44l.525.916a5.778,5.778,0,0,0-2.877,4.965Z" transform="translate(-22988.559 -1394.715)"/></g></svg>