<svg xmlns="http://www.w3.org/2000/svg" xmlns:xlink="http://www.w3.org/1999/xlink" width="24" height="24" viewBox="0 0 24 24"><defs><style>.a,.c{fill:#011f53;}.a{stroke:#707070;}.b{clip-path:url(#a);}</style><clipPath id="a"><rect class="a" width="24" height="24" transform="translate(1024 501)"/></clipPath></defs><g class="b" transform="translate(-1024 -501)"><g transform="translate(970.308 457.32)"><path class="c" d="M55.295,55.657A10.4,10.4,0,1,1,65.421,66.079,10.473,10.473,0,0,1,55.295,55.657Zm.687.082a9.7,9.7,0,0,0,9.686,9.739,9.756,9.756,0,1,0-9.687-9.739Z" transform="translate(0 0)"/><path class="c" d="M125.637,105.464H115.8l1.687-2.954c.27-.473.522-.96.821-1.409a.623.623,0,0,1,.47-.262,8.863,8.863,0,0,1,6.84,4.483.566.566,0,0,1,.021.142Zm-15.882,9h9.852c-.625,1.1-1.217,2.133-1.81,3.17-.151.264-.307.524-.458.789-.5.871-.254.758-1.2.6a8.822,8.822,0,0,1-6.329-4.387.921.921,0,0,1-.055-.168Zm5.026-.58h-1.5c-1.171,0-2.342.011-3.511-.011a.621.621,0,0,1-.485-.254,8.887,8.887,0,0,1,.449-8.17c.021-.038.066-.063.147-.137Zm3.059-13.041-4.981,8.579c-.469-.809-.9-1.55-1.328-2.294-.407-.7-.824-1.408-1.208-2.127a.565.565,0,0,1,.014-.5,8.907,8.907,0,0,1,7.292-3.7,1.338,1.338,0,0,1,.211.043Zm7.7,13.8-4.9-8.575c.218-.015.353-.034.489-.034,1.474,0,2.948.009,4.418-.011a.6.6,0,0,1,.664.456,9.038,9.038,0,0,1-.471,7.876A3.3,3.3,0,0,1,125.544,114.644Zm-2.991-4.149c.9,1.559,1.745,3.025,2.573,4.506a.516.516,0,0,1-.068.455,8.926,8.926,0,0,1-6.174,3.6c-.349.043-.7.055-1.057.076a1.523,1.523,0,0,1-.26-.043Z" transform="translate(-52.021 -54.281)"/></g></g></svg>