<svg xmlns="http://www.w3.org/2000/svg" xmlns:xlink="http://www.w3.org/1999/xlink" width="24" height="24" viewBox="0 0 24 24"><defs><style>.a,.c{fill:#011f53;}.a{stroke:#707070;}.b{clip-path:url(#a);}.d,.f{fill:none;}.d{stroke:#ccc;stroke-width:0.6px;}.e{stroke:none;}</style><clipPath id="a"><rect class="a" width="24" height="24" transform="translate(1024 501)"/></clipPath></defs><g class="b" transform="translate(-1024 -501)"><path class="c" d="M39.947,28.067,38.569,27.5a27.062,27.062,0,0,0-2.992-.976l.368.324a13.339,13.339,0,0,1,1.933,2.214A12.993,12.993,0,0,1,39.2,32.017a27.584,27.584,0,0,1,.712,3.314l.092.686a8.833,8.833,0,0,0-.053-7.949ZM24.754,36.991l.636.26a27.49,27.49,0,0,0,3.223,1.04,13.706,13.706,0,0,0,2.861.343c.126,0,.244,0,.351-.009a13.317,13.317,0,0,0,2.882-.57l.464-.158a26.979,26.979,0,0,1-2.341,2.107l-1.178.913a8.823,8.823,0,0,1-6.9-3.928Zm13.9-4.662a27.319,27.319,0,0,1,.651,3.084l.2,1.474a8.826,8.826,0,0,1-6.85,4.025l.548-.425a27.3,27.3,0,0,0,2.511-2.274,13.019,13.019,0,0,0,1.895-2.618,13.383,13.383,0,0,0,.948-2.784ZM24.189,28.175l.092.686a27.885,27.885,0,0,0,.713,3.314,12.992,12.992,0,0,0,1.318,2.952,13.349,13.349,0,0,0,1.934,2.214l.369.324a27.135,27.135,0,0,1-2.993-.976l-1.378-.564a8.841,8.841,0,0,1-.053-7.949Zm7.347-4.9-.548.425a27.3,27.3,0,0,0-2.511,2.274A13.019,13.019,0,0,0,26.582,28.6a13.383,13.383,0,0,0-.948,2.784l-.1.481a27.143,27.143,0,0,1-.652-3.084l-.2-1.474a8.826,8.826,0,0,1,6.85-4.025Zm1-.007a8.822,8.822,0,0,1,6.9,3.928l-.637-.26a27.6,27.6,0,0,0-3.223-1.04,12.952,12.952,0,0,0-3.212-.334,13.318,13.318,0,0,0-2.882.57l-.464.158a27.1,27.1,0,0,1,2.341-2.107Z" transform="translate(1003.906 480.904)"/><g class="d" transform="translate(1026 503)"><circle class="e" cx="10" cy="10" r="10"/><circle class="f" cx="10" cy="10" r="9.7"/></g></g></svg>