<svg xmlns="http://www.w3.org/2000/svg" width="15.823" height="14.7" viewBox="0 0 15.823 14.7"><defs><style>.a{fill:#0092e0;}.b{fill:#fff;}</style></defs><g transform="translate(-463.177 -582.3)"><path class="a" d="M60,11.3V22a4,4,0,0,1-4,4H44.177A23.283,23.283,0,0,1,60,11.3Z" transform="translate(419 571)"/><path class="b" d="M136.959,9.188a53.2,53.2,0,0,1,3.052-4.967A28.934,28.934,0,0,1,142.843.886L142.515,0a24.889,24.889,0,0,0-3.373,2.8,23.924,23.924,0,0,0-2.71,3.426l-2.314-2.107-.946.979,3.787,4.086Zm0,0" transform="translate(334.917 586.407)"/></g></svg>