<svg xmlns="http://www.w3.org/2000/svg" xmlns:xlink="http://www.w3.org/1999/xlink" width="24" height="24" viewBox="0 0 24 24"><defs><style>.a,.c{fill:#828282;}.a{stroke:#707070;}.b{clip-path:url(#a);}</style><clipPath id="a"><rect class="a" width="24" height="24" transform="translate(1024 501)"/></clipPath></defs><g class="b" transform="translate(-1024 -501)"><path class="c" d="M89.623,94.907H75.093V80.377h14.53v14.53ZM76.414,93.586H88.3V81.7H76.414ZM80.377,80.6H81.7v.66H80.377Zm0-2.787H81.7v1.4H80.377Zm0-2.721H81.7v1.321H80.377Zm11.888,1.321H90.944V75.093h1.321v1.321Zm-2.642,0H88.3V75.093h1.321v1.321Zm-2.642,0H85.66V75.093h1.321v1.321Zm-2.642,0H83.019V75.093H84.34v1.321Zm9.246-1.321h1.321v1.321H93.586Zm1.321,11.888H93.586V85.66h1.321Zm0-2.642H93.586V83.019h1.321Zm0-2.642H93.586V80.377h1.321V81.7Zm0-2.642H93.586V77.735h1.321v1.321ZM93.586,88.3h1.321v1.321H93.586Zm-2.787,0h1.4v1.321H90.8Zm-2.061,0h.66v1.321h-.66Z" transform="translate(951 428)"/></g></svg>