<svg xmlns="http://www.w3.org/2000/svg" xmlns:xlink="http://www.w3.org/1999/xlink" width="24" height="24" viewBox="0 0 24 24"><defs><style>.a,.c{fill:#828282;}.a{stroke:#707070;}.b{clip-path:url(#a);}</style><clipPath id="a"><rect class="a" width="24" height="24" transform="translate(1024 501)"/></clipPath></defs><g class="b" transform="translate(-1024 -501)"><path class="c" d="M87.927,93.06H89.21v1.283H87.927Zm-1.283,1.283H85.36V93.06h1.283Zm-2.567,0H82.793V93.06h1.283v1.283Zm-2.567,0H80.227V93.06H81.51v1.283Zm-2.567,0H77.66V93.06h1.283v1.283Zm-3.85-1.283h1.283v1.283H75.093Zm1.283-1.283H75.093V90.493h1.283v1.283Zm0-2.567H75.093V87.927h1.283V89.21Zm0-2.567H75.093V85.36h1.283v1.283Zm0-2.567H75.093V82.793h1.283v1.283Zm-1.283-3.85h1.283V81.51H75.093Zm11.55,1.283H85.36V80.227h1.283V81.51Zm-2.567,0H82.793V80.227h1.283V81.51Zm-2.567,0H80.227V80.227H81.51V81.51Zm-2.567,0H77.66V80.227h1.283V81.51Zm8.983-1.283H89.21V81.51H87.927Zm1.283,11.55H87.927V90.493H89.21Zm0-2.567H87.927V87.927H89.21Zm0-2.567H87.927V85.36H89.21Zm0-2.567H87.927V82.793H89.21v1.283Zm5.133,5.133H88.35V87.927h4.71V76.377H81.51v4.71H80.227V75.093H94.343Z" transform="translate(951.282 428.282)"/></g></svg>