<svg xmlns="http://www.w3.org/2000/svg" xmlns:xlink="http://www.w3.org/1999/xlink" width="24" height="24" viewBox="0 0 24 24"><defs><style>.a,.c{fill:#333;}.a{stroke:#707070;}.b{clip-path:url(#a);}.d{fill:#004bad;}</style><clipPath id="a"><rect class="a" width="24" height="24"/></clipPath></defs><g class="b"><g transform="translate(-95.166 -61.918)"><path class="c" d="M238.664,270.828a.664.664,0,1,1,0-1.328h10.8a.664.664,0,0,1,0,1.328Zm0,4.7a.664.664,0,1,1,0-1.328h8.191a.664.664,0,0,1,0,1.328Zm0,4.7a.664.664,0,1,1,0-1.328h5.313a.664.664,0,1,1,0,1.328Z" transform="translate(-136.901 -200.95)"/><path class="d" d="M575.949,472.682l-1.438-.83-2.541,4.4a.664.664,0,0,0-.076.462l.2.988.955-.323a.664.664,0,0,0,.362-.3Zm.664-1.15.343-.594a.664.664,0,0,0-.243-.907l-.288-.166a.664.664,0,0,0-.907.243l-.343.594Zm.477-2.818.288.166a1.993,1.993,0,0,1,.729,2.722l-3.548,6.145a1.993,1.993,0,0,1-1.087.891l-1.672.565a.664.664,0,0,1-.864-.5l-.345-1.73a1.993,1.993,0,0,1,.228-1.386l3.548-6.146A1.993,1.993,0,0,1,577.09,468.714Z" transform="translate(-462.091 -395.492)"/><path class="c" d="M106.833,82.508a.664.664,0,1,1,0,1.328H99.993A1.992,1.992,0,0,1,98,81.844V65.993A1.993,1.993,0,0,1,99.993,64h14.346a1.992,1.992,0,0,1,1.993,1.993v5.285a.664.664,0,0,1-1.328,0V65.993a.664.664,0,0,0-.664-.664H99.993a.664.664,0,0,0-.664.664V81.844a.664.664,0,0,0,.664.664Z"/></g></g></svg>