<svg xmlns="http://www.w3.org/2000/svg" xmlns:xlink="http://www.w3.org/1999/xlink" width="24" height="24" viewBox="0 0 24 24"><defs><style>.a,.c{fill:#0270ff;}.a{stroke:#707070;}.b{clip-path:url(#a);}</style><clipPath id="a"><rect class="a" width="24" height="24"/></clipPath></defs><g class="b"><path class="c" d="M18.148,2.9h-3.63V1.452H19.6a.726.726,0,0,1,.726.726V7.259H18.874V3.63A.726.726,0,0,0,18.148,2.9Zm.726,11.615h1.452V19.6a.726.726,0,0,1-.726.726H14.518V18.874h4.355ZM2.9,18.874H7.259v1.452H2.178a.726.726,0,0,1-.726-.726V14.518H2.9ZM2.9,2.9V7.3H1.452V2.178a.726.726,0,0,1,.726-.726H7.259V2.9ZM0,10.163H5.807v1.452H0Zm15.97,0h5.807v1.452H15.97ZM10.163,0h1.452V5.807H10.163Zm0,15.97h1.452v5.807H10.163Zm.726-2.9a2.178,2.178,0,1,1,2.178-2.178A2.178,2.178,0,0,1,10.889,13.066Z" transform="translate(1.111 1.111)"/></g></svg>