<svg xmlns="http://www.w3.org/2000/svg" width="15.381" height="61" viewBox="0 0 15.381 61"><defs><style>.a{fill:none;stroke:#1e56a0;stroke-linecap:round;stroke-width:2px;stroke-dasharray:6;}.b{fill:#1e56a0;}</style></defs><g transform="translate(-281 -321)"><line class="a" y2="33" transform="translate(288.5 322)"/><path class="b" d="M340.473,219.083l-6.508,6.343a1.01,1.01,0,0,1-.446.321.174.174,0,0,1-.029.005.939.939,0,0,1-.338.067c-.016,0-.034.013-.05.013-.032,0-.058-.021-.09-.021a.842.842,0,0,1-.206-.044,1.177,1.177,0,0,1-.23-.09,1.014,1.014,0,0,1-.129-.085.683.683,0,0,1-.119-.08l-6.6-6.43a1.033,1.033,0,0,1,0-1.5,1.111,1.111,0,0,1,1.541,0l4.749,4.625V211.9a1.1,1.1,0,0,1,2.2,0v10.281l4.717-4.592a1.108,1.108,0,0,1,1.538,0A1.042,1.042,0,0,1,340.473,219.083Zm-7.363-11.112a1.071,1.071,0,1,1,1.1-1.072A1.087,1.087,0,0,1,333.11,207.972Zm0-5a1.071,1.071,0,1,1,1.1-1.072A1.086,1.086,0,0,1,333.11,202.974Z" transform="translate(-44.408 156.168)"/></g></svg>