<svg xmlns="http://www.w3.org/2000/svg" xmlns:xlink="http://www.w3.org/1999/xlink" width="16" height="16" viewBox="0 0 16 16"><defs><style>.a{fill:#fff;stroke:#707070;}.b{clip-path:url(#a);}.c{fill:#1e56a0;}</style><clipPath id="a"><rect class="a" width="16" height="16" transform="translate(1341 152)"/></clipPath></defs><g class="b" transform="translate(-1341 -152)"><g transform="translate(1251.083 150.528)"><path class="c" d="M341.406,251.806m2.718,0a2.718,2.718,0,1,1-2.718-2.718A2.718,2.718,0,0,1,344.124,251.806Z" transform="translate(-243.647 -243.669)"/><path class="c" d="M93.091,3.469a6.6,6.6,0,1,1,9.335,9.335l-4.668,4.668L93.091,12.8a6.594,6.594,0,0,1,0-9.335Zm1.569,7.766a4.379,4.379,0,1,0-.974-1.478A4.382,4.382,0,0,0,94.66,11.236Z" transform="translate(0)"/><path class="c" d="M341.406,251.806m2.718,0a2.718,2.718,0,1,1-2.718-2.718A2.718,2.718,0,0,1,344.124,251.806Z" transform="translate(-243.647 -243.669)"/><path class="c" d="M341.406,251.806m2.718,0a2.718,2.718,0,1,1-2.718-2.718A2.718,2.718,0,0,1,344.124,251.806Z" transform="translate(-243.647 -243.669)"/></g></g></svg>