<svg xmlns="http://www.w3.org/2000/svg" xmlns:xlink="http://www.w3.org/1999/xlink" width="28" height="28" viewBox="0 0 28 28"><defs><style>.a,.c{fill:#fff;}.b{clip-path:url(#a);}.c{stroke:rgba(0,0,0,0);stroke-miterlimit:10;}</style><clipPath id="a"><rect class="a" width="28" height="28"/></clipPath></defs><g class="b"><g transform="translate(2.489 2.147)"><path class="c" d="M17.234,18.813H0V5.7L8.614,0l8.619,5.7V18.813ZM7.715,8.1a4.066,4.066,0,0,0,.117,8.118c.052,0,.112.01.169.01a4.078,4.078,0,0,0,2.991-1.313,4.03,4.03,0,0,0,1.075-2.643.1.1,0,0,0-.029-.077.109.109,0,0,0-.08-.035H10.621a.111.111,0,0,0-.111.106,2.632,2.632,0,0,1-.053.429A2.521,2.521,0,0,1,8,14.676c-.051,0-.1,0-.147-.008H7.832a2.512,2.512,0,0,1-.1-5,.109.109,0,0,0,.1-.106V8.216a.113.113,0,0,0-.11-.112ZM12.4,7.035A4.061,4.061,0,0,0,8.571,9.713,4.105,4.105,0,0,0,8.328,11.1a4.026,4.026,0,0,0,.115.982.117.117,0,0,0,.109.083h1.4a.111.111,0,0,0,.091-.048.11.11,0,0,0,.012-.1,2.459,2.459,0,0,1-.171-.913,2.355,2.355,0,0,1,.059-.54A2.523,2.523,0,0,1,12.4,8.584a2.639,2.639,0,0,1,.753.117.118.118,0,0,0,.034.006.108.108,0,0,0,.107-.107V7.22a.117.117,0,0,0-.088-.109A4.192,4.192,0,0,0,12.4,7.035Zm-4.2.461a1.02,1.02,0,0,1,.126.01h.132a2.564,2.564,0,0,0,.826-.136,2.517,2.517,0,0,0-2.44-3.121,2.593,2.593,0,0,0-.826.141.509.509,0,0,0-.017.081l0,.012a.493.493,0,0,0-.017.081l0,.012a.346.346,0,0,0-.006.037c0,.017,0,.033-.006.046l0,.012L5.94,4.8a.368.368,0,0,1,0,.039v.017a.074.074,0,0,0,0,.017v.243l0,.043c0,.022,0,.041,0,.059a.269.269,0,0,0,0,.033c0,.012,0,.024,0,.035a.157.157,0,0,1,0,.025c0,.007,0,.014,0,.024l0,.033c0,.016,0,.03.006.045s0,.03.007.043a.119.119,0,0,1,0,.021l0,.023a.282.282,0,0,1,.008.03l0,.007A.317.317,0,0,1,6,5.576a.015.015,0,0,1,0,.007s0,0,0,.007V5.6a.116.116,0,0,0,.01.036c.008.036.019.074.031.112l0,.012.011.037.012.037a.117.117,0,0,1,.016.033.108.108,0,0,0,.008.019l0,.011a.3.3,0,0,0,.033.072.786.786,0,0,0,.048.112c.007.017.013.031.019.043l.01.021a.216.216,0,0,0,.022.041.1.1,0,0,1,.008.016c.039.066.076.127.116.186a.986.986,0,0,0,.072.1l.011.014.029.039a1.8,1.8,0,0,0,.139.162.417.417,0,0,0,.045.047l.007.007a.112.112,0,0,1,.017.017,1.984,1.984,0,0,0,.234.2c.025.019.05.039.074.059l.007,0L7,7.05c.024.017.039.03.06.043a2.6,2.6,0,0,0,.374.2l.045.018.012,0a.317.317,0,0,1,.036.017.626.626,0,0,0,.1.034c.04.014.069.025.1.034l.008,0a.627.627,0,0,0,.094.022h0l0,.006a.428.428,0,0,0,.046.011l.022,0c.012,0,.024,0,.034.008l.03,0,.028,0h.011l.048.01.023,0a.158.158,0,0,1,.03,0l.019,0h.016l.048.006Z" transform="translate(2.898 4.892)"/><path class="a" d="M976.357,40.818a1.134,1.134,0,0,1-.628-.189l-9.743-6.449-9.742,6.449a1.139,1.139,0,1,1-1.257-1.9l10.371-6.865a1.138,1.138,0,0,1,1.257,0l10.371,6.865a1.139,1.139,0,0,1-.63,2.088Z" transform="translate(-954.477 -31.675)"/></g></g></svg>