<svg xmlns="http://www.w3.org/2000/svg" xmlns:xlink="http://www.w3.org/1999/xlink" width="16" height="16" viewBox="0 0 16 16"><defs><style>.a,.c{fill:#fff;}.a{stroke:#707070;}.b{clip-path:url(#a);}</style><clipPath id="a"><rect class="a" width="16" height="16" transform="translate(249 20)"/></clipPath></defs><g class="b" transform="translate(-249 -20)"><g transform="translate(184.8 -162.181)"><path class="c" d="M79.421,186.344h-.054l-1.774.309v-.763A2.393,2.393,0,0,0,75.2,183.5H66.591a2.393,2.393,0,0,0-2.391,2.391v6.137a2.393,2.393,0,0,0,2.391,2.391h.247l.527-.684a.626.626,0,0,1,1.043.684h5.347a.626.626,0,0,1,1.043-.684l.525.683a2.393,2.393,0,0,0,2.267-2.387v-.683l1.774.309h.054a.839.839,0,0,0,.781-.918v-3.477A.836.836,0,0,0,79.421,186.344Zm-3.078,5.683a1.141,1.141,0,0,1-1.14,1.14H66.591a1.141,1.141,0,0,1-1.14-1.14v-6.137a1.141,1.141,0,0,1,1.14-1.14H75.2a1.141,1.141,0,0,1,1.14,1.14Zm2.609-1.717-1.319-.229v-2.165l1.319-.229Z"/><path class="c" d="M331.511,342.678l-3.314-2.012a.656.656,0,0,0-1,.561v4.027a.657.657,0,0,0,.334.572.66.66,0,0,0,.663-.011l3.314-2.014a.661.661,0,0,0,.316-.561A.669.669,0,0,0,331.511,342.678Zm-3.061,1.522v-1.917l1.576.958Z" transform="translate(-258.301 -154.264)"/><path class="c" d="M145.38,742.77a.626.626,0,0,0-.877.114l-.527.684L142.869,745a.626.626,0,1,0,.992.763l1.633-2.119a.538.538,0,0,0,.052-.078A.629.629,0,0,0,145.38,742.77Zm5.678,0a.629.629,0,0,0-.166.8.539.539,0,0,0,.052.078l1.633,2.121a.626.626,0,1,0,.992-.763l-1.108-1.438-.525-.682A.626.626,0,0,0,151.058,742.77Z" transform="translate(-77.136 -549.15)"/></g></g></svg>