<svg xmlns="http://www.w3.org/2000/svg" xmlns:xlink="http://www.w3.org/1999/xlink" width="16" height="16" viewBox="0 0 16 16"><defs><style>.a,.c{fill:#fff;}.a{stroke:#707070;}.b{clip-path:url(#a);}</style><clipPath id="a"><rect class="a" width="16" height="16" transform="translate(1610 22)"/></clipPath></defs><g class="b" transform="translate(-1610 -22)"><g transform="translate(1580.561 -15.617)"><path class="c" d="M34.582,44.885H31.4A1.983,1.983,0,0,1,29.44,42.9V39.721a1.983,1.983,0,0,1,1.983-1.961H34.6a1.993,1.993,0,0,1,1.972,1.983v3.181A1.993,1.993,0,0,1,34.582,44.885Zm-3.181-5.8a.657.657,0,0,0-.657.657v3.181a.657.657,0,0,0,.657.657h3.181a.668.668,0,0,0,.668-.657V39.743a.668.668,0,0,0-.668-.657Zm3.181,14.388H31.4A1.983,1.983,0,0,1,29.44,51.49V48.309a1.983,1.983,0,0,1,1.983-1.961H34.6A1.993,1.993,0,0,1,36.6,48.331v3.181a1.993,1.993,0,0,1-2.014,1.961Zm-3.181-5.8a.657.657,0,0,0-.657.657v3.181a.657.657,0,0,0,.657.657h3.181a.668.668,0,0,0,.668-.657V48.331a.668.668,0,0,0-.668-.657Zm12.034-2.788H40.255A1.993,1.993,0,0,1,38.282,42.9V39.721a1.993,1.993,0,0,1,1.993-1.961h3.181a1.983,1.983,0,0,1,1.983,1.983v3.181A1.983,1.983,0,0,1,43.435,44.885Zm-3.181-5.8a.657.657,0,0,0-.657.657v3.181a.657.657,0,0,0,.657.657h3.181a.657.657,0,0,0,.657-.657V39.743a.657.657,0,0,0-.657-.657ZM44.93,48.1H39.173a.5.5,0,1,1,0-1H44.93a.5.5,0,0,1,0,1Zm0,2.12H39.173a.5.5,0,1,1,0-1H44.93a.5.5,0,0,1,0,1Zm0,2.11H39.173a.5.5,0,1,1,0-1H44.93a.5.5,0,0,1,0,1Z" transform="translate(0 0)"/><path class="c" d="M661.288,572.937a.5.5,0,0,1-.5-.5v-1.06a.5.5,0,0,1,1,0v1.06A.5.5,0,0,1,661.288,572.937Zm-3.509,2.121a.5.5,0,0,1-.5-.5V573.5a.5.5,0,0,1,1,0v1.06A.5.5,0,0,1,657.778,575.057Zm3.509,2.11a.5.5,0,0,1-.5-.5v-1.06a.5.5,0,1,1,1,0v1.06A.5.5,0,0,1,661.288,577.167Z" transform="translate(-617.439 -524.288)"/></g></g></svg>