<svg xmlns="http://www.w3.org/2000/svg" xmlns:xlink="http://www.w3.org/1999/xlink" width="18" height="18" viewBox="0 0 18 18"><defs><style>.a,.c{fill:#d7dee3;}.a{stroke:#707070;}.b{clip-path:url(#a);}</style><clipPath id="a"><rect class="a" width="18" height="18" transform="translate(0 0)"/></clipPath></defs><g class="b"><path class="c" d="M157.971,65h-7.85V62.512a3.017,3.017,0,0,1,3.013-3.013h.143a3.017,3.017,0,0,1,3.013,3.013.7.7,0,0,0,1.4,0,4.41,4.41,0,0,0-4.412-4.412h-.143a4.41,4.41,0,0,0-4.412,4.412V65h-.259a1.664,1.664,0,0,0-1.664,1.664v5.42a1.664,1.664,0,0,0,1.664,1.664h9.507a1.664,1.664,0,0,0,1.664-1.664V66.663A1.664,1.664,0,0,0,157.971,65Zm-4.143,4.562V71.1a.515.515,0,0,1-.516.516h-.192a.515.515,0,0,1-.516-.516V69.544a1.106,1.106,0,1,1,1.224.017Z" transform="translate(-144.114 -56.888)"/></g></svg>