<svg xmlns="http://www.w3.org/2000/svg" xmlns:xlink="http://www.w3.org/1999/xlink" width="16" height="16" viewBox="0 0 16 16"><defs><style>.a,.c{fill:#333;}.a{stroke:#707070;}.b{clip-path:url(#a);}.c{stroke:#333;stroke-width:0.2px;}</style><clipPath id="a"><rect class="a" width="16" height="16"/></clipPath></defs><g class="b"><g transform="translate(-62.325 -71.571)"><path class="c" d="M64,288h9.561v.956H64Zm0,2.868h9.561v.956H64Zm0,2.868h9.561v.956H64Z" transform="translate(-0.134 -211.776)"/><path class="c" d="M674.82,84.013h-1.115V75.4h1.115a.329.329,0,0,0,.233-.562l-1.593-1.591a.328.328,0,0,0-.465,0L671.4,74.839a.329.329,0,0,0,.233.562h1.114v8.613h-1.114a.33.33,0,0,0-.233.562l1.593,1.593a.328.328,0,0,0,.465,0l1.593-1.593A.329.329,0,0,0,674.82,84.013Z" transform="translate(-598.365 -0.136)"/></g></g></svg>