<svg xmlns="http://www.w3.org/2000/svg" xmlns:xlink="http://www.w3.org/1999/xlink" width="20" height="20" viewBox="0 0 20 20"><defs><style>.a,.c,.d{fill:#0270ff;}.a{stroke:#707070;}.b{clip-path:url(#a);}.c{opacity:0.42;}</style><clipPath id="a"><rect class="a" width="20" height="20"/></clipPath></defs><g class="b"><g transform="translate(1.932 3.084)"><path class="c" d="M508.484,90.34h5.447a.813.813,0,0,1,.807.815V92.17a.813.813,0,0,1-.807.813h-5.448a.812.812,0,0,1-.807-.813V91.153a.813.813,0,0,1,.807-.814Z" transform="translate(-500.819 -89.119)"/><path class="d" d="M14.524,13.833H1.614A1.625,1.625,0,0,1,0,12.2V1.628A1.625,1.625,0,0,1,1.614,0H6.253c1.11.305.888.875,1.614,1.628l.5.813h6.152a1.625,1.625,0,0,1,1.614,1.628V12.2a1.625,1.625,0,0,1-1.614,1.628Z"/><path class="d" d="M194.32,512h4.452a.561.561,0,0,1,0,1.122H194.32a.561.561,0,0,1,0-1.122Z" transform="translate(-191.146 -505.084)"/></g></g></svg>