<svg xmlns="http://www.w3.org/2000/svg" xmlns:xlink="http://www.w3.org/1999/xlink" width="16" height="16" viewBox="0 0 16 16"><defs><style>.a{fill:#fff;stroke:#707070;}.b{clip-path:url(#a);}.c{fill:#242b3a;}</style><clipPath id="a"><rect class="a" width="16" height="16" transform="translate(1740.023 96.023)"/></clipPath></defs><g class="b" transform="translate(-1740.023 -96.023)"><g transform="translate(1740.558 98.223)"><path class="c" d="M10.614,10.835a1.206,1.206,0,0,0-1.108.769,4.525,4.525,0,0,1-1.168-.488A1.16,1.16,0,0,0,8.1,9.8a1.179,1.179,0,0,0-1.317-.236A4.076,4.076,0,0,1,6.3,8.4a1.187,1.187,0,0,0,.769-1.109A1.207,1.207,0,0,0,6.3,6.178a4.051,4.051,0,0,1,.486-1.167A1.162,1.162,0,0,0,8.1,4.774a1.179,1.179,0,0,0,.236-1.315,4.09,4.09,0,0,1,1.168-.488,1.184,1.184,0,0,0,1.108.769,1.208,1.208,0,0,0,1.109-.769,4.516,4.516,0,0,1,1.167.488,1.16,1.16,0,0,0,.238,1.315,1.181,1.181,0,0,0,1.316.238,4.055,4.055,0,0,1,.488,1.167,1.186,1.186,0,0,0-.77,1.108,1.206,1.206,0,0,0,.77,1.109,4.08,4.08,0,0,1-.488,1.168,1.157,1.157,0,0,0-1.316.236,1.18,1.18,0,0,0-.238,1.316,4.082,4.082,0,0,1-1.167.488A1.186,1.186,0,0,0,10.614,10.835ZM8.5,7.286a2.1,2.1,0,1,0,2.1-2.1A2.107,2.107,0,0,0,8.5,7.286ZM1.094,11.6a.514.514,0,0,1-.547-.443.515.515,0,0,1,.547-.445H5.631a7.139,7.139,0,0,0,.755.888Zm.117-3.1A1.123,1.123,0,0,1,0,7.494v-.5H4.583c0,.1-.016.207-.016.295A6.427,6.427,0,0,0,4.687,8.5ZM0,6.09V.99A1.1,1.1,0,0,1,1.212,0h11.9a1.11,1.11,0,0,1,1.212.99V2.541A6.033,6.033,0,0,0,4.687,6.09Z"/><path class="c" d="M660.535,540.727m-1.079,0a1.079,1.079,0,1,0,1.079-1.079A1.079,1.079,0,0,0,659.456,540.727Z" transform="translate(-649.936 -533.44)"/></g></g></svg>