<svg xmlns="http://www.w3.org/2000/svg" xmlns:xlink="http://www.w3.org/1999/xlink" width="24" height="24" viewBox="0 0 24 24"><defs><style>.a{fill:#333;stroke:#707070;}.b{clip-path:url(#a);}.c{fill:#1e56a0;}</style><clipPath id="a"><rect class="a" width="24" height="24"/></clipPath></defs><g class="b"><g transform="translate(2.696 2.241)"><path class="c" d="M152.241,123.217h-5.554a2.79,2.79,0,0,1-2.786-2.786V106.486a2.79,2.79,0,0,1,2.786-2.786h11.761a2.79,2.79,0,0,1,2.787,2.786v5.556a.7.7,0,1,1-1.4,0v-5.556a1.393,1.393,0,0,0-1.391-1.391H146.686a1.393,1.393,0,0,0-1.391,1.391v13.944a1.393,1.393,0,0,0,1.391,1.391h5.554a.7.7,0,0,1,0,1.4Zm0,0" transform="translate(-143.9 -103.7)"/><path d="M260.9,280.5h6.988a.7.7,0,0,0,0-1.4H260.9a.7.7,0,1,0,0,1.4Zm3.633,1.417H260.9a.7.7,0,1,0,0,1.4h3.633a.7.7,0,1,0,0-1.4Zm5.739,2.739a4.279,4.279,0,1,0,4.279,4.279A4.284,4.284,0,0,0,270.27,284.652Zm0,7.16a2.881,2.881,0,1,1,2.881-2.881A2.885,2.885,0,0,1,270.27,291.812Z" transform="translate(-257.449 -274.951)"/><path d="M790.65,788.134l-1.97-1.971a.7.7,0,0,1,.984-.984l1.97,1.971a.7.7,0,0,1-.984.984Zm0,0" transform="translate(-773.228 -768.86)"/></g></g></svg>