<svg xmlns="http://www.w3.org/2000/svg" xmlns:xlink="http://www.w3.org/1999/xlink" width="58.431" height="57.057" viewBox="0 0 58.431 57.057"><defs><style>.a{fill:#1e56a0;}.b{fill:#fff;}.c{filter:url(#a);}</style><filter id="a" x="0" y="4.943" width="58.431" height="52.113" filterUnits="userSpaceOnUse"><feOffset dy="3" input="SourceAlpha"/><feGaussianBlur stdDeviation="3" result="b"/><feFlood flood-opacity="0.161"/><feComposite operator="in" in2="b"/><feComposite in="SourceGraphic"/></filter></defs><g transform="translate(2.216)"><rect class="a" width="54" height="54" rx="10"/><g class="c" transform="matrix(1, 0, 0, 1, -2.22, 0)"><path class="b" d="M84.772,149.807a5.813,5.813,0,1,0-5.813-5.813A5.815,5.815,0,0,0,84.772,149.807Zm3.692,1.047-3.651,4.287-3.642-4.265c-3.822,1.715-6.544,6.011-6.544,11.061a13.7,13.7,0,0,0,.162,2.031,13.448,13.448,0,0,0,20.1,0,14.335,14.335,0,0,0,.162-2.031c-.009-5.073-2.744-9.378-6.589-11.084Zm4.125-6.86c0,.113-.009.221-.018.334a5.377,5.377,0,1,0-2.383-5.966,7.8,7.8,0,0,1,2.4,5.632ZM73.81,145.127a5.329,5.329,0,0,0,3.132-1.024.867.867,0,0,0,0-.108,7.821,7.821,0,0,1,2.13-5.352,5.378,5.378,0,1,0-5.262,6.485Zm24.975.975-3.38,3.962-3.173-3.723a7.853,7.853,0,0,1-1.945,3.186,14.057,14.057,0,0,1,6.774,12.406c0,.117-.009.239-.018.366a11.536,11.536,0,0,0,7.677-4.071,12.912,12.912,0,0,0,.149-1.882c0-4.68-2.532-8.669-6.083-10.244Zm-19.469,3.466a7.8,7.8,0,0,1-2.076-3.47l0,0-3.38,3.962-3.367-3.944c-3.538,1.593-6.052,5.569-6.052,10.235a12.913,12.913,0,0,0,.149,1.882,11.615,11.615,0,0,0,8.047,4.111c0-.135-.009-.271-.009-.406a14.083,14.083,0,0,1,6.693-12.365Z" transform="translate(-55.44 -123.43)"/></g></g></svg>