<svg xmlns="http://www.w3.org/2000/svg" xmlns:xlink="http://www.w3.org/1999/xlink" width="20" height="20" viewBox="0 0 20 20"><defs><style>.a,.c{fill:#b1b1b1;}.a{stroke:#707070;}.b{clip-path:url(#a);}</style><clipPath id="a"><rect class="a" width="20" height="20"/></clipPath></defs><g class="b"><path class="c" d="M-16456.99,21031.865a1.756,1.756,0,0,1-1.547-.939h-3.891v-1.619h3.891a1.764,1.764,0,0,1,.738-.74v-2.8h1.615v2.8a1.752,1.752,0,0,1,.945,1.547A1.755,1.755,0,0,1-16456.99,21031.865Zm2.406-6.924h-4.127a.485.485,0,0,1-.48-.486v-.6H-16464V21018h16.395l-.725,1.758v.322h.4v1.721h-.4v.6h-1.092l-.6,1.457h-.607l.828-1.922h-.395l-.83,1.922h-3.076v.6A.49.49,0,0,1-16454.584,21024.941Zm-9.217-6.008h0l-.023.3h14.674l.174-.3Z" transform="translate(16465.799 -21014.932)"/></g></svg>