<svg xmlns="http://www.w3.org/2000/svg" xmlns:xlink="http://www.w3.org/1999/xlink" width="20" height="20" viewBox="0 0 20 20"><defs><style>.a,.c{fill:#359000;}.a{stroke:#707070;}.b{clip-path:url(#a);}</style><clipPath id="a"><rect class="a" width="20" height="20"/></clipPath></defs><g class="b"><path class="c" d="M196.172,200.515l0-.005-2.3-2.456a1.009,1.009,0,0,1-.049-1.322l.539-.67,9.08,9.267-1.059.647a1.009,1.009,0,0,1-1.046,0Zm-.265.45,1.461,1.545-.94,1.591a1.006,1.006,0,0,1-.655.473.984.984,0,0,1-.223.025h-1.534v1.544a1.009,1.009,0,1,1-2.018,0v-4.036a1.009,1.009,0,1,1,2.018,0v.5h.921l.969-1.641Zm-.9-5.69,2.321-2.885a1.009,1.009,0,0,1,1.494-.086l9.01,8.88a1.009,1.009,0,0,1-.182,1.579l-3.319,2.029L195,195.275Z" transform="translate(-190.064 -189.583)"/></g></svg>