<svg xmlns="http://www.w3.org/2000/svg" xmlns:xlink="http://www.w3.org/1999/xlink" width="20" height="20" viewBox="0 0 20 20"><defs><style>.a,.c{fill:#359000;}.a{stroke:#707070;}.b{clip-path:url(#a);}</style><clipPath id="a"><rect class="a" width="20" height="20"/></clipPath></defs><g class="b"><path class="c" d="M233,123.648a6.692,6.692,0,1,0,6.692,6.692A6.693,6.693,0,0,0,233,123.648Zm-3.585,2.9a.788.788,0,1,1,.788.788A.787.787,0,0,1,229.412,126.547ZM233,133.139a2.8,2.8,0,1,1,2.8-2.8A2.8,2.8,0,0,1,233,133.139Zm5,3.146a6.669,6.669,0,0,1-9.941.073l-1.23,2.826c-.228.526.222.984,1.013.984h10.4c.794,0,1.244-.458,1.013-.984l-1.26-2.9Z" transform="translate(-222.997 -121.907)"/></g></svg>