<svg xmlns="http://www.w3.org/2000/svg" xmlns:xlink="http://www.w3.org/1999/xlink" width="20" height="20" viewBox="0 0 20 20"><defs><style>.a,.c{fill:#359000;}.a{stroke:#707070;}.b{clip-path:url(#a);}</style><clipPath id="a"><rect class="a" width="20" height="20"/></clipPath></defs><g class="b"><path class="c" d="M4.817,15.622a1.511,1.511,0,0,0,.6-.5,3.729,3.729,0,0,0,.488-.9,2.561,2.561,0,0,0,.126-.346s-.063.11-.189.315a3.835,3.835,0,0,1-.63.74,1.547,1.547,0,0,1-.519.3.72.72,0,0,1-.567-.079,2.383,2.383,0,0,1-.834-1.212,12.092,12.092,0,0,1-.614-3.4c-.031-.425-.031-.834-.031-1.2H.961c.047.425.126.9.22,1.4a12.015,12.015,0,0,0,1.307,3.605,4.856,4.856,0,0,0,.582.787,1.985,1.985,0,0,0,.819.551A1.177,1.177,0,0,0,4.817,15.622ZM2.661,6.113c0-.283.016-.582.031-.9a12.061,12.061,0,0,1,.6-3.4A2.486,2.486,0,0,1,4.109.587.653.653,0,0,1,4.676.508,1.29,1.29,0,0,1,5.2.791a3.5,3.5,0,0,1,.63.74,3.274,3.274,0,0,1,.189.315A2.585,2.585,0,0,0,5.888,1.5,4.041,4.041,0,0,0,5.4.6,1.746,1.746,0,0,0,4.833.115,1.249,1.249,0,0,0,3.9.067a2.255,2.255,0,0,0-.819.567,4.127,4.127,0,0,0-.582.771A12.015,12.015,0,0,0,1.2,5.011c-.079.378-.142.756-.189,1.1H0L1.763,8.16,3.526,6.113Z" transform="translate(2.125 18.168) rotate(-90)"/><path class="c" d="M173.262,160a.261.261,0,0,1,.259.293l-.187,1.5a.385.385,0,0,1-.052.183.236.236,0,0,1-.1.087.388.388,0,0,1-.188.029h-.483v4.695a4.695,4.695,0,1,1-9.389,0v-4.695h-.482a.4.4,0,0,1-.188-.029.236.236,0,0,1-.1-.086.389.389,0,0,1-.052-.183l-.187-1.5a.261.261,0,0,1,.226-.291l.016,0Zm-5.443,3.13a3.651,3.651,0,1,0,3.651,3.651A3.651,3.651,0,0,0,167.819,163.13Zm0,1.043a2.608,2.608,0,1,1-2.608,2.608A2.608,2.608,0,0,1,167.819,164.173Zm.782,2.608a.782.782,0,1,0,.782.782A.782.782,0,0,0,168.6,166.781Z" transform="translate(-157.818 -157.738)"/></g></svg>