<svg xmlns="http://www.w3.org/2000/svg" xmlns:xlink="http://www.w3.org/1999/xlink" width="24" height="24" viewBox="0 0 24 24"><defs><style>.a,.d{fill:#333;}.a{stroke:#707070;}.b{clip-path:url(#a);}.c{fill:#004bad;}</style><clipPath id="a"><rect class="a" width="24" height="24"/></clipPath></defs><g class="b"><g transform="translate(-16.168 1.467)"><path class="c" d="M471.182,489.425a2.8,2.8,0,0,0-2.106,4.651l-1.54,1.541-.787-.782a.731.731,0,1,0-1.031,1.038l.783.779-.766.767-1.679-1.68a.731.731,0,1,0-1.034,1.034l1.679,1.68-.72.721a.731.731,0,1,0,1.034,1.034l5.3-5.309a2.8,2.8,0,1,0,.861-5.474Zm0,4.147a1.342,1.342,0,1,1,1.341-1.342A1.343,1.343,0,0,1,471.182,493.572Z" transform="translate(-435.655 -479.356)"/><path class="d" d="M25.661,19.592H19.5a8.3,8.3,0,0,1,8.22-7.6.726.726,0,0,0,.264-.051,5.989,5.989,0,1,0-3.385-.884A9.8,9.8,0,0,0,18,20.323a.731.731,0,0,0,.731.732h6.926a.731.731,0,0,0,0-1.463ZM23.21,5.939a4.509,4.509,0,1,1,4.509,4.55A4.5,4.5,0,0,1,23.21,5.939Z"/></g></g></svg>