<svg xmlns="http://www.w3.org/2000/svg" xmlns:xlink="http://www.w3.org/1999/xlink" width="16" height="16" viewBox="0 0 16 16"><defs><style>.a,.c{fill:#fff;}.a{stroke:#707070;}.b{clip-path:url(#a);}</style><clipPath id="a"><rect class="a" width="16" height="16"/></clipPath></defs><g class="b"><g transform="translate(-39.387 -192.871)"><path class="c" d="M50.092,220.058a5.567,5.567,0,0,1-2.678.747c-2.553,0-4.795-2.242-5.542-3.114a10.081,10.081,0,0,1,3.363-2.553l-1-.934a13.212,13.212,0,0,0-3.425,2.8,1.055,1.055,0,0,0,0,1.432c1,1.059,3.487,3.612,6.6,3.612a7.064,7.064,0,0,0,3.612-1.121Zm3.923-3.114c-1-1.059-3.487-3.612-6.6-3.612a4.643,4.643,0,0,0-1.619.249l1.059,1.059a1.724,1.724,0,0,1,.56-.062c2.553,0,4.795,2.242,5.542,3.114a12.3,12.3,0,0,1-1.557,1.495l.872.872a10.528,10.528,0,0,0,1.681-1.681,1.126,1.126,0,0,0,.062-1.432Z" transform="translate(0 -16.817)"/><path class="c" d="M386.429,411.281a.6.6,0,0,1-.56.436.588.588,0,0,1-.623-.623.6.6,0,0,1,.436-.56l-.934-.934a1.95,1.95,0,0,0-.747,1.495,1.835,1.835,0,0,0,1.868,1.868,1.95,1.95,0,0,0,1.494-.747Z" transform="translate(-338.454 -210.22)"/><path class="c" d="M204.425,205.3l-7.971-7.971a.616.616,0,0,1,.872-.872l7.908,7.908a.6.6,0,0,1,0,.872A.5.5,0,0,1,204.425,205.3Z" transform="translate(-153.461)"/></g></g></svg>