<svg xmlns="http://www.w3.org/2000/svg" xmlns:xlink="http://www.w3.org/1999/xlink" width="16" height="16" viewBox="0 0 16 16"><defs><style>.a,.c{fill:#fff;}.a{stroke:#707070;}.b{clip-path:url(#a);}</style><clipPath id="a"><rect class="a" width="16" height="16"/></clipPath></defs><g class="b"><g transform="translate(-62.065 -59.984)"><path class="c" d="M69.519,73.867a.419.419,0,0,0,.409-.513l-.23-1.006H73.41a2.526,2.526,0,0,0,2.519-2.519v-5.21A2.526,2.526,0,0,0,73.41,62.1H66.719A2.526,2.526,0,0,0,64.2,64.619v5.21a2.526,2.526,0,0,0,2.519,2.519h.312L69.292,73.8A.42.42,0,0,0,69.519,73.867ZM73.41,62.94a1.681,1.681,0,0,1,1.679,1.679v5.21a1.681,1.681,0,0,1-1.679,1.679H69.173a.419.419,0,0,0-.409.513l.118.517-1.5-.963a.424.424,0,0,0-.227-.067h-.436a1.681,1.681,0,0,1-1.679-1.679v-5.21a1.681,1.681,0,0,1,1.679-1.679Z" transform="translate(0)"/><path class="c" d="M69.519,73.967a.52.52,0,0,1-.281-.083L67,72.448h-.283A2.626,2.626,0,0,1,64.1,69.829v-5.21A2.626,2.626,0,0,1,66.719,62H73.41a2.626,2.626,0,0,1,2.619,2.619v5.21a2.626,2.626,0,0,1-2.619,2.619H69.824l.2.884a.519.519,0,0,1-.507.635ZM66.719,62.2A2.426,2.426,0,0,0,64.3,64.619v5.21a2.426,2.426,0,0,0,2.419,2.419h.312a.1.1,0,0,1,.054.016l2.261,1.452a.327.327,0,0,0,.356-.007.32.32,0,0,0,.128-.333L69.6,72.37a.1.1,0,0,1,.1-.122H73.41a2.426,2.426,0,0,0,2.419-2.419v-5.21A2.426,2.426,0,0,0,73.41,62.2Zm2.162,10.438a.1.1,0,0,1-.054-.016l-1.5-.963a.323.323,0,0,0-.173-.051h-.436a1.781,1.781,0,0,1-1.779-1.779v-5.21a1.781,1.781,0,0,1,1.779-1.779H73.41a1.781,1.781,0,0,1,1.779,1.779v5.21a1.781,1.781,0,0,1-1.779,1.779H69.173a.319.319,0,0,0-.312.391l.118.516a.1.1,0,0,1-.1.122Zm-2.162-9.6a1.581,1.581,0,0,0-1.579,1.579v5.21a1.581,1.581,0,0,0,1.579,1.579h.436a.523.523,0,0,1,.281.082l1.294.831-.064-.278a.519.519,0,0,1,.507-.635H73.41a1.581,1.581,0,0,0,1.579-1.579v-5.21A1.581,1.581,0,0,0,73.41,63.04Z" transform="translate(0)"/><path class="c" d="M286.4,250.3a5.769,5.769,0,0,1,2.582-1.181l-.584-.32a.446.446,0,0,1,.428-.782l1.64.9a.446.446,0,0,1,.216.505.39.39,0,0,1-.042.106l-.9,1.64a.446.446,0,0,1-.39.231.441.441,0,0,1-.213-.054.446.446,0,0,1-.176-.6l.436-.791c-1.85.294-3.634,1.458-3.528,3.5a.448.448,0,0,1-.421.468h-.025a.443.443,0,0,1-.443-.421,3.792,3.792,0,0,1,.341-1.817A4.024,4.024,0,0,1,286.4,250.3Z" transform="translate(-217.663 -183.425)"/><path class="c" d="M288.61,247.864a.553.553,0,0,1,.262.066l1.641.9a.546.546,0,0,1,.265.618.482.482,0,0,1-.053.132l-.9,1.637a.545.545,0,0,1-.738.217.549.549,0,0,1-.215-.74l.335-.608c-1.6.314-3.344,1.359-3.24,3.359a.55.55,0,0,1-.515.573h-.031a.543.543,0,0,1-.543-.516,3.893,3.893,0,0,1,.35-1.864,4.125,4.125,0,0,1,1.1-1.413,5.761,5.761,0,0,1,2.364-1.145l-.35-.192a.55.55,0,0,1-.217-.74A.542.542,0,0,1,288.61,247.864Zm.739,3.437a.348.348,0,0,0,.3-.179l.9-1.64a.3.3,0,0,0,.033-.082.347.347,0,0,0-.168-.393l-1.64-.9a.352.352,0,0,0-.166-.042.343.343,0,0,0-.3.179.35.35,0,0,0,.138.47l.583.32a.1.1,0,0,1-.029.186,5.658,5.658,0,0,0-2.537,1.159,3.926,3.926,0,0,0-1.052,1.345,3.694,3.694,0,0,0-.332,1.77.343.343,0,0,0,.344.326h.022a.349.349,0,0,0,.324-.364,3,3,0,0,1,1.064-2.485,5.1,5.1,0,0,1,2.548-1.118.1.1,0,0,1,.1.147l-.436.791a.348.348,0,0,0,.137.469A.342.342,0,0,0,289.349,251.3Z" transform="translate(-217.663 -183.425)"/></g></g></svg>