<svg xmlns="http://www.w3.org/2000/svg" xmlns:xlink="http://www.w3.org/1999/xlink" width="16" height="16" viewBox="0 0 16 16"><defs><style>.a,.c{fill:#fff;}.a{stroke:#707070;}.b{clip-path:url(#a);}.c{stroke:#fff;stroke-width:0.2px;}</style><clipPath id="a"><rect class="a" width="16" height="16"/></clipPath></defs><g class="b"><path class="c" d="M67.787,66.164h4.3a.385.385,0,0,0,.384-.384V65.7a.385.385,0,0,0-.384-.384h-4.3a.385.385,0,0,0-.384.384v.077A.385.385,0,0,0,67.787,66.164ZM67.4,67.472a.385.385,0,0,0,.384.384h4.3a.385.385,0,0,0,.384-.384V67.4a.385.385,0,0,0-.384-.384h-4.3a.385.385,0,0,0-.384.384ZM70.9,74.027a3.435,3.435,0,0,1-.251-.28h-4.13a.423.423,0,0,1-.422-.422v-9.3a.423.423,0,0,1,.422-.422h7.621a.423.423,0,0,1,.422.422v4.485a3.352,3.352,0,0,1,.844.5V64.025a1.268,1.268,0,0,0-1.266-1.266H66.515a1.268,1.268,0,0,0-1.266,1.266v9.3a1.268,1.268,0,0,0,1.266,1.266h5.126A3.393,3.393,0,0,1,70.9,74.027Zm4.563-.8-.638-.638a2.112,2.112,0,1,0-.594.6l.635.635a.423.423,0,0,0,.6,0h0A.423.423,0,0,0,75.459,73.227ZM71.79,71.435A1.266,1.266,0,1,1,73.056,72.7,1.268,1.268,0,0,1,71.79,71.435Z" transform="translate(-62.855 -60.454)"/></g></svg>