<svg xmlns="http://www.w3.org/2000/svg" xmlns:xlink="http://www.w3.org/1999/xlink" width="16" height="16" viewBox="0 0 16 16"><defs><style>.a,.c{fill:#fff;}.a{stroke:#707070;}.b{clip-path:url(#a);}.c{stroke:#fff;stroke-width:0.2px;}</style><clipPath id="a"><rect class="a" width="16" height="16"/></clipPath></defs><g class="b"><path class="c" d="M5.623,4.2a3.026,3.026,0,0,0-1.477,1.53.384.384,0,0,0,.2.5.376.376,0,0,0,.152.031.383.383,0,0,0,.352-.231,2.262,2.262,0,0,1,1.1-1.143A.383.383,0,1,0,5.623,4.2ZM9.559,6.541a.383.383,0,0,0-.384.384A2.257,2.257,0,0,1,6.921,9.179a.384.384,0,0,0,0,.767,3.02,3.02,0,0,0,3.02-3.02A.382.382,0,0,0,9.559,6.541Zm2.6,5.065-1.74-1.74a4.611,4.611,0,1,0-.542.544l1.74,1.74a.383.383,0,0,0,.271.113.378.378,0,0,0,.271-.113A.386.386,0,0,0,12.16,11.606ZM6.9,10.735A3.834,3.834,0,1,1,10.736,6.9,3.838,3.838,0,0,1,6.9,10.735Zm-3.079.771H1.678a.912.912,0,0,1-.911-.911V1.678A.912.912,0,0,1,1.678.767h8.15a.912.912,0,0,1,.911.911V2.789a.384.384,0,1,0,.767,0V1.678A1.68,1.68,0,0,0,9.827,0H1.678A1.68,1.68,0,0,0,0,1.678v8.917a1.68,1.68,0,0,0,1.678,1.678H3.823a.384.384,0,1,0,0-.767Z" transform="translate(1.864 1.864)"/></g></svg>