<svg xmlns="http://www.w3.org/2000/svg" xmlns:xlink="http://www.w3.org/1999/xlink" width="16" height="16" viewBox="0 0 16 16"><defs><style>.a,.c{fill:#fff;}.a{stroke:#707070;}.b{clip-path:url(#a);}</style><clipPath id="a"><rect class="a" width="16" height="16"/></clipPath></defs><g class="b"><g transform="translate(-41.663 -209.78)"><path class="c" d="M56.325,217.017c-.762-.889-3.43-3.684-6.67-3.684s-5.971,2.859-6.67,3.684a1.074,1.074,0,0,0,0,1.525c.7.826,3.43,3.684,6.67,3.684s5.971-2.859,6.67-3.684A1.038,1.038,0,0,0,56.325,217.017Zm-6.67,3.939c-2.6,0-4.955-2.414-5.654-3.176.635-.7,2.986-3.176,5.654-3.176s5.019,2.477,5.654,3.176C54.673,218.479,52.323,220.956,49.654,220.956Z"/><path class="c" d="M385.906,384a1.906,1.906,0,1,0,1.906,1.906A1.872,1.872,0,0,0,385.906,384Zm0,2.541a.635.635,0,1,1,.635-.635A.6.6,0,0,1,385.906,386.541Z" transform="translate(-336.251 -168.126)"/></g></g></svg>