<svg xmlns="http://www.w3.org/2000/svg" xmlns:xlink="http://www.w3.org/1999/xlink" width="16" height="16" viewBox="0 0 16 16"><defs><style>.a,.c{fill:#fff;}.a{stroke:#707070;}.b{clip-path:url(#a);}</style><clipPath id="a"><rect class="a" width="16" height="16"/></clipPath></defs><g class="b"><path class="c" d="M-5566.343-1486.823a.494.494,0,0,1-.236-.06.5.5,0,0,1-.264-.44v-1.759h-1a2.008,2.008,0,0,1-2.006-2v-6.023a2,2,0,0,1,.752-1.564l1.444,1.312h-.19a.253.253,0,0,0-.253.252v6.023a.254.254,0,0,0,.253.253h2.259a.5.5,0,0,1,.5.5v.671l1.63-1.086a.492.492,0,0,1,.277-.084h2.709l1.67,1.518a.771.771,0,0,0,.31.208,2.032,2.032,0,0,1-.32.026h-3.991l-3.261,2.175A.492.492,0,0,1-5566.343-1486.823Zm8.9-2.8h0c-.061-.065-.138-.136-.2-.191l-1.09-1.031a.253.253,0,0,0,.172-.239v-6.023a.253.253,0,0,0-.254-.252h-6.8l-1.853-1.753h8.658a2.008,2.008,0,0,1,2.006,2v6.023a2.01,2.01,0,0,1-.634,1.461Z" transform="translate(5571.332 1500.969)"/><path class="c" d="M205.893,205.829l-9.406-8.441a.594.594,0,0,1,0-.923.768.768,0,0,1,1.029,0l6.35,5.7,2.982,2.676a.593.593,0,0,1,0,.923A.627.627,0,0,1,205.893,205.829Z" transform="translate(-192.961 -194.412)"/></g></svg>