<svg xmlns="http://www.w3.org/2000/svg" xmlns:xlink="http://www.w3.org/1999/xlink" width="16" height="16" viewBox="0 0 16 16"><defs><style>.a,.c{fill:#fff;}.a{stroke:#707070;}.b{clip-path:url(#a);}</style><clipPath id="a"><rect class="a" width="16" height="16"/></clipPath></defs><g class="b"><g transform="translate(-31.832 -61.006)"><path class="c" d="M48.485,498.279a.294.294,0,0,1-.216-.1l-2.489-2.725a.354.354,0,0,1,0-.472l2.489-2.725a.285.285,0,0,1,.431,0,.357.357,0,0,1,0,.472l-2.273,2.489,2.273,2.489a.355.355,0,0,1,0,.472.294.294,0,0,1-.216.1Z" transform="translate(-11.419 -423.414)"/><path class="c" d="M48.485,498.529a.545.545,0,0,1-.4-.179L45.6,495.625a.6.6,0,0,1,0-.811l2.488-2.724a.535.535,0,0,1,.8,0,.6.6,0,0,1,0,.81l-2.118,2.318,2.119,2.32a.6.6,0,0,1,0,.811A.544.544,0,0,1,48.485,498.529Zm0-6.118a.04.04,0,0,0-.03.016l-2.49,2.726a.1.1,0,0,0,0,.134l2.49,2.726a.046.046,0,0,0,.031.017h0a.045.045,0,0,0,.031-.017.106.106,0,0,0,0-.135l-2.427-2.657,2.427-2.657a.108.108,0,0,0,0-.137A.04.04,0,0,0,48.485,492.411Z" transform="translate(-11.419 -423.414)"/><path class="c" d="M50.884,312.526h-4.84a.336.336,0,0,1,0-.668h4.84a.336.336,0,0,1,0,.668Zm3.181.3a.294.294,0,0,1-.216-.1.354.354,0,0,1,0-.472l2.273-2.489-2.273-2.489a.355.355,0,0,1,0-.472.287.287,0,0,1,.431,0l2.489,2.725a.355.355,0,0,1,0,.472l-2.489,2.725a.294.294,0,0,1-.216.1Z" transform="translate(-11.467 -240.384)"/><path class="c" d="M54.065,313.077a.545.545,0,0,1-.4-.179.6.6,0,0,1,0-.811l2.118-2.319-2.119-2.32a.6.6,0,0,1,0-.811.55.55,0,0,1,.4-.178.54.54,0,0,1,.4.181l2.488,2.723a.6.6,0,0,1,0,.811L54.465,312.9a.545.545,0,0,1-.4.179Zm0-6.118a.049.049,0,0,0-.034.018.106.106,0,0,0,0,.134l2.427,2.657-2.427,2.657a.1.1,0,0,0,0,.134.047.047,0,0,0,.032.018.046.046,0,0,0,.031-.017l2.489-2.725a.106.106,0,0,0,0-.135L54.1,306.976A.04.04,0,0,0,54.066,306.96Zm-3.183,5.817h-4.84a.585.585,0,0,1,0-1.168h4.84a.585.585,0,0,1,0,1.168Zm-4.84-.668c-.026,0-.055.036-.055.084s.029.084.055.084h4.84c.026,0,.055-.036.055-.084s-.029-.084-.055-.084Z" transform="translate(-11.467 -240.384)"/><path class="c" d="M526.361,516.252h-4.84a.336.336,0,0,1,0-.668h4.84a.336.336,0,0,1,0,.668Z" transform="translate(-481.274 -446.532)"/><path class="c" d="M526.361,516.5h-4.84a.585.585,0,0,1,0-1.168h4.84a.585.585,0,0,1,0,1.168Zm-4.84-.668c-.026,0-.055.036-.055.084s.029.084.055.084h4.84c.026,0,.055-.036.055-.084s-.029-.084-.055-.084Z" transform="translate(-481.274 -446.532)"/><path class="c" d="M34.439,68.81a.32.32,0,0,1-.305-.334v-4.1a1.178,1.178,0,0,1,1.119-1.225h9.158a1.178,1.178,0,0,1,1.119,1.225v1.379a.307.307,0,1,1-.611,0V64.372a.535.535,0,0,0-.509-.557H35.253a.535.535,0,0,0-.509.557v4.1A.32.32,0,0,1,34.439,68.81Z" transform="translate(0)"/><path class="c" d="M34.439,69.06a.571.571,0,0,1-.555-.584v-4.1A1.427,1.427,0,0,1,35.253,62.9h9.158a1.427,1.427,0,0,1,1.369,1.475v1.379a.556.556,0,1,1-1.111,0V64.372a.286.286,0,0,0-.259-.307H35.253a.286.286,0,0,0-.259.307v4.1A.571.571,0,0,1,34.439,69.06Zm.814-5.663a.928.928,0,0,0-.869.975v4.1c0,.048.029.084.055.084s.055-.036.055-.084v-4.1a.785.785,0,0,1,.759-.807h9.158a.785.785,0,0,1,.759.807v1.379c0,.048.029.084.055.084s.055-.036.055-.084V64.372a.928.928,0,0,0-.869-.975Z" transform="translate(0)"/></g></g></svg>