<svg xmlns="http://www.w3.org/2000/svg" xmlns:xlink="http://www.w3.org/1999/xlink" width="16" height="16" viewBox="0 0 16 16"><defs><style>.a{fill:#333;}.b{clip-path:url(#a);}</style><clipPath id="a"><rect class="a" width="16" height="16" transform="translate(217 96)"/></clipPath></defs><g transform="translate(0 16) rotate(-90)"><g class="b" transform="translate(-96 233) rotate(-90)"><g transform="translate(218.639 107.802) rotate(-90)"><path class="a" d="M.9.043,8.036,0a.879.879,0,0,1,.887.887.905.905,0,0,1-.9.9L.887,1.828A.879.879,0,0,1,0,.941.905.905,0,0,1,.9.043Z" transform="translate(1.292 0) rotate(45)"/><path class="a" d="M.887,0,8.025.043a.905.905,0,0,1,.9.9.879.879,0,0,1-.887.887L.9,1.785a.905.905,0,0,1-.9-.9A.879.879,0,0,1,.887,0Z" transform="translate(0.001 11.327) rotate(-45)"/></g></g></g></svg>