<svg xmlns="http://www.w3.org/2000/svg" xmlns:xlink="http://www.w3.org/1999/xlink" width="16" height="16" viewBox="0 0 16 16"><defs><style>.a,.c{fill:#fff;}.a{stroke:#707070;}.b{clip-path:url(#a);}</style><clipPath id="a"><rect class="a" width="16" height="16"/></clipPath></defs><g class="b"><g transform="translate(-125.717 -62.157)"><path class="c" d="M320,321m.44,0h3.518a.389.389,0,0,1,.44.44h0a.389.389,0,0,1-.44.44H320.44a.389.389,0,0,1-.44-.44h0A.389.389,0,0,1,320.44,321Z" transform="translate(-189.361 -253.468)"/><path class="c" d="M320.44,320.95h3.518a.49.49,0,1,1,0,.979H320.44a.49.49,0,1,1,0-.979Zm3.518.879a.39.39,0,1,0,0-.78H320.44a.39.39,0,1,0,0,.78Z" transform="translate(-189.361 -253.468)"/><path class="c" d="M320,513m.44,0H322.2a.389.389,0,0,1,.44.44h0a.389.389,0,0,1-.44.44H320.44a.389.389,0,0,1-.44-.44h0A.389.389,0,0,1,320.44,513Z" transform="translate(-189.361 -442.83)"/><path class="c" d="M320.44,512.95H322.2a.49.49,0,1,1,0,.979H320.44a.49.49,0,1,1,0-.979Zm1.759.879a.39.39,0,1,0,0-.779H320.44a.39.39,0,1,0,0,.779Z" transform="translate(-189.361 -442.83)"/><path class="c" d="M515.052,518.134a3.078,3.078,0,1,1,2.177-.9A3.078,3.078,0,0,1,515.052,518.134Zm0-5.277a2.2,2.2,0,1,0,2.2,2.2A2.2,2.2,0,0,0,515.052,512.857Z" transform="translate(-378.697 -441.821)"/><path class="c" d="M515.06,518.184h-.008a3.118,3.118,0,1,1,.008,0Zm-.009-6.157a3.028,3.028,0,0,0,0,6.057h.008a3.028,3.028,0,0,0-.009-6.057Zm0,5.277a2.249,2.249,0,1,1,2.249-2.249A2.251,2.251,0,0,1,515.052,517.3Zm0-4.4a2.149,2.149,0,1,0,2.149,2.149A2.151,2.151,0,0,0,515.052,512.907Z" transform="translate(-378.697 -441.821)"/><path class="c" d="M625.291,674.205a.882.882,0,0,1-.622-.258l-.544-.544a.44.44,0,0,1,.622-.622l.544.544,1.01-1.179a.44.44,0,1,1,.668.573l-1.01,1.179a.883.883,0,0,1-.634.306Z" transform="translate(-489.18 -599.638)"/><path class="c" d="M625.291,674.255h0a.926.926,0,0,1-.657-.272l-.544-.544a.49.49,0,1,1,.693-.693l.505.506.975-1.138a.49.49,0,1,1,.744.638L626,673.931a.936.936,0,0,1-.67.324Zm-.855-1.552a.39.39,0,0,0-.276.665l.544.544a.827.827,0,0,0,.587.243h.032a.836.836,0,0,0,.6-.289l1.01-1.178a.39.39,0,0,0-.592-.508l-1.01,1.179a.048.048,0,0,1-.038.017.05.05,0,0,1-.035-.015l-.544-.544A.387.387,0,0,0,624.436,672.7Z" transform="translate(-489.18 -599.638)"/><path class="c" d="M132.835,76.313H130.2a2.2,2.2,0,0,1-2.2-2.2V66.2a2.2,2.2,0,0,1,2.2-2.2h5.277a2.2,2.2,0,0,1,2.2,2.2v2.633a.44.44,0,0,1-.88,0V66.2a1.321,1.321,0,0,0-1.319-1.319H130.2A1.321,1.321,0,0,0,128.88,66.2v7.916a1.321,1.321,0,0,0,1.319,1.319h2.636a.44.44,0,1,1,0,.88Z"/><path class="c" d="M132.835,76.363H130.2a2.251,2.251,0,0,1-2.249-2.249V66.2A2.251,2.251,0,0,1,130.2,63.95h5.277a2.251,2.251,0,0,1,2.249,2.249v2.633a.49.49,0,0,1-.98,0V66.2a1.273,1.273,0,0,0-1.269-1.269H130.2A1.273,1.273,0,0,0,128.93,66.2v7.916a1.273,1.273,0,0,0,1.269,1.269h2.636a.49.49,0,1,1,0,.98ZM130.2,64.05A2.151,2.151,0,0,0,128.05,66.2v7.916a2.151,2.151,0,0,0,2.149,2.149h2.636a.39.39,0,1,0,0-.78H130.2a1.373,1.373,0,0,1-1.369-1.369V66.2A1.373,1.373,0,0,1,130.2,64.83h5.277a1.373,1.373,0,0,1,1.369,1.369v2.633a.39.39,0,0,0,.779,0V66.2a2.151,2.151,0,0,0-2.149-2.149Z"/></g></g></svg>