<svg xmlns="http://www.w3.org/2000/svg" xmlns:xlink="http://www.w3.org/1999/xlink" width="16" height="16" viewBox="0 0 16 16"><defs><style>.a,.d{fill:#fff;}.a{stroke:#707070;}.b{clip-path:url(#a);}.c{opacity:0.01;}</style><clipPath id="a"><rect class="a" width="16" height="16"/></clipPath></defs><g class="b"><g transform="translate(1.466 1.466)"><g class="c"><path class="d" d="M0,0H13.068V13.068H0Z"/><path class="d" d="M-.1-.1H13.168V13.168H-.1ZM12.968.1H.1V12.968H12.968Z"/></g><path class="d" d="M35.875,70.444a2.178,2.178,0,0,1,2.178-2.178h4.356a2.178,2.178,0,0,1,2.178,2.178v1.307h.436a1.307,1.307,0,0,1,1.307,1.307v4.356a2.178,2.178,0,0,1-2.178,2.178H36.311a2.178,2.178,0,0,1-2.178-2.178V73.057a1.307,1.307,0,0,1,1.307-1.307h.436V70.444ZM44.587,73.8a1.307,1.307,0,0,1-.659,1.134l-2.617,1.5a2.178,2.178,0,0,1-2.161,0l-2.617-1.5a1.307,1.307,0,0,1-.659-1.134V72.622H35.44a.436.436,0,0,0-.436.436v4.356a1.307,1.307,0,0,0,1.307,1.307h7.841a1.307,1.307,0,0,0,1.307-1.307V73.057a.436.436,0,0,0-.436-.436h-.436V73.8Zm-6.534-4.659a1.307,1.307,0,0,0-1.307,1.307V73.8a.436.436,0,0,0,.22.378l2.617,1.5a1.307,1.307,0,0,0,1.3,0l2.617-1.5a.436.436,0,0,0,.22-.378V70.444a1.307,1.307,0,0,0-1.307-1.307Zm.436,1.307a.436.436,0,0,0,0,.871h3.485a.436.436,0,0,0,0-.871Zm0,1.742a.436.436,0,0,0,0,.871h3.485a.436.436,0,0,0,0-.871Z" transform="translate(-33.697 -67.395)"/><path class="d" d="M38.053,68.166h4.356a2.281,2.281,0,0,1,2.278,2.278v1.207h.336a1.408,1.408,0,0,1,1.407,1.407v4.356a2.281,2.281,0,0,1-2.278,2.278H36.311a2.281,2.281,0,0,1-2.278-2.278V73.057a1.408,1.408,0,0,1,1.407-1.407h.336V70.444A2.281,2.281,0,0,1,38.053,68.166Zm6.1,11.325a2.08,2.08,0,0,0,2.078-2.078V73.057a1.208,1.208,0,0,0-1.207-1.207h-.536V70.444a2.08,2.08,0,0,0-2.078-2.078H38.053a2.08,2.08,0,0,0-2.078,2.078v1.407H35.44a1.208,1.208,0,0,0-1.207,1.207v4.356a2.08,2.08,0,0,0,2.078,2.078Zm-6.1-10.454h4.356a1.408,1.408,0,0,1,1.407,1.407V73.8a.537.537,0,0,1-.27.465l-2.617,1.5a1.407,1.407,0,0,1-1.4,0l-2.617-1.5a.537.537,0,0,1-.27-.465V70.444A1.408,1.408,0,0,1,38.053,69.037Zm2.178,6.705a1.209,1.209,0,0,0,.6-.159l2.617-1.5a.336.336,0,0,0,.169-.291V70.444a1.208,1.208,0,0,0-1.207-1.207H38.053a1.208,1.208,0,0,0-1.207,1.207V73.8a.336.336,0,0,0,.169.291l2.617,1.5A1.209,1.209,0,0,0,40.231,75.742Zm-1.742-5.4h3.485a.536.536,0,0,1,0,1.071H38.489a.536.536,0,0,1,0-1.071Zm3.485.871a.336.336,0,0,0,0-.671H38.489a.336.336,0,1,0,0,.671Zm-3.485.871h3.485a.536.536,0,0,1,0,1.071H38.489a.536.536,0,0,1,0-1.071Zm3.485.871a.336.336,0,0,0,0-.671H38.489a.336.336,0,1,0,0,.671Zm-6.534-.436h.536V73.8a1.209,1.209,0,0,0,.608,1.047l2.617,1.5a2.078,2.078,0,0,0,2.062,0l2.617-1.5a1.209,1.209,0,0,0,.608-1.047V72.522h.536a.536.536,0,0,1,.536.536v4.356a1.408,1.408,0,0,1-1.407,1.407H36.311A1.408,1.408,0,0,1,34.9,77.413V73.057A.536.536,0,0,1,35.44,72.522Zm.336.2H35.44a.336.336,0,0,0-.336.336v4.356a1.208,1.208,0,0,0,1.207,1.207h7.841a1.208,1.208,0,0,0,1.207-1.207V73.057a.336.336,0,0,0-.336-.336h-.336V73.8a1.41,1.41,0,0,1-.709,1.221l-2.617,1.5a2.278,2.278,0,0,1-2.261,0l-2.617-1.5a1.41,1.41,0,0,1-.709-1.221Z" transform="translate(-33.697 -67.395)"/></g></g></svg>