<svg xmlns="http://www.w3.org/2000/svg" xmlns:xlink="http://www.w3.org/1999/xlink" width="16" height="16" viewBox="0 0 16 16"><defs><style>.a,.c{fill:#fff;}.a{stroke:#707070;}.b{clip-path:url(#a);}</style><clipPath id="a"><rect class="a" width="16" height="16"/></clipPath></defs><g class="b"><path class="c" d="M3.764,26.693l2.217-1.478.19-.126h4.369a.754.754,0,0,0,.753-.753V18.313a.754.754,0,0,0-.753-.752H1.506a.753.753,0,0,0-.753.752v6.023a.753.753,0,0,0,.753.753H3.764v1.6M3.011,28.1V25.842H1.506A1.506,1.506,0,0,1,0,24.336V18.313a1.506,1.506,0,0,1,1.506-1.505h9.034a1.506,1.506,0,0,1,1.506,1.505v6.023a1.506,1.506,0,0,1-1.506,1.506H6.4L3.011,28.1Zm0,0" transform="translate(1.977 -14.454)"/><path class="c" d="M3.011,28.6a.5.5,0,0,1-.5-.5V26.342H1.506A2.008,2.008,0,0,1-.5,24.336V18.313a2.008,2.008,0,0,1,2.006-2.005h9.034a2.008,2.008,0,0,1,2.006,2.005v6.023a2.008,2.008,0,0,1-2.006,2.006H6.55L3.289,28.516A.5.5,0,0,1,3.011,28.6ZM1.506,18.061a.253.253,0,0,0-.253.252v6.023a.253.253,0,0,0,.253.253H3.764a.5.5,0,0,1,.5.5v.67l1.629-1.086a.5.5,0,0,1,.277-.084h4.369a.253.253,0,0,0,.253-.253V18.313a.253.253,0,0,0-.253-.252Z" transform="translate(1.977 -14.454)"/></g></svg>