<svg xmlns="http://www.w3.org/2000/svg" xmlns:xlink="http://www.w3.org/1999/xlink" width="20" height="20" viewBox="0 0 20 20"><defs><style>.a{fill:#333;}.b{clip-path:url(#a);}.c{fill:none;}</style><clipPath id="a"><rect class="a" width="20" height="20"/></clipPath></defs><g class="b"><g transform="translate(-15 -14)"><path d="M-1.416-290.322a.351.351,0,0,1-.319-.2A.358.358,0,0,1-1.7-290.9l3.584-4.778a.356.356,0,0,1,.287-.143.356.356,0,0,1,.287.143L6.038-290.9a.358.358,0,0,1,.032.376.351.351,0,0,1-.319.2Zm-.114-1.433H-4.291a.7.7,0,0,1-.5-.212A.7.7,0,0,1-5-292.472v-10.035a.723.723,0,0,1,.71-.717H4.653a3.19,3.19,0,0,0-.335,1.433,3.229,3.229,0,0,0,3.225,3.225,3.208,3.208,0,0,0,1.792-.543v6.636a.723.723,0,0,1-.71.717H5.864l-3.12-4.234a.709.709,0,0,0-.577-.292.711.711,0,0,0-.577.292l-3.12,4.234h0ZM7.152-299.4a.212.212,0,0,1-.212-.212v-.448a1.663,1.663,0,0,1-.381-.158l-.317.317a.213.213,0,0,1-.3,0l-.345-.345a.213.213,0,0,1,0-.3l.317-.317a1.664,1.664,0,0,1-.158-.381H5.308a.212.212,0,0,1-.212-.212v-.487a.212.212,0,0,1,.212-.212h.448a1.666,1.666,0,0,1,.158-.381l-.317-.317a.213.213,0,0,1,0-.3l.345-.345a.213.213,0,0,1,.3,0l.317.317a1.672,1.672,0,0,1,.381-.158v-.449A.213.213,0,0,1,7.151-304h.487a.212.212,0,0,1,.212.212v.448a1.686,1.686,0,0,1,.381.158l.317-.317a.212.212,0,0,1,.3,0l.345.345a.212.212,0,0,1,0,.3l-.317.317a1.684,1.684,0,0,1,.158.381h.449a.212.212,0,0,1,.212.211v.487a.212.212,0,0,1-.212.212H9.034a1.671,1.671,0,0,1-.158.381l.317.317a.212.212,0,0,1,0,.3l-.345.345a.212.212,0,0,1-.3,0l-.317-.317a1.68,1.68,0,0,1-.381.158v.449a.212.212,0,0,1-.212.212Zm-.689-2.3a.932.932,0,0,0,.932.933.932.932,0,0,0,.932-.933.932.932,0,0,0-.932-.932A.932.932,0,0,0,6.463-301.7Zm.395,0a.537.537,0,0,1,.537-.537.537.537,0,0,1,.538.537.538.538,0,0,1-.538.538A.537.537,0,0,1,6.857-301.7Z" transform="translate(23.153 321.079)"/><path class="c" d="M0,0H48V48H0Z"/></g></g></svg>