<svg xmlns="http://www.w3.org/2000/svg" xmlns:xlink="http://www.w3.org/1999/xlink" width="16" height="16" viewBox="0 0 16 16"><defs><style>.a,.c{fill:#fff;}.a{stroke:#707070;}.b{clip-path:url(#a);}</style><clipPath id="a"><rect class="a" width="16" height="16"/></clipPath></defs><g class="b"><path class="c" d="M51.932,41H42.639A1.641,1.641,0,0,0,41,42.639V51.93a1.641,1.641,0,0,0,1.639,1.64H51.93a1.641,1.641,0,0,0,1.64-1.64V42.639A1.641,1.641,0,0,0,51.932,41Zm-7.106,1.093h4.919v2.186a.548.548,0,0,1-.547.547H45.372a.548.548,0,0,1-.547-.547V42.093Zm7.652,9.839a.548.548,0,0,1-.547.547H42.639a.548.548,0,0,1-.547-.547V42.639a.548.548,0,0,1,.547-.547h1.093v2.186a1.641,1.641,0,0,0,1.64,1.64H49.2a1.641,1.641,0,0,0,1.64-1.64V42.093H51.93a.548.548,0,0,1,.547.547Zm-4.1-7.789a.683.683,0,1,0-.683-.683A.685.685,0,0,0,48.378,44.143Zm1.914,5.328H44.279a.547.547,0,0,0,0,1.094h6.013a.547.547,0,0,0,0-1.094Z" transform="translate(-39.285 -39.285)"/></g></svg>