<svg xmlns="http://www.w3.org/2000/svg" xmlns:xlink="http://www.w3.org/1999/xlink" width="16" height="16" viewBox="0 0 16 16"><defs><style>.a,.e{fill:#0270ff;}.a{stroke:#707070;}.b{clip-path:url(#a);}.c{fill:#ecf0f3;}.d{fill:#fff;}</style><clipPath id="a"><rect class="a" width="16" height="16"/></clipPath></defs><g class="b"><rect class="c" width="16" height="16" rx="2"/><path class="d" d="M236.433,74.019h-7.746a.42.42,0,0,1,0-.839h7.746a.42.42,0,0,1,0,.839Z" transform="translate(-224.558 -65.606)"/><path class="d" d="M232.559,80.348a.429.429,0,0,1-.3-.123l-2.472-2.472a.423.423,0,1,1,.594-.6l2.175,2.185,2.175-2.185a.42.42,0,1,1,.594.594l-2.472,2.472a.423.423,0,0,1-.3.132Zm0-.536a.42.42,0,0,1-.42-.4V75.352a.42.42,0,0,1,.839,0v4.057a.42.42,0,0,1-.42.4Z" transform="translate(-224.558 -65.606)"/><path class="e" d="M235.032,70.162a.429.429,0,0,1-.3-.123l-2.175-2.175-2.175,2.185a.42.42,0,0,1-.594-.594l2.472-2.472a.433.433,0,0,1,.594,0l2.472,2.472a.42.42,0,0,1-.3.717Zm-2.472,2.1a.42.42,0,0,1-.42-.42V67.806a.42.42,0,1,1,.839,0v4.041a.42.42,0,0,1-.42.42Z" transform="translate(-224.558 -65.606)"/></g></svg>