<svg xmlns="http://www.w3.org/2000/svg" xmlns:xlink="http://www.w3.org/1999/xlink" width="16" height="16" viewBox="0 0 16 16"><defs><style>.a,.c{fill:#333;}.a{stroke:#707070;}.b{clip-path:url(#a);}</style><clipPath id="a"><rect class="a" width="16" height="16"/></clipPath></defs><g class="b"><g transform="translate(2.158 0.736)"><path class="c" d="M552.22,4.715a.509.509,0,0,1-.39-.837L554.4.824a.526.526,0,0,1,.78,0l2.523,3a.509.509,0,1,1-.78.656l-2.135-2.541L552.61,4.534A.511.511,0,0,1,552.22,4.715Zm2.545,1.312a.509.509,0,1,0,.509.509.509.509,0,0,0-.509-.509Zm0,2.036a.509.509,0,1,0,.509.509.509.509,0,0,0-.509-.509Z" transform="translate(-545.353)"/><path class="c" d="M9.412,180.539a.509.509,0,0,0-.509.509v1.018a.509.509,0,1,0,1.018,0v-1.018a.509.509,0,0,0-.509-.509Zm-7.151,10.9a.508.508,0,0,1-.39-.182l-2.523-3a.509.509,0,0,1-.1-.509.509.509,0,0,1,.4-.333.509.509,0,0,1,.483.188l2.135,2.54,2.176-2.59a.509.509,0,0,1,.779.654l-2.566,3.054a.506.506,0,0,1-.39.182Zm.021-6.4a.509.509,0,1,0,.509.509A.509.509,0,0,0,2.282,185.037Zm0-2.036a.509.509,0,1,0,.509.509A.509.509,0,0,0,2.282,183Z" transform="translate(0 -177.563)"/><path class="c" d="M197.481,685.922a.509.509,0,0,0-.509.509v1.018a.509.509,0,1,0,1.018,0v-1.018A.509.509,0,0,0,197.481,685.922Z" transform="translate(-195.199 -676.415)"/></g></g></svg>