<svg xmlns="http://www.w3.org/2000/svg" xmlns:xlink="http://www.w3.org/1999/xlink" width="16" height="16" viewBox="0 0 16 16"><defs><style>.a,.c{fill:#fff;}.a{stroke:#707070;}.b{clip-path:url(#a);}</style><clipPath id="a"><rect class="a" width="16" height="16" transform="translate(249 20)"/></clipPath></defs><g class="b" transform="translate(-249 -20)"><path class="c" d="M176.93,198.566l-2.988,3.956,1.07.714L178,199.28Zm-.683-1.1.013.006.661-.989-1.166-.569-10.37-5.171L162,197.68l3.689,1.8,1.182.577,4.3,2.207,1.166.569.721-1.079.065-.087-.018-.009Zm-4.357,3.717-4.7-2.405L166,198.2l-2.284-1.115.47-.963,6.164,3.008.564-1.156-6.164-3.008,1.222-2.5,9.058,4.53Zm-6.791,1.139h-1.813V200.5H162v4.93h1.286V203.61h2.82l.317-1.286.348-1.409-1.182-.577Z" transform="translate(87 -170.087)"/></g></svg>