<svg xmlns="http://www.w3.org/2000/svg" xmlns:xlink="http://www.w3.org/1999/xlink" width="24" height="24" viewBox="0 0 24 24"><defs><style>.a,.c{fill:#0270ff;}.a{stroke:#707070;}.b{clip-path:url(#a);}</style><clipPath id="a"><rect class="a" width="24" height="24" transform="translate(1024 501)"/></clipPath></defs><g class="b" transform="translate(-1024 -501)"><path class="c" d="M77.735,73.347H70.1a.763.763,0,0,0,0,1.526h7.631a.763.763,0,0,0,0-1.526Zm6.659,10.73-3.312-3.312a10,10,0,1,0-1.14,1.019l3.373,3.373a.763.763,0,0,0,1.08-1.079ZM65.526,73.92a8.394,8.394,0,1,1,8.394,8.394A8.4,8.4,0,0,1,65.526,73.92Z" transform="translate(961.691 438.037)"/></g></svg>