<svg xmlns="http://www.w3.org/2000/svg" xmlns:xlink="http://www.w3.org/1999/xlink" width="16" height="16" viewBox="0 0 16 16"><defs><style>.a,.c{fill:#fff;}.a{stroke:#707070;}.b{clip-path:url(#a);}</style><clipPath id="a"><rect class="a" width="16" height="16" transform="translate(249 20)"/></clipPath></defs><g class="b" transform="translate(-249 -20)"><g transform="translate(130.751 -59.254)"><path class="c" d="M125.478,79.981l-5.612,4.951a1.18,1.18,0,0,0-.4.885v7.826a1.18,1.18,0,0,0,1.18,1.18h11.206a1.18,1.18,0,0,0,1.18-1.18V85.816a1.18,1.18,0,0,0-.4-.883l-5.594-4.951a1.18,1.18,0,0,0-1.562,0Zm-4.832,5.836,5.612-4.952,5.594,4.951v7.827H120.646Z" transform="translate(0)"/><path class="c" d="M479.046,563.789v3.834h-1.18v-3.834a.59.59,0,1,1,1.18,0Z" transform="translate(-352.207 -475.16)"/></g></g></svg>