<svg xmlns="http://www.w3.org/2000/svg" xmlns:xlink="http://www.w3.org/1999/xlink" width="20" height="20" viewBox="0 0 20 20"><defs><style>.a,.c{fill:#011f53;}.a{stroke:#707070;}.b{clip-path:url(#a);}</style><clipPath id="a"><rect class="a" width="20" height="20"/></clipPath></defs><g class="b"><path class="c" d="M23688.992,11942.12h-10.535a.486.486,0,0,1-.457-.487.492.492,0,0,1,.457-.494h.637v-11.905a2.4,2.4,0,0,1,1.652-2.331l5.555-1.813a2.128,2.128,0,0,1,1.969.41,2.452,2.452,0,0,1,.887,1.927v4l3.24,2.129h-1.838a3,3,0,0,0-3,3v3a2.986,2.986,0,0,0,1.432,2.562Zm-7.3-4.275a.491.491,0,0,0-.457.487.5.5,0,0,0,.457.493h4.389a.492.492,0,0,0,0-.98Zm0-3.574a.489.489,0,0,0,0,.976h4.389a.489.489,0,0,0,0-.976Zm0-3.568a.489.489,0,0,0,0,.976h4.389a.489.489,0,0,0,0-.976Z" transform="translate(-23676.559 -11923.56)"/><path class="c" d="M144.481,214.843h2.47a.412.412,0,0,1,.412.412V216.9a.412.412,0,0,1-.412.412h-2.47a.412.412,0,0,1-.412-.412v-1.647A.412.412,0,0,1,144.481,214.843Zm4.117,0h2.47a.412.412,0,0,1,0,.823H148.6a.412.412,0,1,1,0-.823Zm0,1.647h2.47a.412.412,0,0,1,0,.823H148.6a.412.412,0,1,1,0-.823Zm-4.117,2.058h2.47a.412.412,0,0,1,.412.412v1.647a.412.412,0,0,1-.412.412h-2.47a.412.412,0,0,1-.412-.412V218.96A.412.412,0,0,1,144.481,218.548Zm4.117,0h2.47a.412.412,0,0,1,0,.823H148.6a.412.412,0,1,1,0-.823Zm0,1.647h2.47a.412.412,0,0,1,0,.823H148.6a.412.412,0,1,1,0-.823Z" transform="translate(-131.866 -203.427)"/></g></svg>