<svg xmlns="http://www.w3.org/2000/svg" xmlns:xlink="http://www.w3.org/1999/xlink" width="20" height="20" viewBox="0 0 20 20"><defs><style>.a,.c{fill:#011f53;}.a{stroke:#707070;}.b{clip-path:url(#a);}</style><clipPath id="a"><rect class="a" width="20" height="20"/></clipPath></defs><g class="b"><path class="c" d="M89.869,16.127H78.177a.855.855,0,0,1-.762-1.355l.593-.847a1.294,1.294,0,0,1,.851-.339H89.276a.891.891,0,0,1,.762.4l.593.847a.815.815,0,0,1-.762,1.27Zm0,0M87.922,1.641A5.451,5.451,0,0,0,80.3,1.472l-.169.169a5.785,5.785,0,0,0,0,7.963l3.9,3.983L87.922,9.6a5.785,5.785,0,0,0,0-7.963ZM84.027,7.4A1.693,1.693,0,1,1,85.72,5.709,1.693,1.693,0,0,1,84.027,7.4Zm0,0" transform="translate(-74.021 2.072)"/></g></svg>