<svg xmlns="http://www.w3.org/2000/svg" xmlns:xlink="http://www.w3.org/1999/xlink" width="20" height="20" viewBox="0 0 20 20"><defs><style>.a,.c{fill:#011f53;}.a{stroke:#707070;}.b{clip-path:url(#a);}</style><clipPath id="a"><rect class="a" width="20" height="20"/></clipPath></defs><g class="b"><path class="c" d="M106.347,105.707h-.641v-5.149a2.488,2.488,0,0,0-1.078-2.07L100.837,96v-4a2.47,2.47,0,0,0-.889-1.929,2.111,2.111,0,0,0-1.967-.408l-5.556,1.81a2.415,2.415,0,0,0-1.65,2.337v11.9h-.641a.49.49,0,0,0,0,.977h16.211a.49.49,0,0,0,0-.977m-8.59-2.319H93.369a.49.49,0,0,1,0-.977h4.389a.49.49,0,0,1,0,.977m0-3.578H93.369a.49.49,0,0,1,0-.977h4.389a.49.49,0,0,1,0,.977m0-3.568H93.369a.49.49,0,0,1,0-.977h4.389a.49.49,0,0,1,0,.977m5.487,7.145h-1.1a.49.49,0,0,1,0-.977h1.1a.49.49,0,0,1,0,.977" transform="translate(-88.238 -88.125)"/></g></svg>