<svg xmlns="http://www.w3.org/2000/svg" xmlns:xlink="http://www.w3.org/1999/xlink" width="20" height="20" viewBox="0 0 20 20"><defs><style>.a,.c{fill:#011f53;}.a{stroke:#707070;}.b{clip-path:url(#a);}</style><clipPath id="a"><rect class="a" width="20" height="20"/></clipPath></defs><g class="b"><path class="c" d="M172.379,193.669H164.5a1.182,1.182,0,1,1,0-2.364h7.876a1.182,1.182,0,1,1,0,2.364Zm0-5.515H164.5a1.182,1.182,0,1,1,0-2.364h7.876a1.182,1.182,0,1,1,0,2.364Zm-12.6,11.422A1.574,1.574,0,1,1,161.349,198,1.574,1.574,0,0,1,159.774,199.576Zm0-5.515a1.574,1.574,0,1,1,1.574-1.574A1.574,1.574,0,0,1,159.774,194.062Zm0-5.513a1.574,1.574,0,1,1,1.574-1.574A1.574,1.574,0,0,1,159.774,188.549Zm4.728,8.269h7.876a1.182,1.182,0,1,1,0,2.364H164.5a1.182,1.182,0,1,1,0-2.364Z" transform="translate(-155.88 -182.488)"/></g></svg>