<svg xmlns="http://www.w3.org/2000/svg" width="7.996" height="7.996" viewBox="0 0 7.996 7.996"><defs><style>.a{fill:#b1b1b1;}</style></defs><path class="a" d="M153.14,195.048h-5.712a1.146,1.146,0,0,0-1.142,1.142V201.9a1.146,1.146,0,0,0,1.142,1.142h5.712a1.146,1.146,0,0,0,1.142-1.142V196.19A1.146,1.146,0,0,0,153.14,195.048Zm-.571,4.569h-1.714v1.714a.571.571,0,0,1-1.142,0v-1.714H148a.571.571,0,1,1,0-1.142h1.714v-1.714a.571.571,0,1,1,1.142,0v1.714h1.714a.571.571,0,0,1,0,1.142Z" transform="translate(-146.286 -195.048)"/></svg>