<svg xmlns="http://www.w3.org/2000/svg" xmlns:xlink="http://www.w3.org/1999/xlink" width="24" height="24" viewBox="0 0 24 24"><defs><style>.a{fill:#333;stroke:#707070;}.b{clip-path:url(#a);}.c{fill:#1e56a0;}.d{fill:none;stroke:#000;stroke-linecap:round;}</style><clipPath id="a"><rect class="a" width="24" height="24"/></clipPath></defs><g class="b"><path class="c" d="M28.711,55.587v-.141c0-.028,0-.056-.028-.056a.1.1,0,0,0-.028-.056c0-.028-.028-.028-.028-.056s-.028-.028-.028-.056-.028-.028-.056-.056l-.056-.056c-.028-.028-.028-.028-.056-.028-.028-.028-.028-.028-.056-.028a.028.028,0,0,1-.028-.028l-8.383-4.46A1.476,1.476,0,0,0,18.493,49.1a1.458,1.458,0,0,0-1.468,1.468l-8.27,4.431a.028.028,0,0,0-.028.028c-.028,0-.028.028-.056.028s-.028.028-.056.056l-.056.056a.028.028,0,0,0-.028.028c0,.028-.028.028-.028.056s-.028.028-.028.056-.028.028-.028.056a.1.1,0,0,1-.028.056V67.16a.7.7,0,0,0,.706.706H28.033a.7.7,0,0,0,.706-.706V55.587h-.028ZM17.674,51.833a1.56,1.56,0,0,0,.819.254,1.345,1.345,0,0,0,.819-.254l5.843,3.077H11.916ZM27.3,66.483H9.8V56.321H27.3Z" transform="translate(-6.578 -46.481)"/><path class="d" d="M6.614,12h7.4" transform="translate(1.555 0.888)"/><path class="d" d="M6.614,12h5.559" transform="translate(2.568 3)"/><path class="d" d="M6.614,12h7.4" transform="translate(1.555 5.112)"/></g></svg>