<svg xmlns="http://www.w3.org/2000/svg" xmlns:xlink="http://www.w3.org/1999/xlink" width="16" height="16" viewBox="0 0 16 16"><defs><style>.a,.c{fill:#fff;}.a{stroke:#707070;}.b{clip-path:url(#a);}</style><clipPath id="a"><rect class="a" width="16" height="16" transform="translate(1610 22)"/></clipPath></defs><g class="b" transform="translate(-1610 -22)"><g transform="translate(1435.207 -51.235)"><path class="c" d="M188.47,87.805V76.564a.429.429,0,0,0-.43-.43h-.914v-1.47a.429.429,0,0,0-.43-.43h-8.2a1.381,1.381,0,0,0-1.379,1.379h0V86.855h0a1.381,1.381,0,0,0,1.379,1.379h9.546a.429.429,0,0,0,.43-.43Zm-9.975-12.711h7.773v1.041h-7.773a.52.52,0,0,1,0-1.041Zm-.52,11.761h0V76.891a1.369,1.369,0,0,0,.52.1h9.116V87.376h-9.116a.521.521,0,0,1-.52-.521Z"/><path class="c" d="M346.706,373.679h-5.167a.43.43,0,0,0,0,.859h5.167a.43.43,0,1,0,0-.859Zm-2.489,1.947h-2.679a.43.43,0,0,0,0,.859h2.679a.43.43,0,1,0,0-.859Z" transform="translate(-161.425 -294.752)"/></g></g></svg>