<svg xmlns="http://www.w3.org/2000/svg" xmlns:xlink="http://www.w3.org/1999/xlink" width="32" height="32" viewBox="0 0 32 32"><defs><style>.a{fill:#fff;}.b{clip-path:url(#a);}.c{fill:#011f53;}</style><clipPath id="a"><rect class="a" width="30" height="30" rx="15" transform="translate(1 1)"/></clipPath></defs><path class="a" d="M16,0A16,16,0,1,1,0,16,16,16,0,0,1,16,0Z"/><g class="b"><g transform="translate(5.488 7.054)"><path class="c" d="M754.782,160.016c3.252,0,5.887-3.9,5.887-7.149a5.887,5.887,0,0,0-11.774,0C748.9,156.118,751.531,160.016,754.782,160.016Z" transform="translate(-744.269 -146.98)"/><path class="c" d="M716.839,257.363a5.093,5.093,0,0,1,2.577-4.166l2.618-1.306,1.983,6.841s.056.592,1.047.592.992-.592.992-.592v-5.579a1.3,1.3,0,0,1,1.338-1.261,1.245,1.245,0,0,1,1.293,1.261v5.579a1.316,1.316,0,0,0,1.139.7.852.852,0,0,0,.9-.7l1.942-6.841,2.622,1.307a5.091,5.091,0,0,1,2.578,4.165V259.1a2.88,2.88,0,0,1-2.88,2.88H719.719a2.88,2.88,0,0,1-2.88-2.88Z" transform="translate(-716.839 -236.752)"/></g></g></svg>