<svg xmlns="http://www.w3.org/2000/svg" xmlns:xlink="http://www.w3.org/1999/xlink" width="139.469" height="114" viewBox="0 0 139.469 114"><defs><style>.a{fill:#fc7;}.b{fill:#325fd3;}.c{filter:url(#a);}</style><filter id="a" x="6.673" y="11.571" width="132.796" height="102.429" filterUnits="userSpaceOnUse"><feOffset dy="3" input="SourceAlpha"/><feGaussianBlur stdDeviation="6" result="b"/><feFlood flood-color="#1e56a0" flood-opacity="0.588"/><feComposite operator="in" in2="b"/><feComposite in="SourceGraphic"/></filter></defs><g transform="translate(0 -120)"><path class="a" d="M62.633,137.651a3.775,3.775,0,0,1-5.338-5.338l2.669-2.669a3.775,3.775,0,0,1,5.338,5.338Zm-23.724-6.263a3.8,3.8,0,0,1-3.8-3.8v-3.8a3.8,3.8,0,0,1,7.592,0v3.8A3.8,3.8,0,0,1,38.908,131.388ZM15.184,138.6l-2.669-2.669a3.775,3.775,0,0,1,5.338-5.338l2.669,2.669a3.775,3.775,0,0,1-5.338,5.338ZM7.592,160.806H3.8a3.8,3.8,0,0,1,0-7.592h3.8a3.8,3.8,0,0,1,0,7.592Zm5.666,16.488a3.776,3.776,0,0,1,5.342,5.339L15.931,185.3a3.775,3.775,0,1,1-5.338-5.338Z"/><path class="a" d="M144.673,264.673m-24.673,0A24.673,24.673,0,1,0,144.673,240,24.673,24.673,0,0,0,120,264.673Z" transform="translate(-105.765 -105.765)"/><g class="c" transform="matrix(1, 0, 0, 1, 0, 120)"><path class="b" d="M282.969,410.429H229.827A21.827,21.827,0,0,1,208,388.6c0-14.994,13-21.827,21.827-21.827h3.8c0,.277.38-22.775,22.776-22.775a22.776,22.776,0,0,1,22.776,22.775h3.8a21.827,21.827,0,0,1,0,43.653Z" transform="translate(-183.33 -317.43)"/></g></g></svg>