<svg xmlns="http://www.w3.org/2000/svg" xmlns:xlink="http://www.w3.org/1999/xlink" width="20" height="20" viewBox="0 0 20 20"><defs><style>.a{fill:#333;}.b{clip-path:url(#a);}</style><clipPath id="a"><rect class="a" width="20" height="20"/></clipPath></defs><g class="b"><path d="M103.883,107.382H101.1a.825.825,0,1,1,0-1.65h3.3a.78.78,0,0,1,.375.1,4.86,4.86,0,0,1,6.227-1.068V99.451a1.156,1.156,0,0,0-1.156-1.151h-10.9A1.158,1.158,0,0,0,97.8,99.451v12.563a1.157,1.157,0,0,0,1.615,1.061l4.613-2a4.774,4.774,0,0,1-.145-3.687Zm-2.78-5.78h6.605a.826.826,0,1,1,0,1.651H101.1a.826.826,0,1,1,0-1.651Zm0,0" transform="translate(-94.8 -95.734)"/><path d="M-15.75-133.5A4.255,4.255,0,0,1-20-137.75,4.255,4.255,0,0,1-15.75-142a4.255,4.255,0,0,1,4.25,4.25A4.255,4.255,0,0,1-15.75-133.5Zm-.816-2.8h0a1.631,1.631,0,0,0,.371.154v.437a.207.207,0,0,0,.207.207h.476a.207.207,0,0,0,.206-.207v-.437a1.651,1.651,0,0,0,.372-.155l.31.311a.2.2,0,0,0,.146.06.207.207,0,0,0,.147-.06l.337-.337a.209.209,0,0,0,0-.293l-.31-.31a1.608,1.608,0,0,0,.154-.372h.437a.207.207,0,0,0,.207-.207v-.475a.207.207,0,0,0-.207-.206h-.437a1.65,1.65,0,0,0-.155-.372l.311-.31a.209.209,0,0,0,0-.293l-.337-.337a.207.207,0,0,0-.147-.06.207.207,0,0,0-.147.06l-.31.311a1.651,1.651,0,0,0-.372-.155v-.437a.207.207,0,0,0-.207-.207h-.475a.207.207,0,0,0-.207.207v.438a1.629,1.629,0,0,0-.372.154l-.31-.31a.206.206,0,0,0-.147-.061.2.2,0,0,0-.146.061l-.337.337a.207.207,0,0,0,0,.293l.31.31a1.628,1.628,0,0,0-.154.372h-.437a.207.207,0,0,0-.207.207v.476a.207.207,0,0,0,.207.206h.438a1.607,1.607,0,0,0,.154.372l-.31.311a.2.2,0,0,0-.061.145.206.206,0,0,0,.061.147l.337.337a.207.207,0,0,0,.146.06.207.207,0,0,0,.146-.06l.309-.309Zm.816-.536a.911.911,0,0,1-.91-.91.911.911,0,0,1,.91-.91.911.911,0,0,1,.91.91A.911.911,0,0,1-15.75-136.84Zm0-1.435a.525.525,0,0,0-.525.525.525.525,0,0,0,.525.525.525.525,0,0,0,.525-.525A.525.525,0,0,0-15.75-138.274Z" transform="translate(29.432 151)"/></g></svg>