<svg xmlns="http://www.w3.org/2000/svg" xmlns:xlink="http://www.w3.org/1999/xlink" width="32" height="32" viewBox="0 0 32 32"><defs><style>.a,.d{fill:#fff;}.a{stroke:#707070;}.b{fill:#1e56a0;}.c{clip-path:url(#a);}</style><clipPath id="a"><rect class="a" width="26" height="26" transform="translate(-0.035 -0.035)"/></clipPath></defs><g transform="translate(-272 -277)"><circle class="b" cx="16" cy="16" r="16" transform="translate(272 277)"/><g transform="translate(275.035 280.534)"><g class="c"><g transform="translate(3.619 2.907)"><path class="d" d="M320,321m.713,0h5.7a.63.63,0,0,1,.713.713h0a.63.63,0,0,1-.713.713h-5.7a.63.63,0,0,1-.713-.713h0A.63.63,0,0,1,320.713,321Z" transform="translate(-315.643 -315.195)"/><path class="d" d="M320.744,320.95h5.7a.794.794,0,1,1,0,1.587h-5.7a.794.794,0,1,1,0-1.587Zm5.7,1.425a.632.632,0,1,0,0-1.263h-5.7a.632.632,0,1,0,0,1.263Z" transform="translate(-315.674 -315.226)"/><path class="d" d="M320,513m.713,0h2.851a.63.63,0,0,1,.713.713h0a.63.63,0,0,1-.713.713h-2.851a.63.63,0,0,1-.713-.713h0A.63.63,0,0,1,320.713,513Z" transform="translate(-315.643 -502.919)"/><path class="d" d="M320.744,512.95h2.851a.794.794,0,1,1,0,1.587h-2.851a.794.794,0,1,1,0-1.587Zm2.851,1.425a.632.632,0,0,0,0-1.263h-2.851a.632.632,0,1,0,0,1.263Z" transform="translate(-315.674 -502.95)"/><path class="d" d="M516.963,521.955a4.989,4.989,0,1,1,3.527-1.461A4.989,4.989,0,0,1,516.963,521.955Zm0-8.552a3.564,3.564,0,1,0,3.563,3.563A3.568,3.568,0,0,0,516.963,513.4Z" transform="translate(-503.341 -501.919)"/><path class="d" d="M517.007,522.067h-.014a5.053,5.053,0,1,1,.014,0Zm-.015-9.978a4.908,4.908,0,0,0,0,9.816h.013a4.908,4.908,0,0,0-.015-9.816Zm0,8.553A3.645,3.645,0,1,1,520.638,517,3.649,3.649,0,0,1,516.994,520.642Zm0-7.127A3.482,3.482,0,1,0,520.476,517,3.486,3.486,0,0,0,516.994,513.515Z" transform="translate(-503.371 -501.95)"/><path class="d" d="M626.095,675.578a1.43,1.43,0,0,1-1.008-.417l-.881-.881a.713.713,0,0,1,1.008-1.008l.881.881,1.637-1.91a.713.713,0,1,1,1.082.928l-1.637,1.91a1.431,1.431,0,0,1-1.028.5Z" transform="translate(-612.869 -658.372)"/><path class="d" d="M626.126,675.69h0a1.5,1.5,0,0,1-1.065-.441l-.881-.881a.794.794,0,1,1,1.123-1.122l.819.819,1.58-1.844a.794.794,0,1,1,1.205,1.033l-1.637,1.91a1.517,1.517,0,0,1-1.086.525Zm-1.386-2.515a.632.632,0,0,0-.447,1.078l.881.881a1.34,1.34,0,0,0,.951.394h.051a1.354,1.354,0,0,0,.969-.469l1.637-1.91a.632.632,0,0,0-.959-.823l-1.637,1.91a.078.078,0,0,1-.062.028.081.081,0,0,1-.057-.024l-.881-.881A.628.628,0,0,0,624.74,673.175Z" transform="translate(-612.899 -658.403)"/><path class="d" d="M135.836,83.956h-4.273A3.568,3.568,0,0,1,128,80.392V67.563A3.568,3.568,0,0,1,131.563,64h8.552a3.568,3.568,0,0,1,3.563,3.563v4.267a.713.713,0,0,1-1.425,0V67.563a2.141,2.141,0,0,0-2.138-2.138h-8.552a2.141,2.141,0,0,0-2.138,2.138V80.392a2.141,2.141,0,0,0,2.138,2.138h4.273a.713.713,0,1,1,0,1.425Z" transform="translate(-127.919 -63.919)"/><path class="d" d="M135.867,84.068h-4.273a3.649,3.649,0,0,1-3.645-3.645V67.595a3.649,3.649,0,0,1,3.645-3.645h8.552a3.649,3.649,0,0,1,3.645,3.645v4.267a.794.794,0,0,1-1.587,0V67.595a2.063,2.063,0,0,0-2.057-2.057h-8.552a2.063,2.063,0,0,0-2.057,2.057V80.423a2.063,2.063,0,0,0,2.057,2.057h4.272a.794.794,0,1,1,0,1.587Zm-4.273-19.956a3.486,3.486,0,0,0-3.482,3.482V80.423a3.486,3.486,0,0,0,3.482,3.482h4.273a.632.632,0,1,0,0-1.263h-4.273a2.225,2.225,0,0,1-2.219-2.219V67.595a2.225,2.225,0,0,1,2.219-2.219h8.552a2.225,2.225,0,0,1,2.219,2.219v4.267a.632.632,0,0,0,1.263,0V67.595a3.486,3.486,0,0,0-3.482-3.482Z" transform="translate(-127.95 -63.95)"/></g></g></g></g></svg>