<svg xmlns="http://www.w3.org/2000/svg" xmlns:xlink="http://www.w3.org/1999/xlink" width="32" height="32" viewBox="0 0 32 32"><defs><style>.a,.d{fill:#fff;}.a{stroke:#707070;}.b{fill:#1e56a0;}.c{clip-path:url(#a);}</style><clipPath id="a"><rect class="a" width="24" height="24" transform="translate(0.487 0.487)"/></clipPath></defs><g transform="translate(-272 -277)"><circle class="b" cx="16" cy="16" r="16" transform="translate(272 277)"/><g transform="translate(275.513 281.013)"><g class="c"><g transform="translate(3.177 3.147)"><path class="d" d="M72.5,80.467a.655.655,0,0,0,.639-.8L72.783,78.1h5.793a3.943,3.943,0,0,0,3.932-3.932V66.032A3.943,3.943,0,0,0,78.576,62.1H68.132A3.943,3.943,0,0,0,64.2,66.032v8.132A3.943,3.943,0,0,0,68.132,78.1h.487l3.528,2.267A.655.655,0,0,0,72.5,80.467Zm6.074-17.057A2.624,2.624,0,0,1,81.2,66.032v8.132a2.624,2.624,0,0,1-2.621,2.621H71.961a.655.655,0,0,0-.639.8l.184.807-2.341-1.5a.663.663,0,0,0-.354-.1h-.68a2.624,2.624,0,0,1-2.621-2.621V66.032a2.624,2.624,0,0,1,2.621-2.621Z" transform="translate(-64.044 -61.944)"/><path class="d" d="M72.558,80.679a.811.811,0,0,1-.439-.129l-3.49-2.242h-.442A4.1,4.1,0,0,1,64.1,74.22V66.088A4.1,4.1,0,0,1,68.188,62H78.632a4.1,4.1,0,0,1,4.088,4.088V74.22a4.1,4.1,0,0,1-4.088,4.088h-5.6l.315,1.38a.811.811,0,0,1-.791.992Zm-4.37-18.367a3.787,3.787,0,0,0-3.776,3.776V74.22A3.787,3.787,0,0,0,68.188,78h.487a.156.156,0,0,1,.084.025l3.528,2.267a.51.51,0,0,0,.556-.01.5.5,0,0,0,.2-.52l-.358-1.571A.156.156,0,0,1,72.839,78h5.793a3.787,3.787,0,0,0,3.776-3.776V66.088a3.787,3.787,0,0,0-3.776-3.776ZM71.563,78.6a.156.156,0,0,1-.084-.025l-2.341-1.5a.5.5,0,0,0-.27-.08h-.68a2.78,2.78,0,0,1-2.777-2.777V66.088a2.78,2.78,0,0,1,2.777-2.777H78.632a2.78,2.78,0,0,1,2.777,2.777V74.22A2.78,2.78,0,0,1,78.632,77H72.017a.5.5,0,0,0-.487.611l.184.806a.156.156,0,0,1-.152.191ZM68.188,63.623a2.468,2.468,0,0,0-2.465,2.465V74.22a2.468,2.468,0,0,0,2.465,2.465h.68a.817.817,0,0,1,.438.129l2.02,1.3-.1-.434a.811.811,0,0,1,.791-.992h6.615A2.468,2.468,0,0,0,81.1,74.22V66.088a2.468,2.468,0,0,0-2.465-2.465Z" transform="translate(-64.1 -62)"/><path class="d" d="M287.2,251.612a9.005,9.005,0,0,1,4.03-1.843l-.911-.5a.7.7,0,0,1,.668-1.221l2.56,1.4a.7.7,0,0,1,.338.788.61.61,0,0,1-.066.166l-1.4,2.56a.7.7,0,0,1-.608.36.688.688,0,0,1-.332-.084.7.7,0,0,1-.274-.944l.68-1.235c-2.887.459-5.673,2.275-5.507,5.462a.7.7,0,0,1-.657.731h-.039a.691.691,0,0,1-.692-.657,5.919,5.919,0,0,1,.532-2.836A6.281,6.281,0,0,1,287.2,251.612Z" transform="translate(-279.962 -244.002)"/><path class="d" d="M290.706,247.864a.864.864,0,0,1,.408.1l2.561,1.405a.852.852,0,0,1,.414.965.752.752,0,0,1-.083.206l-1.4,2.555a.851.851,0,0,1-1.152.338.856.856,0,0,1-.336-1.156l.523-.949c-2.5.491-5.219,2.122-5.057,5.243a.858.858,0,0,1-.8.9h-.048a.848.848,0,0,1-.848-.806,6.076,6.076,0,0,1,.547-2.91,6.438,6.438,0,0,1,1.724-2.206,8.992,8.992,0,0,1,3.69-1.787l-.546-.3a.859.859,0,0,1-.339-1.155A.847.847,0,0,1,290.706,247.864Zm1.154,5.364a.543.543,0,0,0,.471-.279l1.405-2.56a.461.461,0,0,0,.051-.129.541.541,0,0,0-.262-.614l-2.56-1.4a.549.549,0,0,0-.259-.065.535.535,0,0,0-.472.279.546.546,0,0,0,.215.733l.911.5a.156.156,0,0,1-.045.29,8.832,8.832,0,0,0-3.96,1.81,6.127,6.127,0,0,0-1.642,2.1,5.766,5.766,0,0,0-.518,2.762.536.536,0,0,0,.536.509h.034a.545.545,0,0,0,.506-.567,4.688,4.688,0,0,1,1.661-3.879,7.966,7.966,0,0,1,3.977-1.745.156.156,0,0,1,.161.229l-.68,1.235a.543.543,0,0,0,.213.732A.534.534,0,0,0,291.86,253.228Z" transform="translate(-280.018 -244.058)"/></g></g></g></g></svg>