<svg xmlns="http://www.w3.org/2000/svg" width="32" height="32" viewBox="0 0 32 32"><defs><style>.a{fill:#1e56a0;}.b{fill:#fff;}</style></defs><g transform="translate(-272 -277)"><circle class="a" cx="16" cy="16" r="16" transform="translate(272 277)"/><g transform="translate(193.918 245.276)"><path class="b" d="M100.33,75.415h-13a2.218,2.218,0,0,1-2.166-2.266l0-13.994a2.219,2.219,0,0,1,2.166-2.267h10.11a.834.834,0,0,1,.723.855.863.863,0,0,1-.723.884l-9.809.067a.742.742,0,0,0-.721.756V72.98a.74.74,0,0,0,.722.754h12.479a.738.738,0,0,0,.722-.756V62.172a.808.808,0,0,1,.836-.716.8.8,0,0,1,.825.716l0,10.973a2.219,2.219,0,0,1-2.163,2.27Z" transform="translate(0 -18.239)"/><path class="b" d="M263.458,45.582a1,1,0,0,1,0-1.225l5.519-5.858a.888.888,0,0,1,1.188,0,1.01,1.01,0,0,1,0,1.221l-5.519,5.861A1.253,1.253,0,0,1,263.458,45.582Zm-2.4,1.618h-4.333a.814.814,0,0,1,0-1.618h4.333a.814.814,0,0,1,0,1.618Zm4.6,3.466H256.74a.812.812,0,0,1,0-1.618h8.913a.811.811,0,0,1,0,1.618Z" transform="translate(-167.369)"/></g></g></svg>