<svg xmlns="http://www.w3.org/2000/svg" xmlns:xlink="http://www.w3.org/1999/xlink" width="32" height="32" viewBox="0 0 32 32"><defs><style>.a,.d{fill:#fff;}.a{stroke:#707070;}.b{fill:#1e56a0;}.c{clip-path:url(#a);}.d{stroke:#fff;stroke-width:0.2px;}</style><clipPath id="a"><rect class="a" width="26" height="26" transform="translate(-0.082 -0.082)"/></clipPath></defs><g transform="translate(-272 -277)"><circle class="b" cx="16" cy="16" r="16" transform="translate(272 277)"/><g transform="translate(276.082 280.082)"><g class="c"><path class="d" d="M69.348,68.257h6.94a.621.621,0,0,0,.62-.62v-.124a.621.621,0,0,0-.62-.62h-6.94a.621.621,0,0,0-.62.62v.124A.621.621,0,0,0,69.348,68.257Zm-.62,2.113a.621.621,0,0,0,.62.62h6.94a.621.621,0,0,0,.62-.62v-.124a.621.621,0,0,0-.62-.62h-6.94a.621.621,0,0,0-.62.62Zm5.639,10.585a5.546,5.546,0,0,1-.4-.452H67.294a.682.682,0,0,1-.682-.682V64.8a.682.682,0,0,1,.682-.682H79.6a.682.682,0,0,1,.682.682v7.243a5.414,5.414,0,0,1,1.363.806V64.8A2.047,2.047,0,0,0,79.6,62.759H67.294A2.047,2.047,0,0,0,65.249,64.8V79.821a2.047,2.047,0,0,0,2.045,2.045h8.277A5.478,5.478,0,0,1,74.368,80.955Zm7.369-1.292-1.03-1.03a3.411,3.411,0,1,0-.959.968l1.025,1.025a.684.684,0,0,0,.964,0h0A.684.684,0,0,0,81.737,79.663Zm-5.925-2.895a2.045,2.045,0,1,1,2.045,2.045A2.047,2.047,0,0,1,75.811,76.769Z" transform="translate(-61.384 -59.038)"/></g></g></g></svg>