<svg xmlns="http://www.w3.org/2000/svg" xmlns:xlink="http://www.w3.org/1999/xlink" width="16" height="16" viewBox="0 0 16 16"><defs><style>.a,.c{fill:#fff;}.a{stroke:#707070;}.b{clip-path:url(#a);}</style><clipPath id="a"><rect class="a" width="16" height="16" transform="translate(249 20)"/></clipPath></defs><g class="b" transform="translate(-249 -20)"><g transform="translate(250.303 11.433)"><path class="c" d="M12.933,10H.461A.461.461,0,0,0,0,10.461v8.86a.461.461,0,0,0,.461.461H6.236V22.21H3.209a.462.462,0,0,0,0,.923h6.977a.461.461,0,0,0,0-.923H7.159V19.783h5.774a.461.461,0,0,0,.461-.461v-8.86A.461.461,0,0,0,12.933,10Zm-.461,8.86H.923V10.923H12.471V18.86Z"/><path class="c" d="M182.319,151.8v2.527a.461.461,0,0,0,.923,0V151.8a1.085,1.085,0,0,0,0-1.969v-.737a.461.461,0,1,0-.923,0v.737a1.085,1.085,0,0,0,0,1.969Zm3.23,1.846v.681a.461.461,0,0,0,.923,0v-.681a1.085,1.085,0,0,0,0-1.969v-2.583a.461.461,0,0,0-.923,0v2.583a1.085,1.085,0,0,0,0,1.969Zm3.231-1.846v2.527a.461.461,0,0,0,.923,0V151.8a1.085,1.085,0,0,0,0-1.969v-.737a.461.461,0,1,0-.923,0v.737a1.085,1.085,0,0,0,0,1.969Z" transform="translate(-179.313 -136.817)"/></g></g></svg>