<svg xmlns="http://www.w3.org/2000/svg" xmlns:xlink="http://www.w3.org/1999/xlink" width="20" height="20" viewBox="0 0 20 20"><defs><style>.a,.c{fill:#0270ff;}.a{stroke:#707070;}.b{clip-path:url(#a);}</style><clipPath id="a"><rect class="a" width="20" height="20"/></clipPath></defs><g class="b"><g transform="translate(-83.069 -126.811)"><path class="c" d="M86.262,132.852h9.63a.72.72,0,0,0,.758-.685v-1.6a.726.726,0,0,0-.758-.685h-9.63a.677.677,0,0,0-.758.685v1.6A.72.72,0,0,0,86.262,132.852Zm.841-2.284a.722.722,0,1,1,0,1.444.722.722,0,1,1,0-1.444Zm-.841,6.2h9.63a.72.72,0,0,0,.758-.685v-1.6a.726.726,0,0,0-.758-.685h-9.63a.72.72,0,0,0-.758.685v1.6A.745.745,0,0,0,86.262,136.772Zm.841-2.248a.722.722,0,0,1,0,1.444.755.755,0,0,1-.722-.722A.723.723,0,0,1,87.1,134.524Zm4.294,4.157a1.891,1.891,0,0,1,.649-1.023H86.189a.607.607,0,0,0-.649.649v4.76a.635.635,0,0,0,.649.649h3.426a3.9,3.9,0,0,1-.722-2.357A3.09,3.09,0,0,1,91.4,138.681Z" transform="translate(0 0)"/><path class="c" d="M332.537,557.05s.53-1.526-1.444-2.284a2.508,2.508,0,0,0-3.006.841,1.832,1.832,0,0,0-1.635-.384,1.324,1.324,0,0,0-.987,1.526,1.9,1.9,0,0,0-2.394,1.9,2.133,2.133,0,0,0,1.526,2.211h7.921a1.736,1.736,0,0,0,1.444-1.827A1.916,1.916,0,0,0,332.537,557.05Z" transform="translate(-233.329 -417.117)"/></g></g></svg>