<svg xmlns="http://www.w3.org/2000/svg" xmlns:xlink="http://www.w3.org/1999/xlink" width="24" height="24" viewBox="0 0 24 24"><defs><style>.a,.c{fill:#333;}.a{stroke:#707070;}.b{clip-path:url(#a);}.d{fill:#0270ff;stroke:#0270ff;stroke-width:0.5px;}</style><clipPath id="a"><rect class="a" width="24" height="24"/></clipPath></defs><g class="b"><g transform="translate(-95.166 -61.918)"><path class="c" d="M238.664,270.828a.664.664,0,1,1,0-1.328h10.8a.664.664,0,0,1,0,1.328Zm0,4.7a.664.664,0,1,1,0-1.328h8.191a.664.664,0,0,1,0,1.328Zm0,4.7a.664.664,0,1,1,0-1.328h5.313a.664.664,0,1,1,0,1.328Z" transform="translate(-136.901 -200.95)"/><path class="c" d="M106.833,82.508a.664.664,0,1,1,0,1.328H99.993A1.992,1.992,0,0,1,98,81.844V65.993A1.993,1.993,0,0,1,99.993,64h14.346a1.992,1.992,0,0,1,1.993,1.993l-.024,8.025a.664.664,0,0,1-1.328,0L115,65.993a.664.664,0,0,0-.664-.664H99.993a.664.664,0,0,0-.664.664V81.844a.664.664,0,0,0,.664.664Z"/><path class="d" d="M45.458,128.727h3.489a.364.364,0,0,0,0-.727H45.458a.364.364,0,0,0,0,.727Zm3.489,2.182H45.458a.364.364,0,0,0,0,.727h3.489a.364.364,0,0,0,0-.727Zm0,3.273H45.458a.364.364,0,0,0,0,.727h3.489a.364.364,0,0,0,0-.727ZM43.757,128H43.03a.364.364,0,1,0,0,.727h.727a.364.364,0,1,0,0-.727Zm0,2.909H43.03a.364.364,0,1,0,0,.727h.727a.364.364,0,0,0,0-.727Zm0,3.273H43.03a.364.364,0,1,0,0,.727h.727a.364.364,0,0,0,0-.727Z" transform="translate(66.832 -51.203)"/></g></g></svg>