<svg xmlns="http://www.w3.org/2000/svg" xmlns:xlink="http://www.w3.org/1999/xlink" width="16" height="16" viewBox="0 0 16 16"><defs><style>.a{fill:#fff;stroke:#707070;}.b{clip-path:url(#a);}.c{fill:none;}.d,.e{stroke:none;}.e{fill:#fff;}</style><clipPath id="a"><rect class="a" width="16" height="16" transform="translate(249 20)"/></clipPath></defs><g class="b" transform="translate(-249 -20)"><g class="c" transform="translate(91.346 -43.254)"><path class="d" d="M170.995,65.768h-3.6a1.818,1.818,0,0,0-3.491,0h-3.6a.335.335,0,0,0-.3.34V77.493a.335.335,0,0,0,.324.345h10.68a.335.335,0,0,0,.324-.345V66.113A.335.335,0,0,0,170.995,65.768Zm-5.34-.021a.654.654,0,0,1,.633.675.633.633,0,1,1-1.267,0A.654.654,0,0,1,165.654,65.747Zm-2.23,7.385s-1.061,0-1.7-1.447a7.482,7.482,0,0,1-.345-2.3,3.45,3.45,0,0,0,1.133-.129,2.415,2.415,0,0,0,.922-.515,2.225,2.225,0,0,0,.994.515,2.436,2.436,0,0,0,1.056.108,11.2,11.2,0,0,1-.345,2.292A2.137,2.137,0,0,1,163.425,73.132Zm6.411,2.1a.335.335,0,0,1-.324.345H165.69a.345.345,0,1,1,0-.69h3.826A.335.335,0,0,1,169.836,75.228Zm-.324-1.329h-2.827a.348.348,0,0,1,0-.7h2.827a.345.345,0,1,1,0,.69Zm.324-2.019a.335.335,0,0,1-.324.345h-2.178a.345.345,0,0,1,0-.69h2.178A.335.335,0,0,1,169.836,71.88Zm0-1.674a.335.335,0,0,1-.324.345h-1.545a.345.345,0,1,1,0-.69h1.545A.335.335,0,0,1,169.836,70.207Z"/><path class="e" d="M 165.6440887451172 64.45687866210938 C 164.8353424072266 64.45687866210938 164.1238708496094 64.99117279052734 163.8983612060547 65.767822265625 L 160.2936248779297 65.767822265625 C 160.1189422607422 65.78398895263672 159.9863586425781 65.93228912353516 159.9898071289062 66.10769653320312 L 159.9898071289062 77.49349212646484 C 159.9840393066406 77.67838287353516 160.1293334960938 77.83290863037109 160.3142395019531 77.83850860595703 L 170.9945220947266 77.83850860595703 C 171.1794281005859 77.83290863037109 171.3247222900391 77.67838287353516 171.3189392089844 77.49349212646484 L 171.3189392089844 66.11284637451172 C 171.3247222900391 65.92796325683594 171.1794281005859 65.77342987060547 170.9945220947266 65.767822265625 L 167.3898010253906 65.767822265625 C 167.164306640625 64.99117279052734 166.4528045654297 64.45687866210938 165.6440887451172 64.45687866210938 M 165.6543884277344 67.05522918701172 C 165.3045654296875 67.05522918701172 165.0209808349609 66.77163696289062 165.0209808349609 66.42182922363281 C 165.0094146728516 66.06056213378906 165.2931060791016 65.75843048095703 165.6543884277344 65.74723052978516 C 166.0156555175781 65.75843048095703 166.2993316650391 66.06056213378906 166.2877807617188 66.42182922363281 C 166.2877807617188 66.77163696289062 166.0041961669922 67.05522918701172 165.6543884277344 67.05522918701172 M 165.1988677978516 69.38420104980469 C 165.2940826416016 69.38420104980469 165.3894348144531 69.37861633300781 165.4844360351562 69.36740112304688 C 165.448974609375 70.14113616943359 165.3333435058594 70.90911102294922 165.1394195556641 71.65896606445312 C 164.8954772949219 72.43678283691406 164.2303161621094 73.008056640625 163.4246063232422 73.13176727294922 C 163.4246063232422 73.13176727294922 162.3637847900391 73.13176727294922 161.7252197265625 71.68472290039062 C 161.4913787841797 70.94178009033203 161.3749694824219 70.1668701171875 161.3802032470703 69.38800048828125 C 161.7623138427734 69.40821838378906 162.1452331542969 69.36471557617188 162.5131225585938 69.25926208496094 C 162.8545989990234 69.15769195556641 163.1693878173828 68.98182678222656 163.4348907470703 68.74430084228516 C 163.7168884277344 68.99785614013672 164.0590057373047 69.17513275146484 164.4287719726562 69.25926208496094 C 164.6776885986328 69.34220123291016 164.9377593994141 69.38420104980469 165.1988677978516 69.38420104980469 M 169.5114288330078 70.55181121826172 L 167.966552734375 70.55181121826172 C 167.7760009765625 70.55181121826172 167.6215209960938 70.3973388671875 167.6215209960938 70.206787109375 C 167.6215209960938 70.01624298095703 167.7760009765625 69.86176300048828 167.966552734375 69.86176300048828 L 169.5114288330078 69.86176300048828 C 169.6963348388672 69.86736297607422 169.8416290283203 70.02189636230469 169.8358612060547 70.206787109375 C 169.8416290283203 70.39169311523438 169.6963348388672 70.54621124267578 169.5114288330078 70.55181121826172 M 169.5114288330078 72.22544097900391 L 167.3331451416016 72.22544097900391 C 167.1425933837891 72.22544097900391 166.9881286621094 72.07096099853516 166.9881286621094 71.88040924072266 C 166.9881286621094 71.68985748291016 167.1425933837891 71.53539276123047 167.3331451416016 71.53539276123047 L 169.5114288330078 71.53539276123047 C 169.6963348388672 71.54099273681641 169.8416290283203 71.69551086425781 169.8358612060547 71.88040924072266 C 169.8416290283203 72.0653076171875 169.6963348388672 72.21983337402344 169.5114288330078 72.22544097900391 M 169.5114288330078 73.89906311035156 L 166.6842956542969 73.89906311035156 C 166.4923248291016 73.89906311035156 166.3367004394531 73.74343109130859 166.3367004394531 73.55145263671875 C 166.3367004394531 73.35948181152344 166.4923248291016 73.203857421875 166.6842956542969 73.203857421875 L 169.5114288330078 73.203857421875 C 169.7019958496094 73.203857421875 169.8564605712891 73.35832977294922 169.8564605712891 73.54888916015625 C 169.8564605712891 73.73943328857422 169.7019958496094 73.89391326904297 169.5114288330078 73.89391326904297 L 169.5114288330078 73.89906311035156 M 169.5114288330078 75.57269287109375 L 165.6904296875 75.57269287109375 C 165.4998779296875 75.57269287109375 165.3453979492188 75.418212890625 165.3453979492188 75.22765350341797 C 165.3453979492188 75.03710174560547 165.4998779296875 74.88263702392578 165.6904296875 74.88263702392578 L 169.5165863037109 74.88263702392578 C 169.6994476318359 74.8909912109375 169.8416900634766 75.04469299316406 169.8358612060547 75.22765350341797 C 169.8416290283203 75.41255950927734 169.6963348388672 75.56707763671875 169.5114288330078 75.57269287109375 M 165.6440887451172 63.45687866210938 C 166.6204071044922 63.45687866210938 167.5149688720703 63.97000122070312 168.0235443115234 64.767822265625 L 171.0248413085938 64.76828002929688 C 171.3814239501953 64.77909851074219 171.71240234375 64.92819213867188 171.9567718505859 65.18810272216797 C 172.1964263916016 65.44297790527344 172.3245849609375 65.77443695068359 172.3189392089844 66.12344360351562 L 172.3189392089844 77.48289489746094 C 172.3245849609375 77.83190155029297 172.1964263916016 78.16336822509766 171.9567718505859 78.41825103759766 C 171.7123718261719 78.67816162109375 171.3813934326172 78.82725524902344 171.0247955322266 78.83805084228516 L 170.9945220947266 78.83850860595703 L 160.2839660644531 78.83805084228516 C 159.9273681640625 78.82725524902344 159.5963897705078 78.67816925048828 159.3520050048828 78.41825103759766 C 159.1123657226562 78.16340637207031 158.9841918945312 77.83199310302734 158.9898071289062 77.48302459716797 L 158.9898071289062 66.11454772949219 C 158.9828796386719 65.42426300048828 159.5127258300781 64.83582305908203 160.2014617919922 64.77207946777344 L 160.2474517822266 64.767822265625 L 163.2646179199219 64.767822265625 C 163.7732086181641 63.97001647949219 164.6677856445312 63.45687866210938 165.6440887451172 63.45687866210938 Z M 164.1588439941406 70.22301483154297 C 163.9086761474609 70.16201782226562 163.6669311523438 70.07108306884766 163.4391937255859 69.95310211181641 C 163.2349090576172 70.06278991699219 163.0196685791016 70.15189361572266 162.7982177734375 70.21775817871094 L 162.7886657714844 70.22055053710938 C 162.6729125976562 70.25372314453125 162.5560150146484 70.28215789794922 162.438232421875 70.30580139160156 C 162.4849548339844 70.65186309814453 162.5596923828125 70.99396514892578 162.6620483398438 71.32948303222656 C 162.9312286376953 71.90964508056641 163.2523193359375 72.07183837890625 163.397705078125 72.11678314208984 C 163.7602844238281 72.01769256591797 164.0577697753906 71.74036407470703 164.1784362792969 71.38070678710938 C 164.2702789306641 71.02140808105469 164.3425140380859 70.65654754638672 164.3947448730469 70.28882598876953 C 164.3155059814453 70.26972961425781 164.2368011474609 70.24777984619141 164.1588439941406 70.22301483154297 Z"/></g></g></svg>