<svg xmlns="http://www.w3.org/2000/svg" xmlns:xlink="http://www.w3.org/1999/xlink" width="20" height="20" viewBox="0 0 20 20"><defs><style>.a{fill:#333;stroke:#707070;}.b{clip-path:url(#a);}</style><clipPath id="a"><rect class="a" width="20" height="20"/></clipPath></defs><g class="b"><path d="M47.152,116.9a3.3,3.3,0,1,0,3.3-3.3A3.3,3.3,0,0,0,47.152,116.9Zm12.195,6.67a1.213,1.213,0,0,1-.444-1.657.545.545,0,0,1,.055-.084,3.05,3.05,0,0,0-.944-.627l0,0a1.164,1.164,0,0,1-.4.382,1.211,1.211,0,0,1-1.657-.443.76.76,0,0,1-.046-.091,3.1,3.1,0,0,0-1.012.493l0,0a1.2,1.2,0,0,1,.131.547,1.212,1.212,0,0,1-1.212,1.212.913.913,0,0,1-.1-.005h-.005a3.124,3.124,0,0,0-.1.777,3.313,3.313,0,0,0,.019.349,1.168,1.168,0,0,1,.54.16,1.214,1.214,0,0,1,.445,1.657.884.884,0,0,1-.055.084,3.133,3.133,0,0,0,.933.633,1.232,1.232,0,0,1,.409-.388,1.215,1.215,0,0,1,1.657.445.758.758,0,0,1,.046.091,3.008,3.008,0,0,0,1.011-.469l.005-.005a1.294,1.294,0,0,1-.132-.569,1.21,1.21,0,0,1,1.212-1.212q.052,0,.1.005a3.148,3.148,0,0,0,.1-.779,3.313,3.313,0,0,0-.019-.349A1.14,1.14,0,0,1,59.347,123.567Zm-2.587,1.585a1.078,1.078,0,1,1,1.078-1.078A1.078,1.078,0,0,1,56.76,125.152Zm-2.68,1.664-.418-.411.337-.478.021-.031a.526.526,0,0,0-.2-.719.476.476,0,0,0-.222-.067l-.588-.026-.065-.586a3.863,3.863,0,0,1-.024-.426,3.8,3.8,0,0,1,.119-.949l.138-.517h.566l.033,0a.207.207,0,0,0,.033,0,.525.525,0,0,0,.524-.524.507.507,0,0,0-.055-.232l-.254-.5a6.777,6.777,0,0,0-1.573-.641l-1.776,2.879-2.01-2.819a6.886,6.886,0,0,0-4.868,6.345H54.432A3.9,3.9,0,0,1,54.08,126.816Z" transform="translate(-41.853 -110.359)"/></g></svg>