<svg xmlns="http://www.w3.org/2000/svg" xmlns:xlink="http://www.w3.org/1999/xlink" width="24" height="24" viewBox="0 0 24 24"><defs><style>.a,.c{fill:#333;}.a{stroke:#707070;}.b{clip-path:url(#a);}.d{fill:#0270ff;stroke:#0270ff;stroke-width:0.5px;}</style><clipPath id="a"><rect class="a" width="24" height="24"/></clipPath></defs><g class="b"><g transform="translate(-95.166 -61.918)"><path class="c" d="M238.664,270.828a.664.664,0,1,1,0-1.328h10.8a.664.664,0,0,1,0,1.328Zm0,4.7a.664.664,0,1,1,0-1.328h8.191a.664.664,0,0,1,0,1.328Zm0,4.7a.664.664,0,1,1,0-1.328h5.313a.664.664,0,1,1,0,1.328Z" transform="translate(-136.901 -200.95)"/><path class="c" d="M106.833,82.508a.664.664,0,1,1,0,1.328H99.993A1.992,1.992,0,0,1,98,81.844V65.993A1.993,1.993,0,0,1,99.993,64h14.346a1.992,1.992,0,0,1,1.993,1.993v5.285a.664.664,0,0,1-1.328,0V65.993a.664.664,0,0,0-.664-.664H99.993a.664.664,0,0,0-.664.664V81.844a.664.664,0,0,0,.664.664Z"/><path class="d" d="M101.879,100.686a2.556,2.556,0,1,0-2.813,0A4.2,4.2,0,0,0,96,104.626a.319.319,0,1,0,.639,0,3.848,3.848,0,0,1,7.668,0,.319.319,0,1,0,.639,0A4.2,4.2,0,0,0,101.879,100.686Zm-3.323-2.13a1.917,1.917,0,1,1,1.917,1.917A1.919,1.919,0,0,1,98.556,98.556Z" transform="translate(12.76 -21.185)"/></g></g></svg>