<svg xmlns="http://www.w3.org/2000/svg" xmlns:xlink="http://www.w3.org/1999/xlink" width="20" height="20" viewBox="0 0 20 20"><defs><style>.a,.c{fill:#359000;}.a{stroke:#707070;}.b{clip-path:url(#a);}</style><clipPath id="a"><rect class="a" width="20" height="20"/></clipPath></defs><g class="b"><g transform="translate(-0.629 -2.402)"><g transform="translate(5.629 4.864)"><g transform="translate(0 0)"><g transform="translate(0.46)"><path class="c" d="M18.388,5.173,17.2,7.742l.5.23,5.591,2.584a1.639,1.639,0,0,1,2.056-.59l2.294,1.061.783.363,1.361-1.533L19.094,4.913A.531.531,0,0,0,18.388,5.173ZM23.1,8.142a.248.248,0,0,1-.228.145.265.265,0,0,1-.105-.023L19.116,6.577a.251.251,0,0,1,.21-.455L22.978,7.81A.253.253,0,0,1,23.1,8.142Zm1.248.578a.248.248,0,0,1-.228.145.265.265,0,0,1-.105-.023l-.233-.108a.251.251,0,0,1,.21-.455l.233.108A.252.252,0,0,1,24.349,8.72Z" transform="translate(-17.112 -4.864)"/><path class="c" d="M27.166,22.164l-.961,2.081L16.85,19.92l.375-.81,5.983,2.764.235-.36A1.139,1.139,0,0,1,24.4,21a1.113,1.113,0,0,1,.473.105Z" transform="translate(-16.85 -15.547)"/><path class="c" d="M57.163,34.363c-.178.38-.41.648-.79.473l-.153-.073.638-1.383.153.073C57.393,33.628,57.341,33.978,57.163,34.363Z" transform="translate(-46.372 -26.247)"/><path class="c" d="M29.426,30.536a1.139,1.139,0,0,1-2.069-.956Z" transform="translate(-24.651 -23.398)"/></g><g transform="translate(0 10.102)"><path class="c" d="M17.351,45.25H15.01v.5h2.341a1.4,1.4,0,0,1,0-.5Z" transform="translate(-15.01 -45.25)"/></g><g transform="translate(3.474 8.126)"><path class="c" d="M29.4,37.505v.688a1.4,1.4,0,0,0-.5,0V37.35c.013.008.028.013.04.02A1.593,1.593,0,0,0,29.4,37.505Z" transform="translate(-28.9 -37.35)"/></g></g><path class="c" d="M28.091,43.535a.906.906,0,1,1-.906-.906A.9.9,0,0,1,28.091,43.535Z" transform="translate(-23.461 -33.183)"/></g><g transform="translate(2.5 10.489)"><path class="c" d="M2.75,36.8a.251.251,0,0,1-.25-.25V27.6a.25.25,0,1,1,.5,0v8.95A.251.251,0,0,1,2.75,36.8Z" transform="translate(-2.5 -27.35)"/></g><path class="c" d="M7.253,35.815V40.08a.635.635,0,0,1-.635.635H5.5V35.18H6.618A.635.635,0,0,1,7.253,35.815Z" transform="translate(-2.25 -22.733)"/></g></g></svg>