<svg xmlns="http://www.w3.org/2000/svg" xmlns:xlink="http://www.w3.org/1999/xlink" width="16" height="16" viewBox="0 0 16 16"><defs><style>.a{fill:#fff;stroke:#707070;}.b{clip-path:url(#a);}.c{fill:#242b3a;}.d{filter:url(#b);}</style><clipPath id="a"><rect class="a" width="16" height="16" transform="translate(1740.023 96.023)"/></clipPath><filter id="b" x="-8.138" y="-5.375" width="32.276" height="32.752" filterUnits="userSpaceOnUse"><feOffset dy="3" input="SourceAlpha"/><feGaussianBlur stdDeviation="3" result="c"/><feFlood flood-opacity="0.161"/><feComposite operator="in" in2="c"/><feComposite in="SourceGraphic"/></filter></defs><g class="b" transform="translate(-1740.023 -96.023)"><g transform="translate(1744.484 101.676)"><g class="d" transform="matrix(1, 0, 0, 1, -4.46, -5.65)"><path class="c" d="M233.464,211.293a1.9,1.9,0,1,1-1.9,1.9A1.9,1.9,0,0,1,233.464,211.293Zm-6.182-4.954a2.384,2.384,0,0,0,1.528.125v3.71l2.754,1.591a2.369,2.369,0,0,0-.479,1.432v.054l-3.8-2.2v-4.717Zm12.364.475v4.241l-3.8,2.2V213.2a2.368,2.368,0,0,0-.479-1.432l2.754-1.591v-3.234a2.384,2.384,0,0,0,1.528-.125Zm-6.182-1.707,2.061,1.19v2.379l-2.062,1.189-2.06-1.19V206.3l2.061-1.189Zm5.234-2.379a1.9,1.9,0,1,1-1.9,1.9A1.9,1.9,0,0,1,238.7,202.727Zm-10.469-.476a1.9,1.9,0,1,1-1.9,1.9A1.9,1.9,0,0,1,228.229,202.251Zm5.235-1.9,3.948,2.28a2.387,2.387,0,0,0-.958,1.21l-2.99-1.727-2.885,1.665a2.375,2.375,0,0,0-.715-1.35Z" transform="translate(-225.46 -199.72)"/></g></g></g></svg>