<svg xmlns="http://www.w3.org/2000/svg" xmlns:xlink="http://www.w3.org/1999/xlink" width="24" height="24" viewBox="0 0 24 24"><defs><style>.a,.c{fill:#828282;}.a{stroke:#707070;}.b{clip-path:url(#a);}</style><clipPath id="a"><rect class="a" width="24" height="24" transform="translate(1024 501)"/></clipPath></defs><g class="b" transform="translate(-1024 -501)"><path class="c" d="M10.779,0A10.779,10.779,0,1,1,0,10.779,10.779,10.779,0,0,1,10.779,0Zm0,1.347a9.432,9.432,0,1,0,9.432,9.432,9.432,9.432,0,0,0-9.432-9.432ZM9.432,6.561a1.347,1.347,0,0,1,.748.225l4.308,2.873a1.347,1.347,0,0,1,0,2.242L10.18,14.773a1.347,1.347,0,0,1-2.1-1.124V7.909A1.347,1.347,0,0,1,9.432,6.562Zm0,1.347v5.743l4.308-2.871Z" transform="translate(1025.221 502.221)"/></g></svg>