<svg xmlns="http://www.w3.org/2000/svg" xmlns:xlink="http://www.w3.org/1999/xlink" width="24" height="24" viewBox="0 0 24 24"><defs><style>.a,.c{fill:#828282;}.a{stroke:#707070;}.b{clip-path:url(#a);}</style><clipPath id="a"><rect class="a" width="24" height="24" transform="translate(1024 501)"/></clipPath></defs><g class="b" transform="translate(-1024 -501)"><path class="c" d="M82.783,67.665,80.12,65.057a1.157,1.157,0,0,0-1.668,0l-1.964,1.955-.843.824-6.977,7a1.26,1.26,0,0,0-.321.628l-.875,4.282a.471.471,0,0,0,.554.554l4.31-.837a1.144,1.144,0,0,0,.63-.321l9.818-9.807a1.181,1.181,0,0,0,0-1.672ZM68.856,78.944l.573-2.847,2.291,2.283Zm3.838-1.226-2.636-2.6,6.43-6.457,2.667,2.634ZM80,70.451,77.351,67.83l1.964-1.961L81.952,68.5Zm3.135,5.066a.6.6,0,0,0-.6-.594.591.591,0,0,0-.592.592v6.909H65.384V65.884h8.71a.592.592,0,1,0,0-1.184h-8.71A1.191,1.191,0,0,0,64.2,65.882V82.421A1.183,1.183,0,0,0,65.384,83.6H81.946a1.183,1.183,0,0,0,1.184-1.182Z" transform="translate(962.343 438.859)"/></g></svg>