<svg xmlns="http://www.w3.org/2000/svg" xmlns:xlink="http://www.w3.org/1999/xlink" width="24" height="24" viewBox="0 0 24 24"><defs><style>.a,.c{fill:#828282;}.a{stroke:#707070;}.b{clip-path:url(#a);}</style><clipPath id="a"><rect class="a" width="24" height="24" transform="translate(1024 501)"/></clipPath></defs><g class="b" transform="translate(-1024 -501)"><path class="c" d="M93.247,63.259a.658.658,0,0,1-.658-.658V55.36a.658.658,0,1,1,1.316,0V62.6a.658.658,0,0,1-.658.658Zm-3.949,0a.658.658,0,0,1-.658-.658V55.36a.658.658,0,1,1,1.316,0V62.6a.658.658,0,0,1-.658.658Zm10.532-11.19H96.538V50.753a1.969,1.969,0,0,0-1.96-1.975h-6.6a1.977,1.977,0,0,0-1.975,1.975v1.316H82.715a.658.658,0,1,0,0,1.316H99.829a.658.658,0,1,0,0-1.316ZM87.323,50.753a.659.659,0,0,1,.658-.658h6.6a.644.644,0,0,1,.643.658v1.316h-7.9V50.753Zm8.56,16.456H86.666a1.977,1.977,0,0,1-1.975-1.975V55.35a.658.658,0,1,1,1.316,0v9.884a.659.659,0,0,0,.658.658h9.217a.658.658,0,0,0,.658-.658V55.377a.658.658,0,0,1,1.317,0v9.857a1.977,1.977,0,0,1-1.975,1.975Z" transform="translate(944.727 455.006)"/></g></svg>