<svg xmlns="http://www.w3.org/2000/svg" xmlns:xlink="http://www.w3.org/1999/xlink" width="18" height="18" viewBox="0 0 18 18"><defs><style>.a,.c{fill:#d7dee3;}.a{stroke:#707070;}.b{clip-path:url(#a);}</style><clipPath id="a"><rect class="a" width="18" height="18" transform="translate(0 0)"/></clipPath></defs><g class="b"><path class="c" d="M158.431,94.27a13.3,13.3,0,0,1-5.747-1.651.41.41,0,0,0-.181-.05.377.377,0,0,0-.181.05,13.75,13.75,0,0,1-5.787,1.651.378.378,0,0,0-.372.372v5.193a6.827,6.827,0,0,0,3.14,5.727,10.193,10.193,0,0,0,3.1,1.479.413.413,0,0,0,.181,0,10.555,10.555,0,0,0,3.09-1.5,6.839,6.839,0,0,0,3.12-5.716V94.643a.363.363,0,0,0-.362-.372Zm-2.3,4.237-3.754,3.754a.511.511,0,0,1-.362.151.478.478,0,0,1-.362-.151l-2.325-2.325a.5.5,0,0,1,.01-.725.51.51,0,0,1,.725,0l1.963,1.963,3.382-3.392a.5.5,0,0,1,.725.01.517.517,0,0,1,0,.715Z" transform="translate(-143.23 -90.811)"/></g></svg>