<svg xmlns="http://www.w3.org/2000/svg" xmlns:xlink="http://www.w3.org/1999/xlink" width="18" height="18" viewBox="0 0 18 18"><defs><style>.a,.c{fill:#d7dee3;}.a{stroke:#707070;}.b{clip-path:url(#a);}</style><clipPath id="a"><rect class="a" width="18" height="18" transform="translate(-0.099 0.089)"/></clipPath></defs><g class="b" transform="translate(0.099 -0.089)"><path class="c" d="M77.485,73.261h-.4l-.624,0H68.034V72.86s-.183-2.268,3.157-2.848c0,0,2.542-.343,2.72-1.042,0,0,.1-.078.025-.89-.153-1.729-1.284-2.542-1.742-3.2a3.057,3.057,0,0,1-.5-1.424c0-.191.08-.26.213-.383.164-.151.115-.312.084-.483a7.877,7.877,0,0,1-.016-2.338,2.265,2.265,0,0,1,.737-1.4,1.748,1.748,0,0,0,.361-.388.56.56,0,0,0,.065-.134c.054-.179-.128-.31-.092-.5.033-.171.326-.18.5-.189a9.317,9.317,0,0,1,1.2-.006c2.986.229,3.968,1.328,3.968,1.328a2.5,2.5,0,0,1,.478.968,2.332,2.332,0,0,1,.064.318,7.308,7.308,0,0,1,.064,1.633c-.014.258-.044.511-.082.766a.434.434,0,0,0,.08.364.792.792,0,0,1,.2.269.577.577,0,0,1,.022.171,3.058,3.058,0,0,1-.5,1.424c-.458.661-1.589,1.475-1.742,3.2-.072.812.025.89.025.89.178.7,2.72,1.042,2.72,1.042,3.377.626,3.157,2.848,3.157,2.848v.406H80.986l.35,0H77.485Z" transform="translate(-66.69 -56.51)"/></g></svg>