<svg xmlns="http://www.w3.org/2000/svg" xmlns:xlink="http://www.w3.org/1999/xlink" width="20" height="20" viewBox="0 0 20 20"><defs><style>.a,.c{fill:#333;}.a{stroke:#707070;}.b{clip-path:url(#a);}</style><clipPath id="a"><rect class="a" width="20" height="20"/></clipPath></defs><g class="b"><path class="c" d="M122.894,148.561h-8.9a.5.5,0,0,0,0,.986H122.9a.5.5,0,0,0,0-.986ZM124.96,135.6H111.847a.847.847,0,0,0-.847.847v9.534a.847.847,0,0,0,.847.847h13.114a.847.847,0,0,0,.847-.847v-9.534A.849.849,0,0,0,124.96,135.6Zm-1.2,3.757-3.661,3.194a.955.955,0,0,1-1.089.116l-2.391-1.327a.149.149,0,0,0-.181.028l-2.319,2.446a.581.581,0,0,1-.419.179.567.567,0,0,1-.4-.162.58.58,0,0,1-.017-.82l2.509-2.648a.953.953,0,0,1,1.15-.174l2.411,1.34a.148.148,0,0,0,.172-.018L123,138.484a.578.578,0,0,1,.818.055.581.581,0,0,1,.142.419A.567.567,0,0,1,123.763,139.357Z" transform="translate(-108.404 -132.573)"/></g></svg>