<svg xmlns="http://www.w3.org/2000/svg" xmlns:xlink="http://www.w3.org/1999/xlink" width="16" height="16" viewBox="0 0 16 16"><defs><style>.a{fill:#fff;stroke:#707070;}.b{clip-path:url(#a);}.c{fill:#242b3a;}</style><clipPath id="a"><rect class="a" width="16" height="16" transform="translate(1740.023 96.023)"/></clipPath></defs><g class="b" transform="translate(-1740.023 -96.023)"><g transform="translate(1638.469 -52.059)"><path class="c" d="M113.48,316.823a.694.694,0,0,1-.739.639h-9.6a.694.694,0,0,1-.739-.639l.812-2.427h.959l-.589,1.659c0,.353-.231.625.443.639h7.83a.694.694,0,0,0,.739-.639l3.093-8.878h1.022Z" transform="translate(0 -154.96)"/><path class="c" d="M145.82,149.661a.7.7,0,0,1,.754.639L143.26,160l0,.011a.768.768,0,0,1-.754.639h-7.841a.7.7,0,0,1-.754-.639l0-.011,3.313-9.7a.7.7,0,0,1,.754-.639h7.841Zm-4.75,4.344h-3.619l-.3.639h3.619l.3-.639Zm3.016-1.917h-6.031l-.3.767h6.031Z" transform="translate(-30.996)"/></g></g></svg>