<svg xmlns="http://www.w3.org/2000/svg" xmlns:xlink="http://www.w3.org/1999/xlink" width="20" height="20" viewBox="0 0 20 20"><defs><style>.a,.c{fill:#0270ff;}.a{stroke:#707070;}.b{clip-path:url(#a);}</style><clipPath id="a"><rect class="a" width="20" height="20"/></clipPath></defs><g class="b"><g transform="translate(-59.992 -60.694)"><path class="c" d="M62.164,67.147a.182.182,0,0,0,0,.312l7.473,4.223a.74.74,0,0,0,.7,0l7.473-4.223a.182.182,0,0,0,0-.312l-7.667-4.33a.318.318,0,0,0-.312,0Z"/><path class="c" d="M77.921,453.2l-1.576-.9-5.324,3.013a1.887,1.887,0,0,1-1.836,0L63.84,452.3l-1.576.9a.182.182,0,0,0,0,.312l7.471,4.223a.74.74,0,0,0,.7,0l7.473-4.223A.178.178,0,0,0,77.921,453.2Z" transform="translate(-0.098 -382.648)"/><path class="c" d="M77.921,647.107l-1.608-.907-5.3,2.992a1.887,1.887,0,0,1-1.836,0l-5.3-2.992-1.608.907a.182.182,0,0,0,0,.313l7.473,4.223a.74.74,0,0,0,.7,0l7.473-4.223A.179.179,0,0,0,77.921,647.107Z" transform="translate(-0.098 -573.125)"/></g></g></svg>