<svg xmlns="http://www.w3.org/2000/svg" xmlns:xlink="http://www.w3.org/1999/xlink" width="16" height="16" viewBox="0 0 16 16"><defs><style>.a,.c{fill:#fff;}.a{stroke:#707070;}.b{clip-path:url(#a);}</style><clipPath id="a"><rect class="a" width="16" height="16" transform="translate(249 20)"/></clipPath></defs><g class="b" transform="translate(-249 -20)"><g transform="translate(250.412 21.528)"><path class="c" d="M581.855,586.009l-.024-.3a.6.6,0,0,0-.426-.443H581.4l-.086-.02a.631.631,0,0,1-.428-.742l.027-.082v-.01a.606.606,0,0,0-.172-.588l-.009-.009a2.52,2.52,0,0,0-.348-.227,2.878,2.878,0,0,0-.366-.19h-.024a.612.612,0,0,0-.176-.027.6.6,0,0,0-.421.171l-.06.065a.628.628,0,0,1-.429.167.635.635,0,0,1-.432-.169l-.062-.066a.6.6,0,0,0-.421-.17.614.614,0,0,0-.176.026l-.012,0a2.678,2.678,0,0,0-.374.19,2.6,2.6,0,0,0-.351.231l-.008.008a.6.6,0,0,0-.173.588l.027.086a.635.635,0,0,1-.431.746l-.088.021a.6.6,0,0,0-.424.443v.013a3.854,3.854,0,0,0,0,.837.6.6,0,0,0,.437.458l.076.018a.636.636,0,0,1,.432.749l-.026.084a.6.6,0,0,0,.172.588l.01.009a2.507,2.507,0,0,0,.351.23,2.656,2.656,0,0,0,.372.19.531.531,0,0,0,.184.031.6.6,0,0,0,.433-.179l.053-.057a.634.634,0,0,1,.863,0l.053.057.009.009a.6.6,0,0,0,.42.17.59.59,0,0,0,.177-.027h.011a2.651,2.651,0,0,0,.38-.19,2.608,2.608,0,0,0,.349-.238l.009-.008a.6.6,0,0,0,.173-.588l-.027-.088a.632.632,0,0,1,.432-.745l.078-.023a.606.606,0,0,0,.424-.443v-.012a2.734,2.734,0,0,0,.022-.42A.745.745,0,0,0,581.855,586.009Zm-2.944.968a.836.836,0,1,1,.589-.244.836.836,0,0,1-.589.244Z" transform="translate(-568.68 -575.998)"/><path class="c" d="M1.133,8.547H5.088c.016,0,.025.008.041.008H6.812a4.083,4.083,0,0,1,3.672-2.326,3.926,3.926,0,0,1,1.027.146V5.444a.811.811,0,0,0-.809-.809H1.133A1.15,1.15,0,0,0,0,5.808V7.369A1.156,1.156,0,0,0,1.133,8.547Zm.081-2.2A.441.441,0,0,1,1.642,5.9h.57a.435.435,0,0,1,.428.445v.582a.44.44,0,0,1-.428.444h-.57a.435.435,0,0,1-.428-.444ZM6.642,9.028H5.128c-.016,0-.025.008-.041.008H1.133A1.15,1.15,0,0,0,0,10.208v1.567a1.156,1.156,0,0,0,1.133,1.168h6.2a3.941,3.941,0,0,1-.7-3.915Zm-4,2.3a.441.441,0,0,1-.428.45h-.57a.435.435,0,0,1-.428-.445v-.582a.441.441,0,0,1,.428-.445h.57a.435.435,0,0,1,.428.445Zm-1.5-7.418H10.2a1.157,1.157,0,0,0,1.14-1.173V1.173A1.156,1.156,0,0,0,10.209,0H1.133A1.15,1.15,0,0,0,0,1.173V2.734A1.155,1.155,0,0,0,1.133,3.907Zm.081-2.292a.44.44,0,0,1,.428-.444h.57a.435.435,0,0,1,.425.444V2.2a.44.44,0,0,1-.428.444h-.57A.435.435,0,0,1,1.211,2.2Z" transform="translate(0)"/></g></g></svg>