<svg xmlns="http://www.w3.org/2000/svg" xmlns:xlink="http://www.w3.org/1999/xlink" width="20" height="20" viewBox="0 0 20 20"><defs><style>.a,.c{fill:#011f53;}.a{stroke:#707070;}.b{clip-path:url(#a);}</style><clipPath id="a"><rect class="a" width="20" height="20"/></clipPath></defs><g class="b"><g transform="translate(2.1 2.239)"><path class="c" d="M583.029,586.534l-.028-.359a.723.723,0,0,0-.511-.531h-.007l-.1-.024a.756.756,0,0,1-.514-.889l.033-.1v-.011a.726.726,0,0,0-.206-.7l-.011-.01a3.021,3.021,0,0,0-.417-.272,3.458,3.458,0,0,0-.438-.228H580.8a.733.733,0,0,0-.211-.032.719.719,0,0,0-.5.2l-.072.077a.753.753,0,0,1-.515.2.762.762,0,0,1-.518-.2l-.074-.08a.718.718,0,0,0-.5-.2.737.737,0,0,0-.211.031l-.015.006a3.219,3.219,0,0,0-.449.228,3.124,3.124,0,0,0-.421.277l-.009.009a.723.723,0,0,0-.207.7l.032.1a.762.762,0,0,1-.517.9l-.106.025a.723.723,0,0,0-.508.531v.016a4.615,4.615,0,0,0,0,1,.722.722,0,0,0,.524.549l.091.022a.763.763,0,0,1,.518.9l-.031.1a.726.726,0,0,0,.206.7l.013.011a3,3,0,0,0,.421.276,3.176,3.176,0,0,0,.446.228.638.638,0,0,0,.221.038.72.72,0,0,0,.519-.215l.064-.068a.761.761,0,0,1,1.035,0l.064.068.01.01a.716.716,0,0,0,.5.2.708.708,0,0,0,.212-.032h.014a3.188,3.188,0,0,0,.456-.228,3.129,3.129,0,0,0,.418-.286l.01-.01a.724.724,0,0,0,.207-.7l-.032-.106a.758.758,0,0,1,.518-.894l.093-.027a.727.727,0,0,0,.508-.532v-.015a3.28,3.28,0,0,0,.026-.5A.9.9,0,0,0,583.029,586.534Zm-3.53,1.16a1,1,0,1,1,.706-.292,1,1,0,0,1-.706.292Z" transform="translate(-567.229 -574.529)"/><path class="c" d="M1.359,10.249H6.1c.019,0,.03.009.049.009H8.169a4.9,4.9,0,0,1,4.4-2.789,4.708,4.708,0,0,1,1.232.175V6.529a.973.973,0,0,0-.97-.97H1.359A1.379,1.379,0,0,0,0,6.965V8.837a1.386,1.386,0,0,0,1.359,1.412Zm.1-2.639a.528.528,0,0,1,.514-.534h.683a.522.522,0,0,1,.514.534v.7a.527.527,0,0,1-.514.533H1.969a.522.522,0,0,1-.514-.533Zm6.509,3.216H6.15c-.019,0-.03.009-.049.009H1.359A1.379,1.379,0,0,0,0,12.242v1.879a1.386,1.386,0,0,0,1.359,1.4H8.8a4.726,4.726,0,0,1-.834-4.7Zm-4.8,2.755a.528.528,0,0,1-.514.54H1.966a.522.522,0,0,1-.514-.534v-.7a.528.528,0,0,1,.514-.534h.683a.522.522,0,0,1,.514.534Zm-1.8-8.9H12.233A1.387,1.387,0,0,0,13.6,3.279V1.406A1.386,1.386,0,0,0,12.242,0H1.359A1.379,1.379,0,0,0,0,1.406V3.279A1.385,1.385,0,0,0,1.359,4.685Zm.1-2.749A.527.527,0,0,1,1.969,1.4h.683a.522.522,0,0,1,.51.533v.7a.527.527,0,0,1-.514.533H1.966a.522.522,0,0,1-.514-.533Z" transform="translate(0)"/></g></g></svg>