<svg xmlns="http://www.w3.org/2000/svg" xmlns:xlink="http://www.w3.org/1999/xlink" width="16" height="16" viewBox="0 0 16 16"><defs><style>.a,.c{fill:#fff;}.a{stroke:#707070;}.b{clip-path:url(#a);}</style><clipPath id="a"><rect class="a" width="16" height="16" transform="translate(249 20)"/></clipPath></defs><g class="b" transform="translate(-249 -20)"><path class="c" d="M5.572,16.535a5.915,5.915,0,0,0-1.9-.557c.023-.161.044-.32.065-.478A.542.542,0,0,0,4,15.146c.018-.147.034-.294.051-.443a.121.121,0,0,0,.077.041.128.128,0,0,0,.14-.115l.069-.683a.127.127,0,0,0-.186-.127c.015-.129.03-.258.045-.388a1.1,1.1,0,0,0-.238-.959,1.6,1.6,0,0,0-2.032,0,1.1,1.1,0,0,0-.237.959c.015.13.03.26.045.388a.126.126,0,0,0-.072-.014.129.129,0,0,0-.113.141l.069.683a.127.127,0,0,0,.139.115.119.119,0,0,0,.078-.041c.015.149.033.3.05.443a.547.547,0,0,0,.261.354q.032.236.064.477a5.945,5.945,0,0,0-1.9.557A.654.654,0,0,0,0,17.116q.034.359.071.72a.539.539,0,0,0,.39.454,15.271,15.271,0,0,0,4.96,0,.544.544,0,0,0,.39-.454c.023-.241.046-.479.069-.72A.651.651,0,0,0,5.572,16.535Zm8.258,0a5.908,5.908,0,0,0-1.9-.557c.021-.16.043-.319.066-.478a.55.55,0,0,0,.26-.354c.017-.147.034-.294.05-.443a.124.124,0,0,0,.078.041.126.126,0,0,0,.138-.115l.07-.683a.128.128,0,0,0-.113-.141.132.132,0,0,0-.073.014c.015-.129.031-.258.045-.388a1.1,1.1,0,0,0-.236-.959,1.6,1.6,0,0,0-2.033,0,1.1,1.1,0,0,0-.237.959c.014.129.027.258.044.388a.13.13,0,0,0-.075-.014.128.128,0,0,0-.111.141l.07.683a.126.126,0,0,0,.138.115.114.114,0,0,0,.078-.041c.017.149.033.3.05.443a.555.555,0,0,0,.261.354c.021.158.043.317.065.477a5.936,5.936,0,0,0-1.9.557.655.655,0,0,0-.309.582l.071.72a.541.541,0,0,0,.389.454,15.27,15.27,0,0,0,4.96,0,.542.542,0,0,0,.39-.454c.024-.241.047-.479.07-.72A.646.646,0,0,0,13.83,16.535ZM9.7,8.9a6.006,6.006,0,0,0-1.9-.557c.023-.158.044-.319.065-.478a.532.532,0,0,0,.26-.352c.018-.149.034-.3.052-.443a.135.135,0,0,0,.078.04A.126.126,0,0,0,8.395,7l.07-.683a.129.129,0,0,0-.113-.141.133.133,0,0,0-.073.015c.017-.13.032-.26.045-.39a1.093,1.093,0,0,0-.237-.958,1.593,1.593,0,0,0-2.031,0,1.1,1.1,0,0,0-.237.958c.014.13.031.26.045.39a.131.131,0,0,0-.073-.015.129.129,0,0,0-.114.141L5.745,7a.129.129,0,0,0,.138.115.132.132,0,0,0,.079-.04c.015.147.033.294.05.443a.542.542,0,0,0,.261.352l.064.478a5.992,5.992,0,0,0-1.9.558.648.648,0,0,0-.309.582c.023.239.046.48.071.72a.535.535,0,0,0,.389.453,15.2,15.2,0,0,0,4.96,0,.538.538,0,0,0,.39-.453c.024-.239.047-.48.069-.72A.655.655,0,0,0,9.7,8.9Zm-.663,5.837-1.61-.952v-1.9a.359.359,0,1,0-.717,0v1.9L5.1,14.738a.371.371,0,0,0-.13.5.356.356,0,0,0,.312.185.345.345,0,0,0,.178-.05l1.609-.951,1.61.951a.351.351,0,0,0,.49-.135A.374.374,0,0,0,9.038,14.738Z" transform="translate(249.929 16.516)"/></g></svg>