<svg xmlns="http://www.w3.org/2000/svg" xmlns:xlink="http://www.w3.org/1999/xlink" width="20" height="20" viewBox="0 0 20 20"><defs><style>.a{fill:#828282;}.b{clip-path:url(#a);}</style><clipPath id="a"><rect class="a" width="20" height="20"/></clipPath></defs><g class="b"><path class="a" d="M7.243,20.151a7.688,7.688,0,0,0-2.467-.724c.029-.21.057-.416.085-.621a.7.7,0,0,0,.337-.461c.023-.191.045-.382.066-.576a.158.158,0,0,0,.1.054.167.167,0,0,0,.182-.149l.089-.887a.165.165,0,0,0-.242-.165c.02-.168.039-.336.059-.5a1.43,1.43,0,0,0-.31-1.247,2.077,2.077,0,0,0-2.641,0,1.429,1.429,0,0,0-.308,1.247c.02.169.039.337.059.5a.164.164,0,0,0-.094-.018.167.167,0,0,0-.146.183l.089.887a.166.166,0,0,0,.18.149.155.155,0,0,0,.1-.054c.02.194.043.385.065.576a.711.711,0,0,0,.339.461q.042.307.083.619A7.727,7.727,0,0,0,.4,20.15a.849.849,0,0,0-.4.757q.044.467.092.935a.7.7,0,0,0,.507.59,19.849,19.849,0,0,0,6.447,0,.707.707,0,0,0,.507-.59c.029-.313.06-.622.089-.935A.847.847,0,0,0,7.243,20.151Zm10.733,0a7.68,7.68,0,0,0-2.465-.724c.028-.208.055-.414.086-.621a.715.715,0,0,0,.337-.461c.022-.191.045-.382.065-.576a.161.161,0,0,0,.1.054.163.163,0,0,0,.179-.149l.091-.887a.166.166,0,0,0-.146-.183.172.172,0,0,0-.1.018c.02-.168.04-.336.059-.5a1.432,1.432,0,0,0-.307-1.247,2.079,2.079,0,0,0-2.642,0,1.429,1.429,0,0,0-.308,1.247c.018.168.035.336.057.5a.169.169,0,0,0-.1-.018.166.166,0,0,0-.145.183l.091.887a.164.164,0,0,0,.179.149.148.148,0,0,0,.1-.054c.022.194.043.385.065.576a.722.722,0,0,0,.339.461c.028.2.055.411.085.619a7.716,7.716,0,0,0-2.467.724.851.851,0,0,0-.4.757q.046.467.092.935a.7.7,0,0,0,.505.59,19.849,19.849,0,0,0,6.447,0,.7.7,0,0,0,.507-.59c.031-.313.062-.622.091-.935A.84.84,0,0,0,17.976,20.151ZM12.61,10.229A7.806,7.806,0,0,0,10.143,9.5c.029-.2.057-.414.085-.621a.691.691,0,0,0,.337-.458c.023-.194.045-.385.068-.576a.176.176,0,0,0,.1.052.164.164,0,0,0,.177-.149L11,6.865a.167.167,0,0,0-.146-.183.173.173,0,0,0-.1.02c.022-.169.042-.337.059-.507a1.421,1.421,0,0,0-.308-1.245,2.071,2.071,0,0,0-2.639,0,1.426,1.426,0,0,0-.308,1.245c.018.169.04.337.059.507a.17.17,0,0,0-.1-.02.168.168,0,0,0-.148.183l.089.887a.168.168,0,0,0,.179.149.171.171,0,0,0,.1-.052c.02.191.043.382.065.576a.7.7,0,0,0,.339.458c.028.206.055.413.083.621a7.789,7.789,0,0,0-2.465.726.843.843,0,0,0-.4.757c.029.311.06.624.092.935a.7.7,0,0,0,.505.589,19.763,19.763,0,0,0,6.447,0,.7.7,0,0,0,.507-.589c.031-.311.062-.624.089-.935A.852.852,0,0,0,12.61,10.229Zm-.861,7.587L9.656,16.578V14.105a.466.466,0,1,0-.932,0v2.471L6.633,17.815a.483.483,0,0,0-.169.653.463.463,0,0,0,.405.24.448.448,0,0,0,.231-.065L9.19,17.409l2.092,1.236a.456.456,0,0,0,.636-.176A.486.486,0,0,0,11.748,17.815Z" transform="translate(0.809 -3.585)"/></g></svg>