<svg xmlns="http://www.w3.org/2000/svg" width="16" height="16" viewBox="0 0 16 16"><defs><style>.a,.b{fill:#262626;}.a{opacity:0;}</style></defs><g transform="translate(0 16) rotate(-90)"><rect class="a" width="16" height="16" transform="translate(0 0)"/><rect class="a" width="16" height="16" transform="translate(0 0)"/><path class="b" d="M10.251,11H9.043a.244.244,0,0,1-.2-.1L4.857,5.81a.5.5,0,0,1,0-.617L8.847.1a.252.252,0,0,1,.2-.1h1.2a.125.125,0,0,1,.113.071A.123.123,0,0,1,10.35.2L6.2,5.5l4.147,5.3a.125.125,0,0,1-.1.2ZM5.5,11H4.294a.245.245,0,0,1-.2-.1L.107,5.81a.5.5,0,0,1,0-.617L4.1.1A.253.253,0,0,1,4.3,0H5.5a.125.125,0,0,1,.1.2L1.453,5.5,5.6,10.8a.124.124,0,0,1,.014.132A.122.122,0,0,1,5.5,11Z" transform="translate(2.811 2.472)"/></g></svg>