<svg xmlns="http://www.w3.org/2000/svg" xmlns:xlink="http://www.w3.org/1999/xlink" width="16" height="16" viewBox="0 0 16 16"><defs><style>.a{fill:#fff;stroke:#707070;}.b{clip-path:url(#a);}.c{fill:#333;}</style><clipPath id="a"><rect class="a" width="16" height="16"/></clipPath></defs><g class="b"><g transform="translate(1.233 1.924)"><g transform="translate(1.234)"><path class="c" d="M404.653,714.518a.86.86,0,0,1-.831-.644,4.119,4.119,0,0,0-7.876-.313.86.86,0,0,1-1.624-.564,5.839,5.839,0,0,1,11.164.445.86.86,0,0,1-.833,1.076Z" transform="translate(-394.274 -709.077)"/></g><g transform="translate(9.01 3.118)"><path class="c" d="M478.756,744.752l1.4-2.575a.311.311,0,0,0-.354-.449l-3.9,1.045a.311.311,0,0,0-.082.566l2.5,1.529A.311.311,0,0,0,478.756,744.752Z" transform="translate(-475.671 -741.717)"/></g><g transform="translate(1.061 6.711)"><path class="c" d="M398.132,784.774a5.836,5.836,0,0,1-5.649-4.365.86.86,0,1,1,1.664-.432,4.119,4.119,0,0,0,7.876.313.86.86,0,1,1,1.624.564A5.842,5.842,0,0,1,398.132,784.774Z" transform="translate(-392.455 -779.332)"/></g><g transform="translate(0 5.837)"><path class="c" d="M382.791,770.342l-1.4,2.575a.311.311,0,0,0,.354.449l3.9-1.046a.311.311,0,0,0,.082-.566l-2.5-1.53A.311.311,0,0,0,382.791,770.342Z" transform="translate(-381.351 -770.179)"/></g></g></g></svg>