<?xml version="1.0" encoding="UTF-8"?>
<svg width="300px" height="300px" viewBox="0 0 300 300" version="1.1" xmlns="http://www.w3.org/2000/svg" xmlns:xlink="http://www.w3.org/1999/xlink">
    <title>暂无内容</title>
    <defs>
        <linearGradient x1="50.0018329%" y1="-7.52096042e-14%" x2="50.0018329%" y2="100%" id="linearGradient-1">
            <stop stop-color="#E8E8E8" offset="0%"></stop>
            <stop stop-color="#F8F8F8" stop-opacity="0.5" offset="60%"></stop>
            <stop stop-color="#FFFFFF" stop-opacity="0" offset="100%"></stop>
        </linearGradient>
        <linearGradient x1="50.0064447%" y1="0.0649844529%" x2="50.0064447%" y2="100.00011%" id="linearGradient-2">
            <stop stop-color="#E8E8E8" offset="0%"></stop>
            <stop stop-color="#F9F9F9" stop-opacity="0.1" offset="60%"></stop>
            <stop stop-color="#FFFFFF" stop-opacity="0" offset="100%"></stop>
        </linearGradient>
        <linearGradient x1="49.9999644%" y1="0.0119393368%" x2="49.9999644%" y2="100.000001%" id="linearGradient-3">
            <stop stop-color="#E8E8E8" offset="0%"></stop>
            <stop stop-color="#F6F6F6" stop-opacity="0.1" offset="80%"></stop>
            <stop stop-color="#FFFFFF" stop-opacity="0" offset="100%"></stop>
        </linearGradient>
        <linearGradient x1="65.8964143%" y1="53.3233267%" x2="3.55577689%" y2="40.2889096%" id="linearGradient-4">
            <stop stop-color="#E8E8E8" offset="0%"></stop>
            <stop stop-color="#F9F9F9" stop-opacity="0.1" offset="60%"></stop>
            <stop stop-color="#FFFFFF" stop-opacity="0" offset="100%"></stop>
        </linearGradient>
        <linearGradient x1="-10.5569373%" y1="47.5586266%" x2="62.2994271%" y2="48.9714296%" id="linearGradient-5">
            <stop stop-color="#F2F2F2" offset="0%"></stop>
            <stop stop-color="#E9E9E9" offset="100%"></stop>
        </linearGradient>
        <linearGradient x1="0.354261663%" y1="49.7607527%" x2="91.1504735%" y2="51.1674847%" id="linearGradient-6">
            <stop stop-color="#CAC9C6" offset="0%"></stop>
            <stop stop-color="#DEDEDE" offset="100%"></stop>
        </linearGradient>
        <linearGradient x1="70.4915502%" y1="109.861468%" x2="35.8948718%" y2="-3.10498802%" id="linearGradient-7">
            <stop stop-color="#C5C5C5" offset="0%"></stop>
            <stop stop-color="#FFFFFF" offset="100%"></stop>
        </linearGradient>
        <linearGradient x1="12.1458271%" y1="67.9884575%" x2="67.049302%" y2="43.2886146%" id="linearGradient-8">
            <stop stop-color="#E3E3E3" offset="0%"></stop>
            <stop stop-color="#D3D3D3" offset="100%"></stop>
        </linearGradient>
        <linearGradient x1="44.1048291%" y1="30.1174174%" x2="69.3014066%" y2="154.690263%" id="linearGradient-9">
            <stop stop-color="#E5E5E5" offset="0%"></stop>
            <stop stop-color="#E8E8E8" offset="100%"></stop>
        </linearGradient>
        <linearGradient x1="56.7412772%" y1="54.4733364%" x2="38.7927913%" y2="17.4307372%" id="linearGradient-10">
            <stop stop-color="#DDDDDD" offset="0%"></stop>
            <stop stop-color="#D3D3D3" offset="100%"></stop>
        </linearGradient>
        <linearGradient x1="71.811714%" y1="56.0726033%" x2="-7.36543299%" y2="41.7665504%" id="linearGradient-11">
            <stop stop-color="#EEEEEE" offset="0%"></stop>
            <stop stop-color="#DADBDA" offset="100%"></stop>
        </linearGradient>
        <linearGradient x1="21.2672392%" y1="46.4565416%" x2="120.520662%" y2="61.8094691%" id="linearGradient-12">
            <stop stop-color="#FAFAFA" offset="0%"></stop>
            <stop stop-color="#EBEBEB" offset="100%"></stop>
        </linearGradient>
        <linearGradient x1="-2.17391304%" y1="49.2663916%" x2="101.120574%" y2="49.2663916%" id="linearGradient-13">
            <stop stop-color="#DDDDDD" offset="0%"></stop>
            <stop stop-color="#C2DEFF" offset="100%"></stop>
        </linearGradient>
        <linearGradient x1="-9.98460988%" y1="47.1141222%" x2="97.9164281%" y2="57.141472%" id="linearGradient-14">
            <stop stop-color="#FFFFFF" offset="0%"></stop>
            <stop stop-color="#478FFC" offset="100%"></stop>
        </linearGradient>
        <linearGradient x1="-54.2297479%" y1="55.9028282%" x2="88.5451222%" y2="52.7615894%" id="linearGradient-15">
            <stop stop-color="#FFFFFF" offset="0%"></stop>
            <stop stop-color="#478FFC" offset="100%"></stop>
        </linearGradient>
        <linearGradient x1="159.283174%" y1="63.5707425%" x2="4.1773634%" y2="46.4632615%" id="linearGradient-16">
            <stop stop-color="#5598FC" offset="0%"></stop>
            <stop stop-color="#478FFC" offset="100%"></stop>
        </linearGradient>
        <linearGradient x1="0.693241314%" y1="70.8743122%" x2="106.896478%" y2="46.5895753%" id="linearGradient-17">
            <stop stop-color="#FFFFFF" offset="0%"></stop>
            <stop stop-color="#478FFC" offset="100%"></stop>
        </linearGradient>
    </defs>
    <g id="Templates-模板页面" stroke="none" stroke-width="1" fill="none" fill-rule="evenodd">
        <g id="图片imgs" transform="translate(-744.000000, -906.000000)">
            <g id="暂无内容" transform="translate(744.000000, 906.000000)">
                <g id="绘图区" opacity="0.1" fill="#FFFFFF" fill-rule="nonzero">
                    <rect id="矩形" opacity="0" x="0" y="0" width="300" height="300"></rect>
                </g>
                <g id="装饰" transform="translate(15.000000, 42.000000)" fill-rule="nonzero">
                    <path d="M273.35,224.41 C273.35,213.97 212.28,186.62 136.96,186.62 C61.64,186.62 0.56,214 0.56,224.41 L273.35,224.41 Z" id="路径" fill="url(#linearGradient-1)"></path>
                    <path d="M138.47,39.75 C138.460665,31.164075 131.584376,24.163329 123,24 C124.661734,16.0944891 120.319103,8.15628806 112.765683,5.2919714 C105.212263,2.42765475 96.6979814,5.49041265 92.7,12.51 C89.1519376,10.9588306 85.1245111,10.92282 81.5492791,12.4102977 C77.9740471,13.8977755 75.1607089,16.7798908 73.76,20.39 C72.8464969,20.2515099 71.9239403,20.1813154 71,20.18 C62.4840848,20.1583091 54.9317107,25.6461896 52.3218445,33.7523528 C49.7119784,41.8585159 52.6438094,50.7218987 59.5727029,55.6728296 C66.5015965,60.6237604 75.8367744,60.5255741 82.66,55.43 L121,55.43 C121.557955,55.4904315 122.118783,55.5204758 122.68,55.52 C123.244543,55.5204647 123.808699,55.4904209 124.37,55.43 L124.37,55.43 C132.387238,54.5761955 138.47,47.8125733 138.47,39.75 L138.47,39.75 Z" id="路径" fill="url(#linearGradient-2)"></path>
                    <path d="M240.370004,46.32 C240.370004,34.479015 230.770985,24.88 218.93,24.88 C217.434422,24.8826859 215.94314,25.0401921 214.48,25.35 C212.303406,12.9429872 202.700668,3.16349076 190.335414,0.760984585 C177.970161,-1.64152159 165.404093,3.83068783 158.74,14.52 C157.696931,14.3673768 156.644176,14.290509 155.59,14.29 C146.996812,14.2887504 139.160339,19.203544 135.42,26.94 C134.69,26.87 133.95,26.83 133.2,26.83 C123.40057,26.8263763 114.717392,33.1438669 111.705,42.4687981 C108.692608,51.7937293 112.038721,61.9972476 119.988224,67.7273656 C127.937727,73.4574836 138.675772,73.4060326 146.57,67.6 L216.28,67.6 C217.159543,67.7040031 218.044333,67.7574243 218.93,67.76 C219.80236,67.7571294 220.673821,67.7037065 221.54,67.6 L221.65,67.6 L221.65,67.6 C232.35721,66.2305595 240.376664,57.1144273 240.370004,46.32 Z" id="路径" fill="url(#linearGradient-3)"></path>
                </g>
                <g transform="translate(33.000000, 91.000000)">
                    <polygon id="矩形" fill="url(#linearGradient-4)" fill-rule="nonzero" points="0.44 126.59 50.49 126.59 100.84 154.06 51.38 152.8"></polygon>
                    <polygon id="路径" fill="url(#linearGradient-5)" fill-rule="nonzero" points="107.57 64.5 107.08 95.79 178.65 74.12"></polygon>
                    <polygon id="路径" fill="url(#linearGradient-6)" fill-rule="nonzero" points="50.55 77.09 107.57 64.63 107.57 83.63"></polygon>
                    <polygon id="路径" fill="url(#linearGradient-7)" fill-rule="nonzero" points="50.55 77.09 117.85 83.76 117.85 168.91 50.55 152.62"></polygon>
                    <polygon id="路径" fill="url(#linearGradient-8)" fill-rule="nonzero" points="50.55 77.09 117.89 83.49 110.56 124.6 50.55 112.1"></polygon>
                    <polygon id="路径" fill="url(#linearGradient-9)" fill-rule="nonzero" opacity="0.99" points="117.85 83.76 178.65 74.12 178.65 150.4 117.85 168.91"></polygon>
                    <polygon id="路径" fill="url(#linearGradient-10)" fill-rule="nonzero" points="117.89 83.97 172.94 75.17 178.65 111.18 126.03 124.6"></polygon>
                    <polygon id="路径" fill="url(#linearGradient-11)" fill-rule="nonzero" points="50.55 77.09 34.36 104.49 102.31 117.45 117.85 83.76"></polygon>
                    <polygon id="路径" fill="url(#linearGradient-12)" fill-rule="nonzero" opacity="0.99" points="117.85 83.76 136.95 117.45 198.19 102.08 178.65 74.12"></polygon>
                    <path d="M109.54,81.2 C109.93,81.2 110.32,81.29 110.71,81.31" id="路径" stroke="#DDDDDD"></path>
                    <line x1="151.7" y1="53.13" x2="152.13" y2="52.04" id="路径" stroke="#DDDDDD"></line>
                    <path d="M151.7,38.25 C129.93,50.74 116.61,61.86 120.57,68.74 C125.95,78.09 135.1,74.21 136.48,70.28 C137.86,66.35 134.05,58.7 125.95,62.87 C117.85,67.04 109.03,74.52 107.08,81.87" id="路径-19" stroke="url(#linearGradient-13)" stroke-width="2" stroke-dasharray="4"></path>
                    <g id="飞机" transform="translate(139.000000, 0.000000)">
                        <polygon id="路径-16备份" fill="url(#linearGradient-14)" fill-rule="nonzero" points="56.79 10.76 0.91 0.12 10.67 14.1"></polygon>
                        <polygon id="路径-16备份-2" fill="url(#linearGradient-15)" fill-rule="nonzero" points="56.79 10.76 10.67 14.1 4.82 28.96"></polygon>
                        <polygon id="路径" fill="url(#linearGradient-16)" fill-rule="nonzero" points="56.79 10.76 10.67 14.1 15.09 25.37"></polygon>
                        <polygon id="路径" fill="url(#linearGradient-17)" fill-rule="nonzero" points="56.79 10.76 14.77 20.04 26.69 36.56"></polygon>
                        <line x1="10.67" y1="14.1" x2="0.91" y2="0.58" id="路径-16" stroke="#9AC2FD" stroke-linecap="round"></line>
                        <line x1="14.9" y1="20.46" x2="26.32" y2="36.27" id="路径-17" stroke="#9AC2FD" stroke-linecap="round"></line>
                        <line x1="10.67" y1="14.1" x2="5" y2="28.52" id="路径-18" stroke="#9AC2FD" stroke-linecap="round"></line>
                    </g>
                </g>
            </g>
        </g>
    </g>
</svg>