<?xml version="1.0" standalone="no"?>
<!DOCTYPE svg PUBLIC "-//W3C//DTD SVG 1.1//EN" "http://www.w3.org/Graphics/SVG/1.1/DTD/svg11.dtd" >
<svg xmlns="http://www.w3.org/2000/svg">
  <metadata>Created by iconfont</metadata>
  <defs>
  <font id="iconfont" horiz-adv-x="1024">
    <font-face
      font-family="iconfont"
      font-weight="400"
      font-stretch="normal"
      units-per-em="1024"
      ascent="896"
      descent="-128"
    />
      <missing-glyph />
      
      <glyph glyph-name="yuanbili" unicode="&#60059;" d="M288 201.28H356.48a9.152 9.152 0 0 1 9.152 9.152V557.824a9.152 9.152 0 0 1-9.152 9.152H288a9.152 9.152 0 0 1-9.152-9.152v-347.392c0-5.056 4.096-9.152 9.152-9.152zM512 258.432a45.44 45.44 0 0 1 45.696 44.544A45.952 45.952 0 0 1 512 349.824a45.952 45.952 0 0 1-45.696-46.848c0-24.128 20.48-44.544 45.696-44.544z m0 160a45.44 45.44 0 0 1 45.696 44.544A45.952 45.952 0 0 1 512 509.824a45.952 45.952 0 0 1-45.696-46.848c0-24.128 20.48-44.544 45.696-44.544zM932.544 840.96H91.392a36.48 36.48 0 0 1-36.544-36.48v-841.216a36.48 36.48 0 0 1 36.544-36.544h841.152a36.48 36.48 0 0 1 36.608 36.544V804.48a36.48 36.48 0 0 1-36.608 36.608z m-45.696-832H137.152V758.784h749.696V8.96zM667.392 201.28H736a9.152 9.152 0 0 1 9.152 9.152V557.824a9.152 9.152 0 0 1-9.152 9.152h-68.608a9.152 9.152 0 0 1-9.088-9.152v-347.392c0-5.056 4.096-9.152 9.152-9.152z"  horiz-adv-x="1024" />
      
      <glyph glyph-name="tongdao" unicode="&#60058;" d="M142.336 668.416H881.92v-568.896H142.336V668.416z m-56.896 85.312a28.416 28.416 0 0 1-28.416-28.416v-682.688c0-15.68 12.736-28.416 28.416-28.416h853.312a28.416 28.416 0 0 1 28.48 28.416V725.312a28.416 28.416 0 0 1-28.48 28.416H85.44zM113.92 270.208h796.416v-85.312H113.92V270.208zM430.272 588.16c0 10.88 11.84 17.728 21.312 12.288l209.728-121.088c9.472-5.504 9.472-19.2 0-24.64L451.584 333.632a14.208 14.208 0 0 0-21.312 12.352V588.096z"  horiz-adv-x="1024" />
      
      <glyph glyph-name="a-12gongge" unicode="&#60057;" d="M142.336 668.416H881.92v-568.896H142.336V668.416z m-56.896 85.312a28.416 28.416 0 0 1-28.416-28.416v-682.688c0-15.68 12.736-28.416 28.416-28.416h853.312a28.416 28.416 0 0 1 28.48 28.416V725.312a28.416 28.416 0 0 1-28.48 28.416H85.44zM312.96 611.52H199.296v-113.792H312.96V611.52zM312.96 440.832H199.296v-113.728H312.96V440.832zM199.232 270.208v-113.792H312.96V270.208H199.232zM483.648 611.52H369.92v-113.792h113.728V611.52zM540.544 611.52h113.792v-113.792H540.544V611.52zM483.648 440.832H369.92v-113.728h113.728V440.832zM540.544 440.832h113.792v-113.728H540.544V440.832zM483.648 270.208H369.92v-113.792h113.728V270.208zM540.544 270.208h113.792v-113.792H540.544V270.208zM824.96 611.52h-113.728v-113.792h113.792V611.52zM711.232 440.832h113.792v-113.728h-113.792V440.832zM824.96 270.208h-113.728v-113.792h113.792V270.208z"  horiz-adv-x="1024" />
      
      <glyph glyph-name="yuntaiyoushang" unicode="&#60053;" d="M697.941333 569.941333l-36.394666-436.608a64 64 0 1 1 127.573333-10.666666l42.24 507.008a68.266667 68.266667 0 0 1-73.685333 73.685333l-506.965334-42.24a64 64 0 1 1 10.624-127.573333l436.608 36.394666z"  horiz-adv-x="1024" />
      
      <glyph glyph-name="yuntaizuoshang" unicode="&#60054;" d="M326.058667 569.941333l36.394666-436.608a64 64 0 0 0-127.573333-10.666666l-42.24 507.008a68.266667 68.266667 0 0 0 73.685333 73.685333l507.008-42.24a64 64 0 1 0-10.666666-127.573333L326.058667 569.941333z"  horiz-adv-x="1024" />
      
      <glyph glyph-name="yuntaizuoxia" unicode="&#60055;" d="M326.058667 198.058667l36.394666 436.608a64 64 0 0 1-127.573333 10.666666l-42.24-507.008a68.266667 68.266667 0 0 1 73.685333-73.685333l507.008 42.24a64 64 0 1 1-10.666666 127.573333l-436.608-36.394666z"  horiz-adv-x="1024" />
      
      <glyph glyph-name="yuntaiyouxia" unicode="&#60056;" d="M697.941333 198.058667l-36.394666 436.608a64 64 0 1 0 127.573333 10.666666l42.24-507.008a68.266667 68.266667 0 0 0-73.685333-73.685333l-506.965334 42.24a64 64 0 1 0 10.624 127.573333l436.608-36.394666z"  horiz-adv-x="1024" />
      
      <glyph glyph-name="yuntaizhengzuo" unicode="&#60049;" d="M268.864 411.84a32 32 0 0 1 0-55.68l534.08-301.952a32 32 0 0 1 47.744 28.672l-8.064 316.928 7.936 285.184a32 32 0 0 1-47.744 28.736L268.864 411.84z"  horiz-adv-x="1056" />
      
      <glyph glyph-name="yuntaizhengyou" unicode="&#60050;" d="M810.336 411.84a32 32 0 0 0 0-55.68l-534.08-301.952a32 32 0 0 0-47.712 28.672l8.032 316.928-7.904 285.184a32 32 0 0 0 47.744 28.736l533.92-301.888z"  horiz-adv-x="1056" />
      
      <glyph glyph-name="yuntaizhengxia" unicode="&#60051;" d="M567.456 113.28a32 32 0 0 0-55.68 0L209.76 647.36a32 32 0 0 0 28.672 47.712l316.96-8.064 285.184 7.936a32 32 0 0 0 28.736-47.744L567.456 113.28z"  horiz-adv-x="1056" />
      
      <glyph glyph-name="yuntaizhengshang" unicode="&#60052;" d="M511.744 654.72a32 32 0 0 0 55.712 0l301.952-534.08a32 32 0 0 0-28.672-47.712l-316.928 8.064-285.184-7.936a32 32 0 0 0-28.736 47.744L511.744 654.72z"  horiz-adv-x="1056" />
      
      <glyph glyph-name="a-16gongge" unicode="&#60048;" d="M142.336 668.4159999999999H881.92v-568.896H142.336V668.4159999999999z m-56.896 85.312a28.416 28.416 0 0 1-28.416-28.416v-682.688c0-15.68 12.736-28.416 28.416-28.416h853.312a28.416 28.416 0 0 1 28.48 28.416V725.312a28.416 28.416 0 0 1-28.48 28.416H85.44zM199.232 611.52H312.96v-91.008H199.232V611.52zM199.232 490.176H312.96v-91.008H199.232V490.176zM199.232 368.832H312.96V277.76H199.232V368.832zM199.232 247.42399999999998H312.96v-91.008H199.232v91.008zM369.92 611.52h113.728v-91.008H369.92V611.52zM540.544 611.52h113.792v-91.008H540.544V611.52zM369.92 490.176h113.728v-91.008H369.92V490.176zM540.544 490.176h113.792v-91.008H540.544V490.176zM369.92 368.832h113.728V277.76H369.92V368.832zM369.92 247.42399999999998h113.728v-91.008H369.92v91.008zM540.544 368.832h113.792V277.76H540.544V368.832zM540.544 247.42399999999998h113.792v-91.008H540.544v91.008zM711.232 611.52h113.792v-91.008h-113.792V611.52zM711.232 490.176h113.792v-91.008h-113.792V490.176zM711.232 368.832h113.792V277.76h-113.792V368.832zM711.232 247.42399999999998h113.792v-91.008h-113.792v91.008z"  horiz-adv-x="1024" />
      
      <glyph glyph-name="yuntaixuanxiang" unicode="&#60047;" d="M369.792 298.688H199.04l-113.792-341.376h881.792l-113.792 341.376h-170.688v-85.376h109.184l56.896-170.624H203.712l56.896 170.624h109.184V298.688zM310.848 457.216v-36.608c0-20.352 16.32-36.672 36.608-36.672h36.672c20.096 0 36.48 16.576 36.48 36.672V566.976a36.48 36.48 0 0 1-36.48 36.608h-36.672a36.608 36.608 0 0 1-36.608-36.608v-36.672H128v-73.088h182.848zM896 457.216V530.304H456.96v-73.088H896zM493.632 685.824v-36.672a36.672 36.672 0 0 1 36.48-36.608h36.672a36.48 36.48 0 0 1 36.608 36.48V795.264A36.672 36.672 0 0 1 566.784 832h-36.672a36.032 36.032 0 0 1-25.792-10.624 37.248 37.248 0 0 1-10.688-25.856v-36.608H128v-73.088h365.632zM896 685.824V758.912H639.872v-73.088H896z"  horiz-adv-x="1024" />
      
      <glyph glyph-name="tingzhi" unicode="&#60040;" d="M128 768m128 0l512 0q128 0 128-128l0-512q0-128-128-128l-512 0q-128 0-128 128l0 512q0 128 128 128Z"  horiz-adv-x="1024" />
      
      <glyph glyph-name="wenjianjia" unicode="&#60045;" d="M880 597.632H520.96L403.776 709.76a8.128 8.128 0 0 1-5.504 2.176H144a32 32 0 0 1-32-32v-592a32 32 0 0 1 32-32h736a32 32 0 0 1 32 32V565.632a32 32 0 0 1-32 32z"  horiz-adv-x="1024" />
      
      <glyph glyph-name="dakaiwenjianjia" unicode="&#60046;" d="M928 451.968h-108.032V565.632a32 32 0 0 1-32 32H473.024L355.712 709.76a8.128 8.128 0 0 1-5.504 2.176H96a32 32 0 0 1-32-32v-592a32 32 0 0 1 32-32h697.984a32.064 32.064 0 0 1 29.696 20.032l134.016 331.968a32 32 0 0 1-29.696 44.032z m-180.032 0H238.08a32.064 32.064 0 0 1-29.696-19.968l-72.32-179.2V640H324.48l119.68-114.368h303.808v-73.6z"  horiz-adv-x="1024" />
      
      <glyph glyph-name="bofang" unicode="&#60037;" d="M606.976 384l-265.6 166.016v-332.032L606.912 384z m122.432 24.128a28.416 28.416 0 0 0 0-48.256L299.52 91.2a28.416 28.416 0 0 0-43.52 24.128V652.672c0 22.4 24.576 35.968 43.52 24.128l429.888-268.672z"  horiz-adv-x="1024" />
      
      <glyph glyph-name="daofang" unicode="&#60038;" d="M353.024 384l265.6 166.016v-332.032L353.088 384z m-122.432 24.128a28.416 28.416 0 0 1 0-48.256l429.888-268.672a28.416 28.416 0 0 1 43.52 24.128V652.672a28.416 28.416 0 0 1-43.52 24.128L230.592 408.128z"  horiz-adv-x="1024" />
      
      <glyph glyph-name="xialajiantou" unicode="&#60039;" d="M830.848 603.392h-64.32a13.76 13.76 0 0 1-11.008-5.632L512 262.08 268.48 597.76a13.76 13.76 0 0 1-11.072 5.632H193.088c-5.568 0-8.768-6.336-5.568-10.88l302.272-416.64a27.328 27.328 0 0 1 44.288 0l302.272 416.64a6.848 6.848 0 0 1-5.504 10.88z"  horiz-adv-x="1024" />
      
      <glyph glyph-name="zanting-1" unicode="&#60041;" d="M274.24 768h91.456v-768H274.24V768z m466.304 0h-73.152a9.152 9.152 0 0 1-9.152-9.152v-749.696c0-5.056 4.096-9.152 9.152-9.152h73.152a9.152 9.152 0 0 1 9.152 9.152V758.848A9.152 9.152 0 0 1 740.48 768z"  horiz-adv-x="1024" />
      
      <glyph glyph-name="kuaijin" unicode="&#60042;" d="M881.792 696.896c0 15.68 12.736 28.416 28.416 28.416h28.48c15.68 0 28.416-12.736 28.416-28.416v-597.312a28.416 28.416 0 0 0-28.416-28.48h-28.416a28.416 28.416 0 0 0-28.48 28.416V374.528a28.032 28.032 0 0 0-12.16-14.912l-343.04-205.76a28.416 28.416 0 0 0-43.008 24.384V374.528a28.096 28.096 0 0 0-12.224-14.912l-342.912-205.76a28.416 28.416 0 0 0-43.136 24.384v411.52c0 22.08 24.128 35.776 43.136 24.384l342.912-205.76c6.08-3.648 10.112-8.96 12.16-14.912V589.76c0 22.08 24.192 35.776 43.136 24.384l342.912-205.76c6.08-3.648 10.176-8.96 12.224-14.912v303.36zM744.384 384L568.896 489.28v-210.56L744.384 384zM170.688 278.72L346.176 384 170.688 489.28v-210.56z"  horiz-adv-x="1024" />
      
      <glyph glyph-name="houtui" unicode="&#60043;" d="M56.896 668.416c0 15.744 12.736 28.48 28.416 28.48h28.48c15.68 0 28.416-12.8 28.416-28.48v-275.008a28.096 28.096 0 0 0 12.224 14.976l342.912 205.76a28.416 28.416 0 0 0 43.136-24.384v-196.288a28.096 28.096 0 0 0 12.16 14.912l342.976 205.76a28.416 28.416 0 0 0 43.072-24.384v-411.52a28.416 28.416 0 0 0-43.072-24.384L552.64 359.616a28.096 28.096 0 0 0-12.16 14.912v-196.288a28.416 28.416 0 0 0-43.136-24.384L154.432 359.616a28.096 28.096 0 0 0-12.224 14.976v-303.488a28.416 28.416 0 0 0-28.416-28.416h-28.48a28.416 28.416 0 0 0-28.416 28.416V668.416zM279.616 384l175.488-105.28v210.56L279.68 384z m573.696-105.28v210.56L677.888 384l175.424-105.28z"  horiz-adv-x="1024" />
      
      <glyph glyph-name="shuaxin" unicode="&#60044;" d="M901.376 679.552l64.448 50.368a9.216 9.216 0 0 0 14.848-7.04l-0.896-206.72a9.152 9.152 0 0 0-11.328-8.832l-200.64 49.152a9.152 9.152 0 0 0-3.456 16.064l68.8 53.76a394.048 394.048 0 0 1-31.744 35.84 390.336 390.336 0 0 1-277.824 115.2 390.592 390.592 0 0 1-277.888-115.2 391.104 391.104 0 0 1-115.072-278.08 391.168 391.168 0 0 1 115.072-278.016 390.336 390.336 0 0 1 277.824-115.2 390.528 390.528 0 0 1 277.888 115.2 391.04 391.04 0 0 1 90.944 142.08 9.152 9.152 0 0 0 11.52 5.44l64.832-22.272a9.152 9.152 0 0 0 5.568-11.776A479.872 479.872 0 0 0 43.392 384.64 479.68 479.68 0 0 0 523.392 864a478.848 478.848 0 0 0 378.048-184.448zM401.344 600.832l238.08-205.248a15.616 15.616 0 0 0 0-23.168l-238.08-205.248c-8.832-7.616-21.824-0.768-21.824 11.52V589.312c0 12.288 12.992 19.2 21.824 11.52z"  horiz-adv-x="1024" />
      
      <glyph glyph-name="yigongge" unicode="&#60033;" d="M824.96 611.584H199.04v-455.104h625.792v455.04zM56.896 725.312c0 15.744 12.736 28.48 28.416 28.48h853.312c15.744 0 28.48-12.8 28.48-28.48v-682.624a28.416 28.416 0 0 0-28.48-28.48H85.312a28.416 28.416 0 0 0-28.416 28.48V725.312z m85.312-625.728h739.584V668.48H142.208v-568.96z"  horiz-adv-x="1024" />
      
      <glyph glyph-name="qiehuanbuju" unicode="&#60034;" d="M85.312 839.104a28.416 28.416 0 0 1-28.416-28.416v-853.376c0-15.68 12.736-28.416 28.416-28.416h853.312a28.416 28.416 0 0 1 28.48 28.416V810.688a28.416 28.416 0 0 1-28.48 28.416H85.312z m56.896-512h341.312v-312.896H142.208v312.96z m0 85.312V753.792h341.312v-341.376H142.208z m739.584-398.208h-312.96v199.104h312.96v-199.04z m0 284.48h-312.96V469.312h312.96v-170.624z m-312.96 455.04h312.96v-199.04h-312.96v199.04z"  horiz-adv-x="1024" />
      
      <glyph glyph-name="sigongge" unicode="&#60035;" d="M199.104 611.584h284.48v-199.104H199.04v199.04zM483.584 355.584H199.04v-199.104h284.48v199.04zM540.416 611.584h284.48v-199.104H540.416v199.04zM824.896 355.584H540.416v-199.104h284.48v199.04zM85.312 753.792a28.416 28.416 0 0 1-28.416-28.48v-682.624c0-15.744 12.736-28.48 28.416-28.48h853.312a28.416 28.416 0 0 1 28.48 28.48V725.312a28.416 28.416 0 0 1-28.48 28.48H85.312z m56.896-85.312h739.584v-568.96H142.208v568.96z"  horiz-adv-x="1024" />
      
      <glyph glyph-name="jiugongge" unicode="&#60036;" d="M369.792 611.584H199.104v-113.792h170.688V611.584zM199.104 440.896h170.688V327.04H199.104V440.96zM369.792 270.208H199.104v-113.792h170.688V270.208zM426.688 611.584h170.624v-113.792H426.624V611.584zM597.312 440.896H426.624V327.04h170.688V440.96zM426.688 270.208h170.624v-113.792H426.624V270.208zM824.896 611.584h-170.688v-113.792h170.688V611.584zM654.208 440.896h170.688V327.04h-170.688V440.96zM824.896 270.208h-170.688v-113.792h170.688V270.208zM56.896 725.312c0 15.744 12.736 28.48 28.416 28.48h853.312c15.744 0 28.48-12.8 28.48-28.48v-682.624a28.416 28.416 0 0 0-28.48-28.48H85.312a28.416 28.416 0 0 0-28.416 28.48V725.312z m85.312-625.728h739.584V668.48H142.208v-568.96z"  horiz-adv-x="1024" />
      
      <glyph glyph-name="tuichuquanping" unicode="&#60029;" d="M353.938286 738.084571a10.459429 10.459429 0 0 1-17.773715 6.144l-57.051428-57.051428L104.448 861.696a10.459429 10.459429 0 0 1-14.774857 0l-55.369143-55.296a10.459429 10.459429 0 0 1 0-14.701714l174.665143-174.665143-57.344-57.344a10.459429 10.459429 0 0 1 6.144-17.773714l209.188571-24.649143c6.729143-0.731429 12.434286 4.827429 11.702857 11.629714l-24.722285 209.188571z m13.165714-487.424l-209.334857-24.649142a10.459429 10.459429 0 0 1-6.144-17.773715l57.344-57.344-174.665143-174.372571a10.459429 10.459429 0 0 1 0-14.774857l55.369143-55.222857a10.459429 10.459429 0 0 1 14.774857 0l174.665143 174.518857 57.051428-57.051429a10.386286 10.386286 0 0 1 10.825143-2.56 10.459429 10.459429 0 0 1 6.948572 8.630857l24.649143 209.115429a10.313143 10.313143 0 0 1-11.483429 11.483428zM656.822857 517.412571l209.334857 24.649143a10.459429 10.459429 0 0 1 6.144 17.773715l-57.344 57.197714 174.665143 174.518857a10.459429 10.459429 0 0 1 0 14.774857l-55.369143 55.222857a10.459429 10.459429 0 0 1-14.774857 0l-174.592-174.372571-57.051428 57.051428a10.459429 10.459429 0 0 1-17.846858-6.144l-24.649142-209.042285c-0.731429-6.802286 4.827429-12.434286 11.483428-11.702857z m158.134857-366.445714l57.344 57.417143a10.459429 10.459429 0 0 1-6.144 17.700571l-209.188571 24.722286a10.459429 10.459429 0 0 1-11.702857-11.629714l24.722285-209.188572a10.459429 10.459429 0 0 1 17.773715-6.217142l57.051428 57.051428 174.665143-174.445714a10.459429 10.459429 0 0 1 14.774857 0l55.369143 55.222857a10.459429 10.459429 0 0 1 0 14.774857l-174.592 174.665143z"  horiz-adv-x="1024" />
      
      <glyph glyph-name="quanping" unicode="&#60030;" d="M221.988571 744.009143l57.344 57.344a10.459429 10.459429 0 0 1-6.144 17.773714L64 843.776a10.459429 10.459429 0 0 1-11.702857-11.629714l24.722286-209.188572a10.459429 10.459429 0 0 1 17.773714-6.144l57.051428 57.051429 174.665143-174.518857a10.459429 10.459429 0 0 1 14.774857 0l55.369143 55.296a10.459429 10.459429 0 0 1 0 14.701714L221.988571 744.009143z m460.726858-244.662857a10.459429 10.459429 0 0 1 14.701714 0l174.665143 174.518857 57.051428-57.051429a10.459429 10.459429 0 0 1 17.773715 6.070857l24.722285 209.188572a10.459429 10.459429 0 0 1-11.702857 11.556571l-209.188571-24.649143a10.459429 10.459429 0 0 1-6.144-17.773714l57.344-57.344-174.592-174.372571a10.459429 10.459429 0 0 1 0-14.774857l55.369143-55.369143z m264.192-354.230857a10.459429 10.459429 0 0 1-17.773715 6.144l-57.051428-57.051429-174.665143 174.518857a10.459429 10.459429 0 0 1-14.701714 0l-55.369143-55.296a10.459429 10.459429 0 0 1 0-14.774857l174.592-174.592-57.344-57.344a10.386286 10.386286 0 0 1 0.877714-15.506286c1.462857-1.243429 3.364571-2.048 5.266286-2.194285l209.188571-24.722286c6.729143-0.804571 12.434286 4.827429 11.702857 11.629714l-24.722285 209.188572z m-605.622858 123.611428a10.459429 10.459429 0 0 1-14.774857 0l-174.592-174.518857-57.051428 57.051429a10.532571 10.532571 0 0 1-15.579429-0.804572 10.459429 10.459429 0 0 1-2.194286-5.339428l-24.722285-209.115429c-0.731429-6.582857 4.827429-12.434286 11.629714-11.629714l209.188571 24.722285a10.459429 10.459429 0 0 1 6.144 17.773715l-57.344 57.197714 174.665143 174.518857a10.459429 10.459429 0 0 1 0 14.701714l-55.369143 55.442286z"  horiz-adv-x="1024" />
      
      <glyph glyph-name="yinliang" unicode="&#60031;" d="M583.104 671.36a71.104 71.104 0 0 1-111.36 58.624L242.88 572.928H142.208c-39.232 0-71.04-31.808-71.04-71.04v-235.712c0-39.296 31.808-71.104 71.04-71.104h100.608l228.992-157.056a71.104 71.104 0 0 1 111.36 58.624V671.36z m-295.68-171.264l210.368 144.256v-520.704L287.424 267.904a71.104 71.104 0 0 1-40.256 12.48H156.48V487.616h90.688c14.4 0 28.416 4.352 40.256 12.48zM831.104 702.08a28.416 28.416 0 0 1-39.68 6.784L649.088 608a28.416 28.416 0 0 1-6.784-39.68l16.448-23.232c9.088-12.8 26.816-15.808 39.68-6.72l142.4 100.864c12.8 9.088 15.872 26.88 6.784 39.68l-16.448 23.232zM698.304 196.864a28.416 28.416 0 0 1-39.68-6.72l-16.384-23.232a28.416 28.416 0 0 1 6.72-39.68l142.528-100.864c12.8-9.088 30.528-6.08 39.68 6.72l16.384 23.232a28.416 28.416 0 0 1-6.784 39.68l-142.464 100.864zM711.104 355.584c0-15.744 12.8-28.48 28.48-28.48h199.04a28.416 28.416 0 0 1 28.48 28.48V384a28.416 28.416 0 0 1-28.416 28.416h-199.104A28.416 28.416 0 0 1 711.04 384v-28.416z"  horiz-adv-x="1024" />
      
      <glyph glyph-name="wuyinliang" unicode="&#60032;" d="M471.808 729.984a71.104 71.104 0 0 0 111.36-58.624v-574.72a71.104 71.104 0 0 0-111.36-58.624l-228.992 157.056H142.208a71.104 71.104 0 0 0-71.04 71.04V501.888c0 39.296 31.808 71.104 71.04 71.104h100.608l228.992 157.056z m25.984-85.632L287.424 500.096a71.104 71.104 0 0 0-40.256-12.48H156.48v-207.232h90.688c14.4 0 28.416-4.352 40.256-12.48l210.368-144.256V644.352zM674.368 474.24a28.416 28.416 0 0 0 0 40.192l20.096 20.096a28.48 28.48 0 0 0 40.256 0l221.248-221.248a28.416 28.416 0 0 0 0-40.192l-20.16-20.096a28.416 28.416 0 0 0-40.192 0L674.368 474.24zM895.616 534.528a28.48 28.48 0 0 0 40.192 0l20.16-20.096a28.416 28.416 0 0 0 0-40.192l-221.248-221.248a28.416 28.416 0 0 0-40.256 0l-20.096 20.096a28.416 28.416 0 0 0 0 40.192l221.248 221.248z"  horiz-adv-x="1024" />
      
      <glyph glyph-name="jian" unicode="&#60027;" d="M301.696 347.52h420.608a9.152 9.152 0 0 1 9.088 9.088V411.52a9.152 9.152 0 0 1-9.088 9.152H301.696a9.152 9.152 0 0 1-9.152-9.152v-54.848c0-4.992 4.16-9.152 9.152-9.152zM932.608 841.152H91.456a36.48 36.48 0 0 1-36.608-36.608v-841.152a36.48 36.48 0 0 1 36.608-36.544h841.152a36.48 36.48 0 0 1 36.544 36.544V804.544a36.48 36.48 0 0 1-36.544 36.608z m-45.76-832H137.152V758.848h749.696v-749.696z"  horiz-adv-x="1024" />
      
      <glyph glyph-name="jia" unicode="&#60028;" d="M301.696 347.392h173.696v-173.76c0-4.992 4.16-9.088 9.152-9.088h54.848a9.152 9.152 0 0 1 9.152 9.152V347.392h173.76a9.152 9.152 0 0 1 9.088 9.152v54.848a9.152 9.152 0 0 1-9.088 9.152H548.48V594.24a9.152 9.152 0 0 1-9.152 9.152h-54.848a9.152 9.152 0 0 1-9.152-9.152V420.48H301.696a9.152 9.152 0 0 1-9.152-9.152v-54.848c0-5.056 4.16-9.152 9.152-9.152zM932.608 841.152H91.456a36.48 36.48 0 0 1-36.608-36.608v-841.152a36.48 36.48 0 0 1 36.608-36.544h841.152a36.48 36.48 0 0 1 36.544 36.544V804.544a36.48 36.48 0 0 1-36.544 36.608z m-45.76-832H137.152V758.848h749.696v-749.696z"  horiz-adv-x="1024" />
      
      <glyph glyph-name="gaojixuanxiang" unicode="&#60021;" d="M512 384a142.208 142.208 0 1 1 0 284.416A142.208 142.208 0 0 1 512 384z m0 85.312a56.896 56.896 0 1 0 0 113.792 56.896 56.896 0 0 0 0-113.792zM753.792 327.616a312.896 312.896 0 1 1-483.52 0V-32c0-38.784 43.264-61.76 75.392-40.128L512 40.32l166.4-112.384a48.384 48.384 0 0 1 75.392 40.128V327.04 327.68zM512 298.688a227.584 227.584 0 1 0 0 455.04 227.584 227.584 0 0 0 0-455.04z m156.416-43.52v-217.536l-129.344 87.36a48.384 48.384 0 0 1-54.144 0l-129.344-87.36v217.6A311.424 311.424 0 0 1 512 213.248c56.96 0 110.4 15.232 156.416 41.92z"  horiz-adv-x="1024" />
      
      <glyph glyph-name="chuangkouzhedie" unicode="&#60022;" d="M56.96 753.792H967.04v-85.312H56.96V753.728zM56.96 440.896H967.04v-85.312H56.96V440.896zM113.792 128h853.312v-85.312H113.792V128zM63.04 74.816a12.096 12.096 0 0 0 0 21.056l202.944 115.84a12.288 12.288 0 0 0 18.496-10.56v-231.68c0-9.344-10.24-15.168-18.496-10.496l-202.88 115.84z"  horiz-adv-x="1024" />
      
      <glyph glyph-name="duijiang" unicode="&#60023;" d="M341.312 668.416a170.688 170.688 0 1 0 341.376 0V384a170.688 170.688 0 1 0-341.312 0V668.416z m256 0a85.312 85.312 0 0 1-170.624 0V384a85.312 85.312 0 1 1 170.688 0V668.416zM184.896 384v56.896h85.312V384a241.792 241.792 0 1 1 483.584 0v56.896h85.312V384a327.232 327.232 0 0 0-270.208-322.176v-104.512H768c31.424 0 56.96-25.472 56.96-56.896V-128H199.04v28.416c0 31.424 25.472 56.96 56.96 56.96h227.52v100.736A327.168 327.168 0 0 0 184.896 384z"  horiz-adv-x="1024" />
      
      <glyph glyph-name="xiazai" unicode="&#60024;" d="M504.768 213.952a9.152 9.152 0 0 1 14.4 0l128 161.92a9.152 9.152 0 0 1-7.168 14.72H555.328V777.344a9.152 9.152 0 0 1-9.152 9.152H477.568a9.152 9.152 0 0 1-9.152-9.152v-386.56H384a9.088 9.088 0 0 1-7.168-14.784l128-162.048z m425.536 40h-68.608a9.152 9.152 0 0 1-9.152-9.152v-176H171.392v176a9.152 9.152 0 0 1-9.088 9.152H93.696a9.152 9.152 0 0 1-9.152-9.152v-226.304a36.48 36.48 0 0 1 36.608-36.544h781.696a36.48 36.48 0 0 1 36.544 36.544v226.304a9.152 9.152 0 0 1-9.088 9.152z"  horiz-adv-x="1024" />
      
      <glyph glyph-name="piliangxiazai" unicode="&#60025;" d="M469.312 327.104V696.96h85.376V327.04h128l-170.688-256-170.688 256h128zM512-128A512 512 0 1 1 512 896a512 512 0 0 1 0-1024z m0 85.312A426.688 426.688 0 1 0 512 810.688a426.688 426.688 0 0 0 0-853.376z"  horiz-adv-x="1024" />
      
      <glyph glyph-name="jieping" unicode="&#60026;" d="M512 99.584a227.584 227.584 0 1 1 0 455.04 227.584 227.584 0 0 1 0-455.04z m0 85.312a142.208 142.208 0 1 0 0 284.416 142.208 142.208 0 0 0 0-284.416zM853.312 469.312a56.896 56.896 0 1 0-113.728 0 56.896 56.896 0 0 0 113.728 0zM349.824 768c-39.296 0-74.944-23.168-90.944-59.136L228.288 640H142.208C87.232 640 42.688 595.456 42.688 540.416v-440.832c0-55.04 44.544-99.584 99.52-99.584h739.584c54.976 0 99.52 44.544 99.52 99.584V540.416c0 55.04-44.544 99.584-99.52 99.584h-86.08l-30.592 68.864A99.584 99.584 0 0 1 674.112 768H349.824z m-12.992-93.76a14.208 14.208 0 0 0 12.992 8.448h324.288c5.632 0 10.752-3.328 12.992-8.448l53.12-119.552h141.568c7.808 0 14.208-6.4 14.208-14.272v-440.832c0-7.872-6.4-14.272-14.208-14.272H142.208A14.208 14.208 0 0 0 128 99.584V540.416c0 7.872 6.4 14.272 14.208 14.272h141.504l53.12 119.552z"  horiz-adv-x="1024" />
      
      <glyph glyph-name="guanbiquanbu" unicode="&#60020;" d="M824.896 696.896V810.688a56.896 56.896 0 0 1-56.96 56.832H85.376a56.896 56.896 0 0 1-56.896-56.832V128c0-31.424 25.472-56.896 56.96-56.896H199.04v-113.792c0-31.36 25.472-56.896 56.896-56.896h312.896v85.376H284.416V611.584h625.792V327.04h85.312V640a56.896 56.896 0 0 1-56.896 56.896H824.96zM113.792 782.208h625.728V696.96H256A56.896 56.896 0 0 1 199.04 640v-483.584H113.856V782.208zM995.584 241.792h-85.376l-86.4-115.328-87.68 115.328H650.88l130.56-171.776-127.168-169.6h85.376l84.736 113.024 85.888-112.96h85.376l-128.896 169.536 128.896 171.776z"  horiz-adv-x="1024" />
      
      <glyph glyph-name="xianshimaliuxinxi" unicode="&#60019;" d="M0 725.312c0 31.424 25.472 56.96 56.896 56.96H967.04c31.424 0 56.896-25.536 56.896-56.96v-682.624c0-31.424-25.472-56.96-56.896-56.96H56.96a56.896 56.896 0 0 0-56.896 56.96V725.312z m85.312-654.208h853.376V355.584h-162.432L639.68 163.84a45.504 45.504 0 0 0-77.248 4.992l-176.832 330.88-94.848-144.128h-205.44V440.896h159.488l106.304 161.664a45.504 45.504 0 0 0 78.208-3.584L607.36 265.664l124.864 175.232h206.4v256H85.312v-625.792z"  horiz-adv-x="1024" />
      
      <glyph glyph-name="zishiying" unicode="&#60018;" d="M312.896 668.4159999999999c0 15.744 12.736 28.48 28.416 28.48h341.312c15.744 0 28.48-12.8 28.48-28.48v-280.32l125.952 125.952v-260.096l-125.952 125.952v-280.32a28.416 28.416 0 0 0-28.48-28.48H341.312a28.416 28.416 0 0 0-28.416 28.416V379.96799999999996L186.88 253.952V514.048L312.96 388.032V668.4159999999999z m85.312-512h227.584V611.5840000000001H398.208v-455.168zM56.896 810.688c0 15.68 12.736 28.416 28.416 28.416h853.312c15.744 0 28.48-12.736 28.48-28.416v-853.376a28.416 28.416 0 0 0-28.48-28.416H85.312a28.416 28.416 0 0 0-28.416 28.416V810.688z m85.312-796.48h739.584V753.792H142.208v-739.584z"  horiz-adv-x="1024" />
      
      <glyph glyph-name="yuntai" unicode="&#60017;" d="M483.52 389.888a156.544 156.544 0 0 0-113.728 150.528V682.688a156.416 156.416 0 1 0 312.832 0v-142.272A156.544 156.544 0 0 0 568.96 389.888v-219.2a42.688 42.688 0 1 0-85.376 0V389.888z m113.792 292.8a71.104 71.104 0 1 1-142.208 0v-142.272a71.104 71.104 0 0 1 142.208 0V682.688zM369.792 298.688H199.04l-113.792-341.376h881.792l-113.792 341.376h-170.688v-85.376h109.184l56.896-170.624H203.712l56.896 170.624h109.184V298.688z"  horiz-adv-x="1024" />
      
      <glyph glyph-name="zhiboluzhi" unicode="&#60016;" d="M969.152 623.36l-146.304-84.224V712.96c0 40.32-32.768 73.088-73.152 73.088H73.152C32.832 785.984 0 753.28 0 712.96v-658.304c0-40.32 32.768-73.152 73.152-73.152h676.544c40.32 0 73.152 32.832 73.152 73.152v173.696l146.304-84.224c24.32-14.08 54.848 3.584 54.848 31.552V591.744a36.608 36.608 0 0 1-54.848 31.616z m-228.608-559.616H82.304v640H740.48v-640z m201.152 190.848l-118.848 68.352V444.416l118.848 68.48v-258.304zM164.544 557.44h128a9.152 9.152 0 0 1 9.152 9.152V621.44a9.152 9.152 0 0 1-9.152 9.152h-128a9.152 9.152 0 0 1-9.088-9.152v-54.848c0-5.056 4.096-9.152 9.088-9.152z"  horiz-adv-x="1024" />
      
      <glyph glyph-name="luboluzhi" unicode="&#60015;" d="M511.936 446.976L147.008 811.008c-5.76 5.76-15.68 1.728-15.68-6.4v-103.424c0-2.432 0.96-4.8 2.688-6.4l313.088-312.32L343.68 279.296a173.76 173.76 0 1 1-85.504-324.928 173.76 173.76 0 0 1 150.528 260.48L512 317.76l103.168-103.04A173.76 173.76 0 1 1 939.328 128a173.76 173.76 0 0 1-259.2 151.232l-103.424 103.04 313.152 312.384a8.96 8.96 0 0 1 2.624 6.4V804.608a9.152 9.152 0 0 1-15.616 6.4L511.936 446.976zM349.632 128a91.52 91.52 0 0 0-91.392-91.392A91.52 91.52 0 0 0 166.784 128a91.52 91.52 0 0 0 91.456 91.456A91.52 91.52 0 0 0 349.632 128z m507.456 0a91.52 91.52 0 0 0-91.456-91.392A91.52 91.52 0 0 0 674.24 128a91.52 91.52 0 0 0 91.392 91.456A91.52 91.52 0 0 0 857.088 128z"  horiz-adv-x="1024" />
      
      <glyph glyph-name="suoxiao" unicode="&#60012;" d="M654.848 462.784H298.24a9.152 9.152 0 0 1-9.152-9.152v-68.48c0-5.12 4.096-9.216 9.152-9.216h356.48a9.152 9.152 0 0 1 9.216 9.152V453.632a9.152 9.152 0 0 1-9.152 9.152z m324.544-484.544l-166.848 166.848a433.984 433.984 0 0 1-29.696 581.76C613.696 896 338.944 896 169.088 726.784c-169.216-169.856-169.216-444.608 0-613.76a433.984 433.984 0 0 1 581.76-29.696l166.848-166.848c3.648-3.2 9.472-3.2 12.608 0l49.088 49.152c3.2 3.072 3.2 8.896 0 12.544z m-257.152 195.392a347.584 347.584 0 0 0-491.392 0 347.52 347.52 0 0 0 0 491.52 347.52 347.52 0 0 0 491.456-491.456z"  horiz-adv-x="1024" />
      
      <glyph glyph-name="fangda" unicode="&#60013;" d="M654.848 462.784H520V615.936a9.152 9.152 0 0 1-9.152 9.152H442.304a9.152 9.152 0 0 1-9.152-9.152v-153.152H298.24a9.152 9.152 0 0 1-9.152-9.152v-68.48c0-5.12 4.096-9.216 9.152-9.216h134.848v-153.152c0-4.992 4.096-9.152 9.152-9.152h68.544a9.152 9.152 0 0 1 9.152 9.152V375.936h134.848a9.152 9.152 0 0 1 9.152 9.152V453.632a9.152 9.152 0 0 1-9.152 9.152z m324.544-484.544l-166.848 166.848a433.984 433.984 0 0 1-29.696 581.76C613.696 896 338.944 896 169.088 726.784c-169.216-169.856-169.216-444.608 0-613.76a433.984 433.984 0 0 1 581.76-29.696l166.848-166.848c3.648-3.2 9.472-3.2 12.608 0l49.088 49.152c3.2 3.072 3.2 8.896 0 12.544z m-257.152 195.392a347.584 347.584 0 0 0-491.392 0 347.52 347.52 0 0 0 0 491.52 347.52 347.52 0 0 0 491.456-491.456z"  horiz-adv-x="1024" />
      
    </font>
</defs>
</svg>
